<svg width="365" height="66" viewBox="0 0 365 66" fill="none" xmlns="http://www.w3.org/2000/svg">
<path d="M32.1806 26.769C32.1806 27.0224 31.9588 27.2441 31.7054 27.2441H30.1533C29.8682 27.2441 29.6781 27.0224 29.6781 26.769V9.85251C29.6781 9.78915 29.6781 9.75747 29.5831 9.7258L25.9403 8.80711C25.6869 8.74376 25.5602 8.49033 25.6236 8.2369L26.0037 6.77967C26.067 6.49457 26.2888 6.33617 26.6055 6.43121L31.1352 7.60332C31.9905 7.82507 32.1806 8.42697 32.1806 9.06054V26.769ZM45.5902 10.5178C45.5902 12.7986 45.3051 14.541 42.866 17.0119C42.676 17.202 42.4226 17.202 42.1691 16.9802L41.1555 16.0299C40.9654 15.8398 40.9971 15.5547 41.1555 15.3963C43.1194 13.3372 43.0878 12.6086 43.0878 9.69412C43.0878 9.53572 42.9927 9.47237 42.866 9.47237H38.1146C37.8612 9.47237 37.6394 9.25061 37.6394 8.99718V7.41325C37.6394 7.15982 37.8612 6.96975 38.1146 6.96975H43.9113C44.7032 6.96975 45.5902 7.53996 45.5902 8.55368V10.5178ZM58.9998 10.5178C58.9998 12.7986 58.7147 14.541 56.2756 17.0119C56.0856 17.202 55.8322 17.202 55.5788 16.9802L54.5651 16.0299C54.3751 15.8398 54.4067 15.5547 54.5651 15.3963C56.5291 13.3372 56.4974 12.6086 56.4974 9.69412C56.4974 9.53572 56.4023 9.47237 56.2756 9.47237H51.5242C51.2708 9.47237 51.0491 9.25061 51.0491 8.99718V7.41325C51.0491 7.15982 51.2708 6.96975 51.5242 6.96975H57.321C58.1129 6.96975 58.9998 7.53996 58.9998 8.55368V10.5178ZM77.0113 22.9041V9.37733L75.5225 8.6804C75.2374 8.55368 75.2057 8.26857 75.3008 8.0785L75.9977 6.5896C76.0927 6.36785 76.3461 6.27281 76.5995 6.39953L77.8349 6.96975H85.9757C87.2111 6.96975 88.193 7.95179 88.193 9.18726V21.732C88.193 22.7141 87.4011 23.506 86.4191 23.506H77.5815C77.2647 23.506 77.0113 23.2209 77.0113 22.9041ZM85.6906 20.7817V9.66244C85.6906 9.53572 85.6272 9.47237 85.4689 9.47237H79.4504V21.0034H85.4689C85.6272 21.0034 85.6906 20.9401 85.6906 20.7817ZM101.918 10.5178C101.918 12.7986 101.633 14.541 99.1935 17.0119C99.0034 17.202 98.75 17.202 98.4966 16.9802L97.483 16.0299C97.2929 15.8398 97.3246 15.5547 97.483 15.3963C99.4469 13.3372 99.4152 12.6086 99.4152 9.69412C99.4152 9.53572 99.3202 9.47237 99.1935 9.47237H94.442C94.1886 9.47237 93.9669 9.25061 93.9669 8.99718V7.41325C93.9669 7.15982 94.1886 6.96975 94.442 6.96975H100.239C101.031 6.96975 101.918 7.53996 101.918 8.55368V10.5178ZM118.97 23.0309C118.97 23.2843 118.748 23.506 118.495 23.506H116.911C116.658 23.506 116.468 23.2843 116.468 23.0309V11.5948C116.468 10.4227 115.517 9.47237 114.314 9.47237H107.535C107.281 9.47237 107.06 9.25061 107.06 8.99718V7.41325C107.06 7.15982 107.281 6.96975 107.535 6.96975H114.314C116.879 6.96975 118.97 9.02886 118.97 11.5948V23.0309ZM136.786 7.73004L132.7 15.8081L135.709 21.8904C136.026 22.4923 135.678 23.506 134.727 23.506H124.749C124.496 23.506 124.274 23.2843 124.274 23.0309V21.4786C124.274 21.2252 124.496 21.0034 124.749 21.0034H132.605L125.351 7.73004C125.161 7.38157 125.383 6.96975 125.826 6.96975H127.315C127.79 6.96975 128.044 7.06478 128.265 7.50828L131.338 13.2105L134.062 7.47661C134.284 7.0331 134.442 6.96975 134.822 6.96975H136.279C136.755 6.96975 137.008 7.31821 136.786 7.73004ZM150.282 10.5178C150.282 12.7986 149.997 14.541 147.558 17.0119C147.368 17.202 147.114 17.202 146.861 16.9802L145.847 16.0299C145.657 15.8398 145.689 15.5547 145.847 15.3963C147.811 13.3372 147.78 12.6086 147.78 9.69412C147.78 9.53572 147.685 9.47237 147.558 9.47237H142.806C142.553 9.47237 142.331 9.25061 142.331 8.99718V7.41325C142.331 7.15982 142.553 6.96975 142.806 6.96975H148.603C149.395 6.96975 150.282 7.53996 150.282 8.55368V10.5178ZM163.692 10.5178C163.692 12.7986 163.407 14.541 160.968 17.0119C160.777 17.202 160.524 17.202 160.271 16.9802L159.257 16.0299C159.067 15.8398 159.099 15.5547 159.257 15.3963C161.221 13.3372 161.189 12.6086 161.189 9.69412C161.189 9.53572 161.094 9.47237 160.968 9.47237H156.214C155.961 9.47237 155.739 9.25061 155.739 8.99718V7.41325C155.739 7.15982 155.961 6.96975 156.214 6.96975H162.013C162.805 6.96975 163.692 7.53996 163.692 8.55368V10.5178Z" fill="white"/>
<path d="M199.803 6.9749H210.351C210.51 6.9749 210.668 7.00657 210.795 7.03825C211.65 7.26 212.189 8.14701 211.935 9.00233L207.627 23.0994C207.564 23.3528 207.279 23.4478 207.025 23.3528L205.378 22.8459C205.157 22.7826 204.998 22.5925 205.093 22.3074L209.116 9.76262C209.179 9.60423 209.116 9.47752 208.958 9.47752H199.803C199.55 9.47752 199.328 9.25576 199.328 9.00233V7.4184C199.328 7.16497 199.55 6.9749 199.803 6.9749ZM199.391 26.8058V17.6506C199.391 16.8903 199.708 13.8492 199.708 13.8492C199.74 13.5641 199.93 13.4057 200.215 13.4374L201.767 13.5958C202.052 13.6274 202.211 13.8175 202.179 14.1026C202.179 14.1026 201.894 17.0171 201.894 17.714V26.8058C201.894 27.0592 201.704 27.2493 201.419 27.2493H199.867C199.613 27.2493 199.391 27.0592 199.391 26.8058ZM229.025 23.036C229.025 23.2894 228.803 23.5112 228.549 23.5112H226.966C226.712 23.5112 226.522 23.2894 226.522 23.036V11.6C226.522 10.4279 225.572 9.47752 224.368 9.47752H217.59C217.336 9.47752 217.114 9.25576 217.114 9.00233V7.4184C217.114 7.16497 217.336 6.9749 217.59 6.9749H224.368C226.934 6.9749 229.025 9.03401 229.025 11.6V23.036ZM258.033 7.73518L254.137 16.5102L257.906 22.0857C258.065 22.3074 258.033 22.5608 257.811 22.7192L256.513 23.6379C256.291 23.7963 256.037 23.7646 255.879 23.5429L249.639 14.2927C248.403 15.1797 248.118 16.5102 248.118 18.6327V23.036C248.118 23.2894 247.928 23.5112 247.675 23.5112H246.091C245.838 23.5112 245.616 23.2894 245.616 23.036V18.6327C245.616 15.94 246.281 13.8175 248.34 12.3603L245.521 8.21037C245.363 7.98862 245.394 7.73518 245.616 7.57679L246.915 6.65811C247.136 6.49971 247.39 6.53139 247.548 6.75314L252.585 14.1976L255.436 7.48175C255.626 7.00657 255.816 6.9749 256.196 6.9749H257.526C258.001 6.9749 258.191 7.35504 258.033 7.73518ZM275.105 9.28744L269.561 23.6696C269.466 23.923 269.213 24.0181 268.96 23.923L267.312 23.3528C267.059 23.2578 266.932 22.9727 267.059 22.6875L272.349 9.76262C272.412 9.60423 272.349 9.47752 272.191 9.47752H263.701C263.448 9.47752 263.226 9.25576 263.226 9.00233V1.36776C263.226 1.11433 263.448 0.892578 263.701 0.892578H265.254C265.507 0.892578 265.729 1.11433 265.729 1.36776V6.9749H273.584C273.806 6.9749 274.028 7.00657 274.25 7.10161C275.073 7.48175 275.422 8.43212 275.105 9.28744ZM297.586 23.036C297.586 23.2894 297.364 23.5112 297.111 23.5112H295.559C295.274 23.5112 295.084 23.2894 295.084 23.036V9.85766C295.084 9.7943 295.084 9.76262 294.989 9.73094L291.346 8.81226C291.093 8.7489 290.966 8.49547 291.029 8.24204L291.409 6.78482C291.473 6.49971 291.726 6.373 292.011 6.43636L296.541 7.60847C297.301 7.79854 297.586 8.21037 297.586 8.97066V23.036ZM312.2 21.7372C312.2 22.7192 311.408 23.5112 310.426 23.5112H303.837C303.584 23.5112 303.362 23.2894 303.362 23.036V21.4838C303.362 21.2303 303.584 21.0086 303.837 21.0086H309.444C309.634 21.0086 309.697 20.9452 309.697 20.7868V9.66759C309.697 9.54087 309.602 9.47752 309.444 9.47752H306.624C306.371 9.47752 306.149 9.25576 306.149 9.00233V7.4184C306.149 7.16497 306.371 6.9749 306.624 6.9749H309.982C311.186 6.9749 312.2 7.95694 312.2 9.19241V21.7372ZM319.082 23.036V7.57679C319.082 7.26 319.335 6.9749 319.652 6.9749H328.11C329.82 6.9749 331.214 8.33708 331.214 10.0477V23.036C331.214 23.2894 330.992 23.5112 330.739 23.5112H329.155C328.902 23.5112 328.712 23.2894 328.712 23.036V9.9527C328.712 9.66759 328.49 9.47752 328.205 9.47752H321.584V23.036C321.584 23.2894 321.363 23.5112 321.109 23.5112H319.557C319.304 23.5112 319.082 23.2894 319.082 23.036ZM346.134 21.7372C346.134 22.7192 345.342 23.5112 344.36 23.5112H337.771C337.518 23.5112 337.296 23.2894 337.296 23.036V21.4838C337.296 21.2303 337.518 21.0086 337.771 21.0086H343.378C343.568 21.0086 343.631 20.9452 343.631 20.7868V9.66759C343.631 9.54087 343.536 9.47752 343.378 9.47752H340.559C340.305 9.47752 340.083 9.25576 340.083 9.00233V7.4184C340.083 7.16497 340.305 6.9749 340.559 6.9749H343.916C345.12 6.9749 346.134 7.95694 346.134 9.19241V21.7372ZM364.673 7.73518L360.777 16.5102L364.546 22.0857C364.705 22.3074 364.673 22.5608 364.451 22.7192L363.153 23.6379C362.931 23.7963 362.677 23.7646 362.519 23.5429L356.279 14.2927C355.043 15.1797 354.758 16.5102 354.758 18.6327V23.036C354.758 23.2894 354.568 23.5112 354.315 23.5112H352.731C352.478 23.5112 352.256 23.2894 352.256 23.036V18.6327C352.256 15.94 352.921 13.8175 354.98 12.3603L352.161 8.21037C352.003 7.98862 352.034 7.73518 352.256 7.57679L353.555 6.65811C353.776 6.49971 354.03 6.53139 354.188 6.75314L359.225 14.1976L362.076 7.48175C362.266 7.00657 362.456 6.9749 362.836 6.9749H364.166C364.641 6.9749 364.831 7.35504 364.673 7.73518Z" fill="white"/>
<path d="M182.814 9.70861L182.817 20.7645C182.817 21.2731 182.44 21.662 181.983 21.6656C181.527 21.6691 181.166 22.0756 181.163 22.579C181.163 23.0806 180.811 23.5065 180.353 23.5065H176.026C175.588 23.5065 175.232 23.1105 175.232 22.623V21.7131C175.232 21.2045 175.604 20.7926 176.059 20.7926H178.965C179.421 20.7926 179.792 20.3808 179.792 19.8722V10.4935C179.792 9.98491 179.421 9.57309 178.965 9.57309H173.599C173.142 9.57309 172.772 9.98491 172.772 10.4935V22.586C172.772 23.0946 172.403 23.5065 171.945 23.5065H170.942C170.484 23.5065 170.115 23.0946 170.115 22.586V12.6723C170.115 12.1637 170.491 11.421 170.947 11.4175C171.401 11.414 171.767 11.0039 171.767 10.4971C171.767 9.99019 171.377 9.57661 170.917 9.57661H169.89C169.434 9.57661 169.062 9.16479 169.062 8.65617V7.85892C169.062 7.3503 169.434 6.93848 169.89 6.93848H172.239C172.691 6.93848 173.077 7.33974 173.07 7.84484C173.063 8.34818 173.436 8.77936 173.897 8.77936C174.358 8.77936 174.731 8.35874 174.724 7.84484C174.715 7.3415 175.1 6.93848 175.553 6.93848L180.306 6.95432C180.763 6.95432 181.112 7.37318 181.115 7.8818C181.119 8.39042 181.485 8.78992 181.935 8.79344C182.393 8.79696 182.814 9.19999 182.814 9.70685V9.70861Z" fill="white"/>
<path d="M301.984 57.1511C302.81 57.1511 303.48 56.4813 303.48 55.6551C303.48 54.8289 302.81 54.1592 301.984 54.1592C301.158 54.1592 300.488 54.8289 300.488 55.6551C300.488 56.4813 301.158 57.1511 301.984 57.1511Z" fill="white"/>
<path d="M339.417 55.7304C339.417 55.0986 338.905 54.5864 338.274 54.5864H307.49C306.858 54.5864 306.346 55.0986 306.346 55.7304C306.346 56.3622 306.858 56.8743 307.49 56.8743H338.274C338.905 56.8743 339.417 56.3622 339.417 55.7304Z" fill="white"/>
<path d="M338.273 56.6509C338.905 56.6509 339.417 56.1388 339.417 55.5069V48.3564C339.417 47.7245 338.905 47.2124 338.273 47.2124C337.641 47.2124 337.129 47.7245 337.129 48.3564V55.5069C337.129 56.1388 337.641 56.6509 338.273 56.6509Z" fill="white"/>
<path d="M310.736 64.0882C311.13 63.5954 311.051 62.8756 310.556 62.4796L305.806 58.6817C305.314 58.2875 304.594 58.3667 304.2 58.8612C303.806 59.354 303.885 60.0738 304.379 60.4698L309.127 64.2677C309.622 64.662 310.341 64.5828 310.736 64.0882Z" fill="white"/>
<path d="M310.46 46.7005C310.011 46.2553 309.288 46.2605 308.843 46.7093L304.677 50.9191C304.232 51.3678 304.236 52.0929 304.684 52.5364C305.135 52.9817 305.858 52.9782 306.303 52.5276L310.469 48.3179C310.914 47.8691 310.909 47.144 310.46 46.7005Z" fill="white"/>
<path d="M1.91688 63.1507V49.6239L0.428093 48.927C0.143007 48.8003 0.11133 48.5152 0.206359 48.3251L0.903238 46.8362C0.998266 46.6144 1.25168 46.5194 1.50509 46.6461L2.74046 47.2163H10.8813C12.1166 47.2163 13.0986 48.1984 13.0986 49.4338V61.9786C13.0986 62.9607 12.3067 63.7526 11.3247 63.7526H2.48705C2.17029 63.7526 1.91688 63.4675 1.91688 63.1507ZM10.5962 61.0283V49.909C10.5962 49.7823 10.5328 49.7189 10.3744 49.7189H4.35595V61.25H10.3744C10.5328 61.25 10.5962 61.1866 10.5962 61.0283ZM26.825 50.7643C26.825 53.0452 26.5399 54.7875 24.1008 57.2585C23.9108 57.4486 23.6574 57.4486 23.404 57.2268L22.3903 56.2764C22.2003 56.0864 22.2319 55.8013 22.3903 55.6429C24.3542 53.5838 24.3226 52.8551 24.3226 49.9407C24.3226 49.7823 24.2275 49.7189 24.1008 49.7189H19.3494C19.096 49.7189 18.8742 49.4972 18.8742 49.2438V47.6598C18.8742 47.4064 19.096 47.2163 19.3494 47.2163H25.1462C25.9381 47.2163 26.825 47.7865 26.825 48.8003V50.7643ZM43.9707 47.7232L42.0701 57.2902C41.3732 60.7748 40.613 61.7252 37.382 63.4675L32.979 65.8434C32.7573 65.9701 32.5355 65.8751 32.4405 65.685L31.7119 64.2912C31.5852 64.0377 31.6486 63.816 31.902 63.6893L36.5901 61.2183L32.1554 47.9766C32.0287 47.5648 32.2821 47.248 32.7256 47.248H34.151C34.4678 47.248 34.6895 47.4381 34.7529 47.6915L38.5857 59.9829C39.0608 59.6027 39.3142 59.0958 39.4726 58.1455L41.3732 47.6598C41.4049 47.4064 41.5949 47.2163 41.9117 47.2163H43.5272C43.844 47.2163 44.034 47.4381 43.9707 47.7232ZM56.0393 48.2934L60.379 63.1824C60.474 63.4992 60.2839 63.7526 59.9672 63.7526H58.4784C58.1933 63.7526 57.9716 63.6259 57.8765 63.3408L56.1343 57.3218L50.0842 64.0061C49.8941 64.1961 49.6407 64.1961 49.4507 64.0061L48.2786 62.929C48.0886 62.7389 48.0886 62.4538 48.2786 62.2637L55.3741 54.6608L54.012 49.8773C53.9804 49.7506 53.917 49.7189 53.7903 49.7189H51.8897C51.6363 49.7189 51.4463 49.4972 51.4463 49.2438V47.6598C51.4463 47.4064 51.6997 47.2163 51.9531 47.2163H54.6139C55.4058 47.2163 55.8176 47.5014 56.0393 48.2934ZM76.5092 63.2774C76.5092 63.5309 76.2875 63.7526 76.0341 63.7526H74.4503C74.1969 63.7526 74.0068 63.5309 74.0068 63.2774V51.8414C74.0068 50.6693 73.0565 49.7189 71.8528 49.7189H65.0741C64.8207 49.7189 64.599 49.4972 64.599 49.2438V47.6598C64.599 47.4064 64.8207 47.2163 65.0741 47.2163H71.8528C74.4186 47.2163 76.5092 49.2754 76.5092 51.8414V63.2774ZM94.6844 63.1507V49.6239L93.1956 48.927C92.9105 48.8003 92.8788 48.5152 92.9739 48.3251L93.6708 46.8362C93.7658 46.6144 94.0192 46.5194 94.2726 46.6461L95.508 47.2163H103.649C104.884 47.2163 105.866 48.1984 105.866 49.4338V61.9786C105.866 62.9607 105.074 63.7526 104.092 63.7526H95.2546C94.9378 63.7526 94.6844 63.4675 94.6844 63.1507ZM103.364 61.0283V49.909C103.364 49.7823 103.3 49.7189 103.142 49.7189H97.1235V61.25H103.142C103.3 61.25 103.364 61.1866 103.364 61.0283ZM119.591 50.7643C119.591 53.0452 119.306 54.7875 116.867 57.2585C116.677 57.4486 116.423 57.4486 116.17 57.2268L115.156 56.2764C114.966 56.0864 114.998 55.8013 115.156 55.6429C117.12 53.5838 117.088 52.8551 117.088 49.9407C117.088 49.7823 116.993 49.7189 116.867 49.7189H112.115C111.862 49.7189 111.64 49.4972 111.64 49.2438V47.6598C111.64 47.4064 111.862 47.2163 112.115 47.2163H117.912C118.704 47.2163 119.591 47.7865 119.591 48.8003V50.7643ZM136.643 63.2774C136.643 63.5309 136.421 63.7526 136.168 63.7526H134.584C134.331 63.7526 134.141 63.5309 134.141 63.2774V51.8414C134.141 50.6693 133.19 49.7189 131.987 49.7189H125.208C124.955 49.7189 124.733 49.4972 124.733 49.2438V47.6598C124.733 47.4064 124.955 47.2163 125.208 47.2163H131.987C134.553 47.2163 136.643 49.2754 136.643 51.8414V63.2774ZM154.459 47.9766L150.373 56.0547L153.382 62.137C153.699 62.7389 153.351 63.7526 152.4 63.7526H142.422C142.169 63.7526 141.947 63.5309 141.947 63.2774V61.7252C141.947 61.4718 142.169 61.25 142.422 61.25H150.278L143.024 47.9766C142.834 47.6282 143.056 47.2163 143.499 47.2163H144.988C145.463 47.2163 145.717 47.3114 145.938 47.7549L149.011 53.457L151.735 47.7232C151.957 47.2797 152.115 47.2163 152.495 47.2163H153.952C154.428 47.2163 154.681 47.5648 154.459 47.9766ZM167.955 50.7643C167.955 53.0452 167.67 54.7875 165.231 57.2585C165.041 57.4486 164.788 57.4486 164.534 57.2268L163.52 56.2764C163.33 56.0864 163.362 55.8013 163.52 55.6429C165.484 53.5838 165.453 52.8551 165.453 49.9407C165.453 49.7823 165.358 49.7189 165.231 49.7189H160.48C160.226 49.7189 160.004 49.4972 160.004 49.2438V47.6598C160.004 47.4064 160.226 47.2163 160.48 47.2163H166.276C167.068 47.2163 167.955 47.7865 167.955 48.8003V50.7643ZM181.363 50.7643C181.363 53.0452 181.078 54.7875 178.639 57.2585C178.449 57.4486 178.195 57.4486 177.942 57.2268L176.928 56.2764C176.738 56.0864 176.77 55.8013 176.928 55.6429C178.892 53.5838 178.861 52.8551 178.861 49.9407C178.861 49.7823 178.766 49.7189 178.639 49.7189H173.887C173.634 49.7189 173.412 49.4972 173.412 49.2438V47.6598C173.412 47.4064 173.634 47.2163 173.887 47.2163H179.684C180.476 47.2163 181.363 47.7865 181.363 48.8003V50.7643Z" fill="white"/>
<path d="M223.186 63.2968C223.186 63.5502 222.965 63.772 222.711 63.772H221.159C220.874 63.772 220.684 63.5502 220.684 63.2968V50.1184C220.684 50.0551 220.684 50.0234 220.589 49.9917L216.946 49.073C216.693 49.0097 216.566 48.7563 216.629 48.5028L217.01 47.0456C217.073 46.7605 217.326 46.6338 217.611 46.6971L222.141 47.8693C222.901 48.0593 223.186 48.4711 223.186 49.2314V63.2968ZM237.8 61.998C237.8 62.98 237.008 63.772 236.026 63.772H229.437C229.184 63.772 228.962 63.5502 228.962 63.2968V61.7445C228.962 61.4911 229.184 61.2694 229.437 61.2694H235.044C235.234 61.2694 235.297 61.206 235.297 61.0476V49.9284C235.297 49.8017 235.202 49.7383 235.044 49.7383H232.225C231.971 49.7383 231.75 49.5165 231.75 49.2631V47.6792C231.75 47.4258 231.971 47.2357 232.225 47.2357H235.582C236.786 47.2357 237.8 48.2177 237.8 49.4532V61.998ZM244.682 63.2968V47.8376C244.682 47.5208 244.936 47.2357 245.252 47.2357H253.71C255.421 47.2357 256.814 48.5979 256.814 50.3085V63.2968C256.814 63.5502 256.593 63.772 256.339 63.772H254.755C254.502 63.772 254.312 63.5502 254.312 63.2968V50.2135C254.312 49.9284 254.09 49.7383 253.805 49.7383H247.185V63.2968C247.185 63.5502 246.963 63.772 246.71 63.772H245.157C244.904 63.772 244.682 63.5502 244.682 63.2968ZM271.734 61.998C271.734 62.98 270.942 63.772 269.96 63.772H263.371C263.118 63.772 262.896 63.5502 262.896 63.2968V61.7445C262.896 61.4911 263.118 61.2694 263.371 61.2694H268.978C269.168 61.2694 269.231 61.206 269.231 61.0476V49.9284C269.231 49.8017 269.136 49.7383 268.978 49.7383H266.159C265.905 49.7383 265.684 49.5165 265.684 49.2631V47.6792C265.684 47.4258 265.905 47.2357 266.159 47.2357H269.516C270.72 47.2357 271.734 48.2177 271.734 49.4532V61.998ZM290.273 47.996L286.377 56.771L290.147 62.3464C290.305 62.5682 290.273 62.8216 290.052 62.98L288.753 63.8987C288.531 64.0571 288.278 64.0254 288.119 63.8037L281.879 54.5535C280.644 55.4405 280.359 56.771 280.359 58.8935V63.2968C280.359 63.5502 280.169 63.772 279.915 63.772H278.331C278.078 63.772 277.856 63.5502 277.856 63.2968V58.8935C277.856 56.2008 278.521 54.0783 280.58 52.6211L277.761 48.4712C277.603 48.2494 277.634 47.996 277.856 47.8376L279.155 46.9189C279.377 46.7605 279.63 46.7922 279.788 47.0139L284.825 54.4584L287.676 47.7425C287.866 47.2674 288.056 47.2357 288.436 47.2357H289.766C290.242 47.2357 290.432 47.6158 290.273 47.996Z" fill="white"/>
<path d="M200.442 49.9915L200.446 61.0474C200.446 61.556 200.069 61.945 199.614 61.9485C199.156 61.952 198.797 62.3585 198.794 62.8619C198.79 63.3635 198.44 63.7894 197.982 63.7894H193.655C193.217 63.7894 192.863 63.3934 192.863 62.9059V61.996C192.863 61.4874 193.233 61.0756 193.688 61.0756H196.594C197.051 61.0756 197.421 60.6637 197.421 60.1551V50.7764C197.421 50.2678 197.051 49.856 196.594 49.856H191.228C190.771 49.856 190.401 50.2678 190.401 50.7764V62.8689C190.401 63.3775 190.031 63.7894 189.574 63.7894H188.571C188.113 63.7894 187.744 63.3775 187.744 62.8689V52.9552C187.744 52.4466 188.12 51.7039 188.578 51.7004C189.03 51.6969 189.398 51.2868 189.398 50.78C189.398 50.2731 189.007 49.8595 188.546 49.8595H187.52C187.063 49.8595 186.691 49.4477 186.691 48.9391V48.1436C186.691 47.635 187.063 47.2231 187.519 47.2231H189.87C190.32 47.2231 190.705 47.6262 190.698 48.1295C190.691 48.6328 191.064 49.064 191.526 49.064C191.987 49.064 192.36 48.6434 192.353 48.1295C192.346 47.6262 192.729 47.2231 193.182 47.2231L197.935 47.239C198.392 47.239 198.742 47.6578 198.746 48.1665C198.748 48.6751 199.114 49.0746 199.566 49.0799C200.022 49.0834 200.442 49.4864 200.442 49.9933V49.9915Z" fill="white"/>
</svg>
