<svg width="37" height="29" viewBox="0 0 37 29" fill="none" xmlns="http://www.w3.org/2000/svg">
<path d="M4.49228 2.76866V1.89639C4.49228 1.03345 3.78794 0.329102 2.92499 0.329102H1.9501C1.08716 0.329102 0.382813 1.03345 0.382813 1.89639L0.382813 27.2995C0.382813 27.9013 0.872591 28.3911 1.47432 28.3911H5.07069C5.67242 28.3911 6.16219 27.9013 6.16219 27.2995L6.16219 8.95386C6.16219 8.70664 6.36743 8.51539 6.61932 8.52006H6.63331C7.28635 8.52006 7.93006 8.28216 8.38719 7.81571C9.01224 7.17667 9.22681 6.45366 9.18016 5.79129C9.1615 5.54407 9.37141 5.33883 9.61863 5.33883H16.1024C16.2703 5.33883 16.4102 5.47877 16.4102 5.64669L16.4102 27.2949C16.4102 27.8966 16.9 28.3864 17.5017 28.3864H20.9955C21.5925 28.3864 22.0823 27.9013 22.087 27.3042L22.2083 8.94453C22.2083 8.7113 22.3995 8.52472 22.6327 8.52006C22.9966 8.52006 23.2111 8.51539 23.5097 8.51539C24.7971 8.51539 25.8606 7.04139 26.0379 5.712C26.0658 5.49743 26.2478 5.33883 26.467 5.33883H30.4459C30.6138 5.33883 30.7537 5.47877 30.7537 5.64669L30.7537 27.2949C30.7537 27.8966 31.2435 28.3864 31.8452 28.3864H35.4556C36.0573 28.3864 36.5471 27.8966 36.5471 27.2949V5.1196C36.5471 4.25199 35.8474 3.55231 34.9798 3.55231H33.1093C32.9367 3.55231 32.8015 3.41237 32.8015 3.24445V1.90106C32.8015 1.03811 32.0971 0.333766 31.2295 0.333766H25.2356C24.3679 0.333766 23.6683 1.03811 23.6683 1.90106V2.79199C23.6683 2.93192 23.589 3.0532 23.4724 3.10917C23.4304 3.12783 21.5739 3.14183 21.5226 3.14183C21.3313 3.14183 21.1774 2.9879 21.1774 2.79665V1.90106C21.1727 1.03811 20.4684 0.333766 19.6054 0.333766H8.60176C7.75281 0.333766 7.04846 1.02878 7.03447 1.87307L7.02514 2.77799C7.02514 2.94592 6.90386 3.08585 6.74526 3.11384C6.72194 3.11384 4.88877 3.1185 4.86078 3.1185C4.66954 3.1185 4.51561 2.95991 4.51561 2.77333L4.49228 2.76866Z" fill="white"/>
</svg>
