<svg width="367" height="84" viewBox="0 0 367 84" fill="none" xmlns="http://www.w3.org/2000/svg">
<path d="M230.505 46.9724H198.571C198.109 56.991 209.129 61.2994 217.069 56.5974C218.491 55.7551 220.397 53.2763 221.633 53.2763H229.318C222.634 72.3951 192.392 69.2328 190.334 48.6917C186.992 15.3495 232.19 15.6257 230.498 46.9655L230.505 46.9724ZM221.833 40.6617C220.639 26.8318 199.759 26.8663 198.571 40.6617H221.833Z" fill="#DFDED0"/>
<path d="M132.46 24.3951L132.439 29.5114C139.157 21.5919 150.066 21.3295 155.5 30.6921C160.762 20.2179 175.807 21.654 179.404 32.6875C180.454 35.912 180.467 39.3712 180.474 42.7613C180.481 50.2873 180.488 57.8202 180.502 65.3461C177.609 65.3461 174.723 65.353 171.83 65.3599C171.83 65.3599 171.809 49.369 171.809 47.9121C171.809 43.6313 172.237 38.0593 170.4 34.2134C169.379 32.0799 166.23 30.7681 163.261 31.424C160.175 32.1006 158.49 34.5932 157.958 37.6795C157.544 40.0892 157.675 42.6508 157.675 45.0122V65.3461H149.01V54.3264C149.01 51.1711 148.927 48.0157 149.058 44.8741C149.259 40.0685 149.493 33.6749 144.101 31.6933C140.497 30.3676 135.794 31.5276 133.716 34.897C132.853 36.2917 132.466 37.7762 132.466 39.4057C132.466 48.0571 132.466 56.7016 132.466 65.353H123.801V24.3951H132.46Z" fill="#DFDED0"/>
<path d="M240.222 24.3946V65.3456H248.887V46.9656C248.887 44.7147 248.694 42.3603 248.921 40.1232C249.253 36.8711 250.993 33.6536 253.983 32.1829C256.965 30.7123 261.357 30.6225 264.374 32.0034C266.514 32.9839 267.391 35.1933 267.971 37.3268C268.731 40.1163 268.807 43.0162 268.814 45.8885C268.814 45.9714 268.814 46.0542 268.814 46.1371V61.2166C268.814 61.4376 268.814 65.3456 268.814 65.3456H277.085V55.5756C277.085 50.335 277.072 45.0876 277.085 39.847C277.099 35.29 276.443 31.0368 273.302 27.8883C268.634 23.207 258.505 22.6754 252.802 25.6926C251.172 26.5557 250.068 27.695 248.88 29.1104V24.3877H240.222V24.3946Z" fill="#DFDED0"/>
<path d="M308.17 57.0044V65.3452C307.887 65.3452 304.89 65.3383 304.483 65.3452C302.301 65.3659 300.602 65.4004 297.992 64.5788C294.975 63.6259 293.912 61.7893 293.138 59.6213C292.379 57.5154 292.455 54.9193 292.455 52.7443C292.455 50.2794 292.455 47.8145 292.455 45.3426V31.7475H286.745V24.2423C290.225 24.2078 288.416 24.2423 292.455 24.2423V15.8325H301.12L301.079 24.263H308.211V31.7475H301.079C301.099 33.6187 301.175 47.4485 301.217 54.0355C301.231 55.6788 302.563 57.0044 304.213 57.0044H308.177H308.17Z" fill="#DFDED0"/>
<path d="M52.9815 65.3606V31.7008C52.9815 31.4522 52.7812 31.252 52.5327 31.252H44.6407C44.3921 31.252 44.1919 31.4522 44.1919 31.7008V33.0541C44.1919 34.3383 43.1562 35.374 41.8719 35.374H39.2136C38.9651 35.374 38.7579 35.5812 38.7579 35.8297L38.7994 65.3675H30.5207V31.7008C30.5207 31.4522 30.3205 31.252 30.0719 31.252H19.2731C19.0245 31.252 18.8243 31.4522 18.8243 31.7008V33.0541C18.8243 34.3383 17.7886 35.374 16.5043 35.374H15.3996C15.151 35.374 14.9439 35.5812 14.9439 35.8297V65.3675H6.70667V26.1495C6.70667 24.8722 7.74926 23.8296 9.02662 23.8296H11.8023C13.0865 23.8296 14.1222 24.8722 14.1222 26.1495V27.5028C14.1222 27.7514 14.3294 27.9516 14.5779 27.9516C14.8265 27.9516 15.0267 27.7514 15.0336 27.5097L15.0544 26.1081C15.0751 24.8515 16.1177 23.8296 17.3743 23.8296H36.4587C37.7361 23.8296 38.7787 24.8722 38.7787 26.1495L38.7925 28.1518C38.8063 28.3935 38.9996 28.5868 39.2413 28.5868L40.6153 28.6006C40.781 28.6006 40.8846 28.5178 40.9398 28.4695C40.995 28.4142 41.071 28.3107 41.071 28.1449V26.1495C41.071 24.8722 42.1067 23.8296 43.384 23.8296H53.665C54.9493 23.8296 55.985 24.8722 55.985 26.1495V28.138C55.985 28.3866 56.1921 28.5937 56.4407 28.5937H59.2164C60.5006 28.5937 61.5363 29.6294 61.5363 30.9137V65.3675H52.9677L52.9815 65.3606Z" fill="#DFDED0"/>
<path d="M114.129 44.7358C114.129 56.5702 104.504 66.1951 92.6691 66.1951C80.8346 66.1951 71.2164 56.5702 71.2164 44.7358C71.2164 32.9013 80.8415 23.2764 92.6691 23.2764C104.497 23.2764 114.129 32.9013 114.129 44.7358Z" fill="#DFDED0"/>
<path d="M339.082 65.9949C327.386 65.9949 317.871 56.4804 317.871 44.7841C317.871 33.0877 327.386 23.5732 339.082 23.5732C350.779 23.5732 360.293 33.0877 360.293 44.7841C360.293 56.4804 350.779 65.9949 339.082 65.9949ZM339.082 30.6642C331.294 30.6642 324.962 36.9957 324.962 44.7841C324.962 52.5724 331.294 58.9039 339.082 58.9039C346.871 58.9039 353.202 52.5724 353.202 44.7841C353.202 36.9957 346.871 30.6642 339.082 30.6642Z" fill="#DFDED0"/>
</svg>
