<svg width="21" height="36" viewBox="0 0 21 36" fill="none" xmlns="http://www.w3.org/2000/svg">
<path d="M18.717 33.4704C19.5173 32.4696 19.3547 31.0095 18.3538 30.2092L8.54857 22.3695C7.54771 21.5692 6.08763 21.7319 5.28739 22.7327V22.7327C4.48715 23.7336 4.64979 25.1937 5.65065 25.9939L15.4559 33.8337C16.4567 34.6339 17.9168 34.4713 18.717 33.4704V33.4704Z" fill="white"/>
<path d="M18.2355 2.05021C17.3247 1.14875 15.8557 1.15629 14.9542 2.06706L6.12287 10.9896C5.22142 11.9004 5.22896 13.3694 6.13972 14.2709V14.2709C7.05048 15.1724 8.51958 15.1648 9.42104 14.254L18.2524 5.33151C19.1538 4.42075 19.1463 2.95166 18.2355 2.05021V2.05021Z" fill="white"/>
<circle cx="3.19444" cy="18.4127" r="2.5287" transform="rotate(180 3.19444 18.4127)" fill="white"/>
</svg>
