<svg width="37" height="36" viewBox="0 0 37 36" fill="none" xmlns="http://www.w3.org/2000/svg">
<rect x="36.3438" y="35.8174" width="35.546" height="35.5454" rx="17.7727" transform="rotate(180 36.3438 35.8174)" fill="#DFDED0"/>
<path d="M27.7399 27.5886C28.3096 27.013 28.3049 26.0846 27.7293 25.5149L22.0903 19.9337C21.5147 19.364 20.5862 19.3687 20.0165 19.9443C19.4468 20.5199 19.4516 21.4483 20.0272 22.018L25.6662 27.5992C26.2418 28.1689 27.1702 28.1642 27.7399 27.5886Z" fill="#121010"/>
<path d="M9.39875 27.5886C8.82903 27.013 8.8338 26.0846 9.4094 25.5149L15.0484 19.9337C15.624 19.364 16.5524 19.3687 17.1221 19.9443C17.6919 20.5199 17.6871 21.4483 17.1115 22.018L11.4725 27.5992C10.8969 28.1689 9.96846 28.1642 9.39875 27.5886Z" fill="#121010"/>
<path d="M9.35185 8.50027C8.78215 9.07587 8.78691 10.0043 9.3625 10.574L15.0013 16.1554C15.5769 16.7251 16.5053 16.7204 17.075 16.1448C17.6447 15.5692 17.6399 14.6407 17.0644 14.071L11.4255 8.48962C10.85 7.9199 9.92154 7.92467 9.35185 8.50027Z" fill="#121010"/>
<path d="M27.7927 8.50027C28.3624 9.07587 28.3576 10.0043 27.782 10.574L22.1432 16.1554C21.5676 16.7251 20.6392 16.7204 20.0695 16.1448C19.4998 15.5692 19.5046 14.6407 20.0802 14.071L25.719 8.48962C26.2946 7.9199 27.223 7.92467 27.7927 8.50027Z" fill="#121010"/>
<ellipse cx="18.5504" cy="18.0459" rx="1.59813" ry="1.59808" transform="rotate(90 18.5504 18.0459)" fill="#121010"/>
</svg>
