<svg width="37" height="29" viewBox="0 0 37 29" fill="none" xmlns="http://www.w3.org/2000/svg">
<path d="M4.17925 2.45323V1.58096C4.17925 0.71802 3.47667 0.0136719 2.61589 0.0136719H1.64344C0.78266 0.0136719 0.0800781 0.71802 0.0800781 1.58096L0.0800781 26.9841C0.0800781 27.5858 0.568629 28.0756 1.16885 28.0756H4.75621C5.35642 28.0756 5.84498 27.5858 5.84498 26.9841L5.84498 8.63843C5.84498 8.39121 6.0497 8.19996 6.30096 8.20463H6.31491C6.96632 8.20463 7.60841 7.96673 8.06439 7.50028C8.68787 6.86124 8.90191 6.13823 8.85538 5.47586C8.83677 5.22864 9.04615 5.0234 9.29275 5.0234H15.7602C15.9277 5.0234 16.0673 5.16334 16.0673 5.33126L16.0673 26.9795C16.0673 27.5812 16.5559 28.071 17.1561 28.071H20.6411C21.2366 28.071 21.7252 27.5858 21.7298 26.9888L21.8508 8.6291C21.8508 8.39587 22.0416 8.20929 22.2742 8.20463C22.6372 8.20463 22.8512 8.19996 23.149 8.19996C24.4332 8.19996 25.494 6.72596 25.6708 5.39657C25.6987 5.182 25.8802 5.0234 26.0989 5.0234H30.0678C30.2353 5.0234 30.3749 5.16334 30.3749 5.33126L30.3749 26.9795C30.3749 27.5812 30.8634 28.071 31.4636 28.071H35.065C35.6652 28.071 36.1537 27.5812 36.1537 26.9795V4.80417C36.1537 3.93656 35.4558 3.23688 34.5904 3.23688H32.7246C32.5524 3.23688 32.4175 3.09694 32.4175 2.92902V1.58563C32.4175 0.722683 31.7149 0.0183361 30.8495 0.0183361H24.8705C24.0051 0.0183361 23.3072 0.722683 23.3072 1.58563V2.47656C23.3072 2.61649 23.2281 2.73777 23.1118 2.79375C23.0699 2.8124 21.218 2.8264 21.1669 2.8264C20.9761 2.8264 20.8225 2.67247 20.8225 2.48122V1.58563C20.8179 0.722683 20.1153 0.0183361 19.2545 0.0183361H8.27842C7.4316 0.0183361 6.72902 0.713355 6.71506 1.55764L6.70576 2.46256C6.70576 2.63049 6.58478 2.77042 6.42658 2.79841C6.40332 2.79841 4.57474 2.80307 4.54683 2.80307C4.35606 2.80307 4.20251 2.64448 4.20251 2.4579L4.17925 2.45323Z" fill="#DFDED0"/>
</svg>
