<svg width="60" height="44" viewBox="0 0 60 44" fill="none" xmlns="http://www.w3.org/2000/svg">
<path d="M9.75386 1.25065L9.73253 6.48875C16.6521 -1.61934 27.8884 -1.88796 33.4852 7.69755C38.9042 -3.02607 54.4003 -1.55572 58.1055 9.74048C59.1864 13.0417 59.2007 16.5832 59.2078 20.0541C59.2149 27.7593 59.222 35.4715 59.2362 43.1767C56.2565 43.1767 53.2838 43.1837 50.3041 43.1908C50.3041 43.1908 50.2827 26.8191 50.2827 25.3275C50.2827 20.9448 50.7237 15.2401 48.832 11.3027C47.7795 9.11841 44.5366 7.7753 41.4786 8.44686C38.2997 9.13961 36.5645 11.6915 36.0169 14.8513C35.5902 17.3184 35.7253 19.941 35.7253 22.3586V43.1767H26.8003V31.8946C26.8003 28.6641 26.715 25.4336 26.8501 22.2172C27.0563 17.2972 27.2981 10.7513 21.744 8.72254C18.0317 7.3653 13.1887 8.55289 11.0482 12.0025C10.1592 13.4305 9.76097 14.9503 9.76097 16.6186C9.76097 25.476 9.76097 34.3263 9.76097 43.1837H0.835938V1.25065H9.75386Z" fill="#DFDED0"/>
</svg>
