<svg width="19" height="19" viewBox="0 0 19 19" fill="none" xmlns="http://www.w3.org/2000/svg">
<rect x="0.988281" y="0.916016" width="17.4893" height="17.4889" rx="8.74447" stroke="#DFDED0"/>
<path d="M5.36526 9.6556C5.36524 9.38871 5.58159 9.17236 5.84847 9.17236L8.46304 9.17237C8.72993 9.17237 8.94629 9.38872 8.9463 9.6556C8.94631 9.92249 8.72997 10.1388 8.46309 10.1388L5.84851 10.1388C5.58163 10.1388 5.36527 9.92248 5.36526 9.6556Z" fill="#DFDED0"/>
<path d="M14.0977 9.65544C14.0977 9.92232 13.8813 10.1387 13.6144 10.1387L10.9998 10.1387C10.733 10.1387 10.5166 9.92231 10.5166 9.65543C10.5166 9.38855 10.733 9.1722 10.9999 9.1722L13.6144 9.17221C13.8813 9.17221 14.0977 9.38856 14.0977 9.65544Z" fill="#DFDED0"/>
<ellipse cx="9.7318" cy="9.65403" rx="0.526646" ry="0.526639" transform="rotate(134.533 9.7318 9.65403)" fill="#DFDED0"/>
</svg>
