<svg width="57" height="44" viewBox="0 0 57 44" fill="none" xmlns="http://www.w3.org/2000/svg">
<path d="M47.8942 43.1912V8.73C47.8942 8.47552 47.688 8.27052 47.432 8.27052H39.3034C39.0474 8.27052 38.8412 8.47552 38.8412 8.73V10.1155C38.8412 11.4303 37.7744 12.4907 36.4517 12.4907H33.7137C33.4577 12.4907 33.2444 12.7028 33.2444 12.9572L33.287 43.1982H24.7603V8.73C24.7603 8.47552 24.554 8.27052 24.298 8.27052H13.1755C12.9195 8.27052 12.7132 8.47552 12.7132 8.73V10.1155C12.7132 11.4303 11.6465 12.4907 10.3237 12.4907H9.1859C8.92988 12.4907 8.71653 12.7028 8.71653 12.9572V43.1982H0.232422V3.04656C0.232422 1.7388 1.30627 0.671387 2.62191 0.671387H5.48077C6.80352 0.671387 7.87026 1.7388 7.87026 3.04656V4.43207C7.87026 4.68656 8.0836 4.89156 8.33962 4.89156C8.59564 4.89156 8.80187 4.68656 8.80898 4.43914L8.83032 3.00414C8.85165 1.71759 9.9255 0.671387 11.2198 0.671387H30.8762C32.1919 0.671387 33.2657 1.7388 33.2657 3.04656L33.2799 5.09656C33.2941 5.34397 33.4933 5.5419 33.7422 5.5419L35.1574 5.55604C35.3281 5.55604 35.4347 5.47121 35.4916 5.42173C35.5485 5.36518 35.6267 5.25914 35.6267 5.08949V3.04656C35.6267 1.7388 36.6935 0.671387 38.0091 0.671387H48.5983C49.921 0.671387 50.9878 1.7388 50.9878 3.04656V5.08242C50.9878 5.3369 51.2011 5.54897 51.4571 5.54897H54.316C55.6387 5.54897 56.7055 6.60931 56.7055 7.92414V43.1982H47.88L47.8942 43.1912Z" fill="#DFDED0"/>
</svg>
