<svg width="39" height="44" viewBox="0 0 39 44" fill="none" xmlns="http://www.w3.org/2000/svg">
<path d="M0.746094 1.24976V43.1758H9.67111V24.3582C9.67111 22.0537 9.47198 19.6432 9.70666 17.3528C10.048 14.0234 11.8401 10.7292 14.9195 9.22354C17.9917 7.71786 22.5146 7.62596 25.6224 9.03975C27.827 10.0435 28.7302 12.3056 29.3275 14.4899C30.1098 17.3458 30.188 20.3147 30.1951 23.2554C30.1951 23.3403 30.1951 23.4251 30.1951 23.5099V38.9485C30.1951 39.1747 30.1951 43.1758 30.1951 43.1758H38.7148V33.1732C38.7148 27.8078 38.7006 22.4354 38.7148 17.0701C38.729 12.4046 38.0534 8.0501 34.8176 4.82665C30.0102 0.0338939 19.5776 -0.510415 13.7034 2.57872C12.0251 3.46234 10.8872 4.62872 9.664 6.07786V1.24269H0.746094V1.24976Z" fill="#DFDED0"/>
</svg>
