<svg width="20" height="19" viewBox="0 0 20 19" fill="none" xmlns="http://www.w3.org/2000/svg">
<rect x="1.375" y="0.916016" width="17.4893" height="17.4889" rx="8.74447" stroke="#DFDED0"/>
<path d="M10.1125 14.021C10.3794 14.021 10.5957 13.8046 10.5957 13.5378L10.5957 10.9232C10.5957 10.6563 10.3793 10.4399 10.1125 10.4399C9.84558 10.4399 9.62923 10.6563 9.62923 10.9231L9.62924 13.5377C9.62924 13.8046 9.84559 14.021 10.1125 14.021Z" fill="#DFDED0"/>
<path d="M5.75588 9.6556C5.75587 9.38871 5.97221 9.17236 6.23909 9.17236L8.85367 9.17237C9.12055 9.17237 9.33691 9.38872 9.33692 9.6556C9.33693 9.92249 9.12059 10.1388 8.85371 10.1388L6.23913 10.1388C5.97225 10.1388 5.75589 9.92248 5.75588 9.6556Z" fill="#DFDED0"/>
<path d="M10.1121 5.2871C9.84526 5.28711 9.62891 5.50346 9.62891 5.77034L9.62892 8.38492C9.62892 8.6518 9.84527 8.86815 10.1121 8.86814C10.379 8.86814 10.5954 8.65179 10.5954 8.3849L10.5954 5.77033C10.5954 5.50345 10.379 5.2871 10.1121 5.2871Z" fill="#DFDED0"/>
<path d="M14.4902 9.65544C14.4902 9.92232 14.2739 10.1387 14.007 10.1387L11.3924 10.1387C11.1255 10.1387 10.9092 9.92231 10.9092 9.65543C10.9092 9.38855 11.1256 9.1722 11.3924 9.1722L14.007 9.17221C14.2739 9.17221 14.4902 9.38856 14.4902 9.65544Z" fill="#DFDED0"/>
<ellipse cx="10.1224" cy="9.65403" rx="0.526646" ry="0.526639" transform="rotate(134.533 10.1224 9.65403)" fill="#DFDED0"/>
</svg>
