<svg width="31" height="31" viewBox="0 0 31 31" fill="none" xmlns="http://www.w3.org/2000/svg">
<g clip-path="url(#clip0_2797_5162)">
<path d="M16.2339 10.414C16.2339 10.414 16.2352 10.4174 16.2359 10.4194C16.2813 10.5205 16.3247 10.6229 16.3668 10.7267C16.3736 10.7428 16.3803 10.759 16.3871 10.7752C16.4271 10.8756 16.4651 10.9767 16.5024 11.0778C16.5091 11.0966 16.5159 11.1155 16.5227 11.1337C16.5586 11.2361 16.5939 11.3392 16.6264 11.4423L16.6407 11.4868C16.6746 11.596 16.7078 11.7052 16.7376 11.815L17.2861 13.8124L17.5085 13.0037C18.3085 10.0946 20.9851 8.0628 24.019 8.0628H29.0712C29.6732 8.0628 30.1641 7.57559 30.1641 6.9765C30.1641 6.37742 29.6739 5.88953 29.0712 5.88953H24.0197C23.0305 5.88953 22.0556 6.05126 21.1234 6.36866C20.2136 6.67865 19.3647 7.13015 18.598 7.71171C17.8319 8.29327 17.1695 8.98872 16.6285 9.77919C16.4881 9.9854 16.3559 10.1977 16.2332 10.414H16.2339Z" fill="#DFDED0"/>
<path d="M4.21223 6.50202C4.15528 5.85576 4.66783 5.2998 5.32003 5.2998H7.39664C8.38579 5.2998 9.36071 5.46019 10.2929 5.77894C11.2027 6.08892 12.0529 6.54043 12.8183 7.12199C13.5844 7.70355 14.2468 8.39833 14.7871 9.18947C15.0475 9.56886 15.278 9.97185 15.4753 10.3863V10.3876C15.6414 10.736 15.7851 11.0986 15.9051 11.4685C15.9444 11.5925 15.9817 11.7159 16.0163 11.8419L17.2875 16.4688L17.5099 17.2774C18.3099 20.1866 20.9865 22.2184 24.0204 22.2184H29.04C29.6278 22.2184 30.1343 22.6672 30.1627 23.2507C30.1932 23.8748 29.6916 24.3916 29.0712 24.3916H24.0197C23.0305 24.3916 22.0556 24.2299 21.1234 23.9125C20.2136 23.6025 19.3648 23.151 18.598 22.5694C17.8319 21.9879 17.1695 21.2924 16.6285 20.502C16.4536 20.2452 16.2902 19.9777 16.1444 19.7068C15.8678 19.194 15.6414 18.6522 15.4705 18.0915C15.4461 18.0113 15.4231 17.9311 15.4 17.8502L13.9058 12.414C13.1065 9.50485 10.4299 7.47376 7.39596 7.47376L5.33969 7.51149C4.75528 7.52228 4.2624 7.08156 4.21088 6.50269L4.21223 6.50202Z" fill="#DFDED0"/>
<path d="M2.81804 8.45352C2.33736 8.90435 2.31499 9.65775 2.76719 10.1369L5.52651 12.6141C5.97872 13.0925 6.73533 13.1155 7.216 12.6646C7.69668 12.2138 7.71905 11.4604 7.26685 10.9813L4.50753 8.50406C4.05533 8.0256 3.29872 8.00269 2.81804 8.45352Z" fill="#DFDED0"/>
<path d="M7.216 0.464015C7.69668 0.914844 7.71905 1.66825 7.26685 2.14738L4.50753 4.62458C4.05533 5.10304 3.29872 5.12595 2.81804 4.67512C2.33736 4.22429 2.31499 3.47089 2.76719 2.99176L5.52651 0.514556C5.97872 0.0360981 6.73533 0.013186 7.216 0.464015Z" fill="#DFDED0"/>
<path d="M1.46716 7.86179C0.747876 7.86179 0.164785 7.281 0.164785 6.56456C0.164785 5.84812 0.747876 5.26733 1.46716 5.26733C2.18644 5.26733 2.76953 5.84812 2.76953 6.56456C2.76953 7.281 2.18644 7.86179 1.46716 7.86179Z" fill="#DFDED0"/>
<path d="M5.3202 24.9807H7.39681C8.38664 24.9807 9.36088 24.8203 10.2938 24.5022C11.2036 24.1916 12.0531 23.7401 12.8185 23.1585C13.5853 22.5776 14.2477 21.8822 14.7873 21.0917C14.8402 21.0142 14.8924 20.936 14.9426 20.8572C14.9453 20.8531 14.948 20.8491 14.95 20.8451C15.0775 20.6355 15.1968 20.4205 15.3066 20.2008C15.3005 20.1894 15.2944 20.1766 15.2877 20.1644C15.2714 20.1314 15.2551 20.0977 15.2382 20.0647C15.2165 20.0202 15.1948 19.9757 15.1738 19.9299C15.1568 19.8962 15.1412 19.8625 15.1256 19.8282C15.1053 19.7837 15.0843 19.7379 15.0646 19.6927C15.0497 19.659 15.0348 19.6246 15.0199 19.5896C15.0002 19.5438 14.9812 19.4973 14.9622 19.4515C14.948 19.4164 14.9338 19.3827 14.9209 19.3484C14.9019 19.3005 14.8836 19.2527 14.8653 19.2048C14.8531 19.1711 14.8402 19.1388 14.8273 19.1051C14.8097 19.0539 14.7921 19.004 14.7738 18.9528C14.7636 18.9211 14.7527 18.8901 14.7419 18.8584C14.7229 18.8025 14.7053 18.7452 14.687 18.6886C14.6795 18.663 14.6707 18.6361 14.6619 18.6098C14.6368 18.5262 14.6124 18.4433 14.5894 18.3591L14.1805 16.8705L13.9066 17.8678C13.7243 18.533 13.4429 19.1523 13.0816 19.7116C11.8646 21.5991 9.73715 22.8074 7.39681 22.8074L5.34122 22.7697C5.10935 22.7656 4.8924 22.8323 4.71139 22.9503C4.43545 23.1295 4.24291 23.4287 4.2124 23.7785C4.15545 24.4247 4.668 24.9807 5.3202 24.9807Z" fill="#DFDED0"/>
<path d="M2.81804 21.8262C2.33736 21.3754 2.31499 20.622 2.76719 20.1429L5.52651 17.6657C5.97872 17.1872 6.73533 17.1643 7.216 17.6151C7.69668 18.066 7.71905 18.8194 7.26685 19.2985L4.50753 21.7757C4.05533 22.2542 3.29872 22.2771 2.81804 21.8262Z" fill="#DFDED0"/>
<path d="M7.216 29.8165C7.69668 29.3656 7.71905 28.6122 7.26685 28.1331L4.50753 25.6559C4.05533 25.1775 3.29872 25.1545 2.81804 25.6054C2.33736 26.0562 2.31499 26.8096 2.76719 27.2887L5.52651 29.7659C5.97872 30.2444 6.73533 30.2673 7.216 29.8165Z" fill="#DFDED0"/>
<path d="M1.46716 25.013C0.747876 25.013 0.164785 24.4322 0.164785 23.7158C0.164785 22.9994 0.747876 22.4186 1.46716 22.4186C2.18644 22.4186 2.76953 22.9994 2.76953 23.7158C2.76953 24.4322 2.18644 25.013 1.46716 25.013Z" fill="#DFDED0"/>
</g>
<defs>
<clipPath id="clip0_2797_5162">
<rect width="30" height="30" fill="white" transform="matrix(-1 0 0 1 30.1641 0.139893)"/>
</clipPath>
</defs>
</svg>
