<svg width="127" height="13" viewBox="0 0 127 13" fill="none" xmlns="http://www.w3.org/2000/svg">
<path d="M58.7314 0.786377C59.0193 0.786377 59.2798 0.903266 59.4688 1.09106C59.6576 1.27886 59.7754 1.5376 59.7754 1.82446C59.7754 2.23082 60.1073 2.56177 60.5186 2.56177C60.8063 2.56187 61.066 2.67873 61.2549 2.86646C61.4439 3.05428 61.5615 3.31291 61.5615 3.59985V10.7249C61.5615 11.2986 61.0935 11.7627 60.5186 11.7629H60.3682V11.7483C59.8639 11.6758 59.4746 11.2458 59.4746 10.7229V3.5979C59.4746 3.39483 59.392 3.21171 59.2568 3.07739C59.1216 2.94306 58.9367 2.8606 58.7314 2.8606H56.9902C56.407 2.8606 55.8828 2.38527 55.9053 1.78638C55.9154 1.5158 56.0305 1.26944 56.21 1.09106C56.3989 0.903266 56.6594 0.786377 56.9473 0.786377H58.7314Z" fill="#DFDED0" stroke="#DFDED0" stroke-width="0.3"/>
<path d="M118.71 4.771V11.7632H116.527V4.771H118.71ZM122.392 0.938965C123.564 0.938965 124.473 1.26654 125.085 1.94092C125.695 2.61258 125.987 3.60353 125.987 4.88135V11.7632H123.805V4.71924C123.805 4.05247 123.639 3.57951 123.335 3.27295C123.031 2.96658 122.562 2.80029 121.9 2.80029H115.564V0.938965H122.392Z" fill="#DFDED0" stroke="#DFDED0" stroke-width="0.3"/>
<path d="M68.3584 1.04858L68.3877 1.16089L70.6582 9.70483C71.2115 9.51852 71.5876 9.23611 71.8672 8.79761C72.1766 8.31222 72.3757 7.6277 72.5459 6.64819L72.5469 6.64624C72.715 5.7481 72.8014 4.48125 72.8652 1.98706L72.8857 1.19702L72.8896 1.05054H75.0264L75.0254 1.2019C75.0047 3.49754 74.7908 5.98464 74.4648 7.4187C74.1082 9.06818 73.5172 10.1959 72.4717 10.9031C71.4325 11.6058 69.9706 11.8738 67.9189 11.8738H65.0508V10.0291L65.1348 9.98706L65.1377 9.98608L65.1699 9.97046H67.9658C68.2151 9.97046 68.4344 9.96616 68.6475 9.95679L66.2158 1.23901L66.1621 1.04858H68.3584Z" fill="#DFDED0" stroke="#DFDED0" stroke-width="0.3"/>
<path d="M82.9453 1.04858C83.2334 1.04864 83.4935 1.16539 83.6826 1.35327C83.8718 1.54126 83.9892 1.80041 83.9893 2.08765C83.9893 2.49465 84.3225 2.8269 84.7344 2.8269C85.0223 2.82703 85.2826 2.9428 85.4717 3.13062C85.6608 3.31855 85.7782 3.57786 85.7783 3.86499V6.98511C85.7781 7.55926 85.3098 8.02295 84.7344 8.02319H84.584V8.00952C84.0791 7.93711 83.6895 7.5067 83.6895 6.98315V3.86401C83.6895 3.66078 83.6068 3.47705 83.4717 3.34253C83.3363 3.20801 83.1508 3.12481 82.9453 3.12476H79.6006C79.0167 3.12476 78.4921 2.64916 78.5146 2.04956L78.5234 1.94897C78.5547 1.71796 78.6622 1.50946 78.8193 1.35327C79.0085 1.16527 79.2694 1.04858 79.5576 1.04858H82.9453Z" fill="#DFDED0" stroke="#DFDED0" stroke-width="0.3"/>
<path d="M96.502 0.776123C97.6652 0.776123 98.5478 1.07151 99.1357 1.71362C99.7209 2.35292 99.9883 3.30825 99.9883 4.57104V11.7625H97.8652V4.40601C97.8652 3.75587 97.7182 3.33172 97.4375 3.06616C97.1548 2.79885 96.7042 2.66187 96.0254 2.66187H93.4609V9.24487C93.4609 10.0516 93.253 10.688 92.8193 11.1218C92.3856 11.5556 91.7506 11.7625 90.9492 11.7625H89.2656V9.83569H90.7217C90.9442 9.83564 91.0926 9.77665 91.1855 9.68433C91.2784 9.59209 91.3379 9.44498 91.3379 9.22437V2.66187H89.2656V0.776123H96.502Z" fill="#DFDED0" stroke="#DFDED0" stroke-width="0.3"/>
<path d="M107.652 0.508423C109.097 0.508498 110.213 0.941712 110.964 1.81213C111.711 2.67857 112.077 3.95471 112.077 5.60022C112.077 7.68589 111.645 9.23363 110.705 10.2594C109.762 11.288 108.336 11.7623 106.413 11.7623H103.785V9.83655H106.558C107.862 9.83652 108.711 9.55611 109.242 8.94104C109.778 8.31975 110.021 7.3218 110.021 5.80627C110.021 4.60384 109.811 3.75297 109.398 3.20471C108.993 2.66559 108.372 2.39417 107.486 2.39417C106.854 2.39425 106.363 2.57621 106.031 2.89319C105.7 3.20942 105.51 3.67683 105.51 4.28284C105.51 4.70445 105.623 4.98595 105.879 5.1969C106.147 5.41763 106.588 5.57721 107.285 5.69983H107.284L107.78 5.78186L107.929 5.80627L107.903 5.95471L107.635 7.54065L107.611 7.67737L107.474 7.66467L107.019 7.62366H107.018C105.866 7.50883 104.978 7.19858 104.377 6.66467C103.771 6.12611 103.475 5.37605 103.475 4.42639C103.475 3.23811 103.88 2.25395 104.614 1.56799C105.347 0.883043 106.394 0.508423 107.652 0.508423Z" fill="#DFDED0" stroke="#DFDED0" stroke-width="0.3"/>
<path d="M28.7939 0.960449C29.0818 0.960449 29.3423 1.07734 29.5312 1.26514C29.7201 1.45293 29.8379 1.71167 29.8379 1.99854C29.8379 2.40489 30.1698 2.73584 30.5811 2.73584C30.8688 2.73594 31.1285 2.8528 31.3174 3.04053C31.5064 3.22835 31.624 3.48699 31.624 3.77393V10.8989C31.624 11.4726 31.156 11.9368 30.5811 11.937H30.4307V11.9224C29.9264 11.8499 29.5371 11.4199 29.5371 10.897V3.77197C29.5371 3.56891 29.4545 3.38578 29.3193 3.25146C29.1841 3.11713 28.9992 3.03467 28.7939 3.03467H27.0527C26.4695 3.03467 25.9453 2.55935 25.9678 1.96045C25.9779 1.68988 26.093 1.44351 26.2725 1.26514C26.4614 1.07734 26.7219 0.960449 27.0098 0.960449H28.7939Z" fill="#DFDED0" stroke="#DFDED0" stroke-width="0.3"/>
<path d="M37.4863 0.960449L37.5312 1.02197L40.7832 5.44482C41.7188 5.17224 42.1978 4.71324 42.4648 4.22412C42.747 3.70717 42.8016 3.14745 42.876 2.67236L43.1035 1.08936L43.1221 0.960449H45.3066L45.2861 1.12842C45.2235 1.64675 45.14 2.16696 45.0352 2.646C44.7642 3.89896 44.4154 4.79822 43.8545 5.44189C43.3299 6.04378 42.6323 6.4049 41.6826 6.63818L45.4033 11.7056L45.5781 11.9448H43.0518L43.0068 11.8833L39.4746 7.08252C38.6709 7.43598 38.2632 7.92975 38.0322 8.45361C37.8471 8.87368 37.7737 9.30881 37.708 9.7251L37.6406 10.1333C37.5167 10.8313 37.4767 11.2526 37.3926 11.8169L37.374 11.9448H35.21L35.2314 11.7759C35.3353 10.9501 35.4397 10.3068 35.5654 9.74463C35.8062 8.66289 36.1393 7.83518 36.6514 7.19775C37.1292 6.60299 37.7547 6.1859 38.5801 5.87646L35.1348 1.19971L34.959 0.960449H37.4863Z" fill="#DFDED0" stroke="#DFDED0" stroke-width="0.3"/>
<path d="M5.44531 0.960449C5.73338 0.960507 5.99348 1.07726 6.18262 1.26514C6.3718 1.45313 6.48922 1.71227 6.48926 1.99951C6.48926 2.40651 6.8225 2.73877 7.23438 2.73877C7.52232 2.73889 7.7826 2.85467 7.97168 3.04248C8.1608 3.23042 8.27821 3.48972 8.27832 3.77686V6.89697C8.27814 7.47113 7.80982 7.93481 7.23438 7.93506H7.08398V7.92139C6.57909 7.84898 6.18951 7.41857 6.18945 6.89502V3.77588C6.18945 3.57265 6.10684 3.38891 5.97168 3.25439C5.83631 3.11987 5.65084 3.03668 5.44531 3.03662H2.10059C1.5167 3.03662 0.992092 2.56102 1.01465 1.96143L1.02344 1.86084C1.05472 1.62983 1.16221 1.42132 1.31934 1.26514C1.50853 1.07713 1.7694 0.960449 2.05762 0.960449H5.44531Z" fill="#DFDED0" stroke="#DFDED0" stroke-width="0.3"/>
<path d="M18.998 0.960449C20.1613 0.960449 21.0439 1.25583 21.6318 1.89795C22.217 2.53725 22.4844 3.49257 22.4844 4.75537V11.9468H20.3613V4.59033C20.3613 3.9402 20.2143 3.51605 19.9336 3.25049C19.6509 2.98318 19.2003 2.84619 18.5215 2.84619H15.957V9.4292C15.957 10.236 15.7491 10.8724 15.3154 11.3062C14.8817 11.7399 14.2467 11.9468 13.4453 11.9468H11.7617V10.02H13.2178C13.4403 10.02 13.5887 9.96097 13.6816 9.86865C13.7745 9.77642 13.834 9.62931 13.834 9.40869V2.84619H11.7617V0.960449H18.998Z" fill="#DFDED0" stroke="#DFDED0" stroke-width="0.3"/>
</svg>
