<svg width="23" height="52" viewBox="0 0 23 52" fill="none" xmlns="http://www.w3.org/2000/svg">
<path d="M22.7313 42.6361V51.1754C22.4397 51.1754 19.3533 51.1683 18.9337 51.1754C16.6865 51.1966 14.937 51.2319 12.2488 50.3907C9.14107 49.4152 8.04589 47.5349 7.24939 45.3152C6.46712 43.1592 6.54535 40.5013 6.54535 38.2745C6.54535 35.7509 6.54535 33.2273 6.54535 30.6966V16.7778H0.664062V9.09388C4.2483 9.05853 2.38508 9.09388 6.54535 9.09388V0.483887H15.4704L15.4277 9.11509H22.774V16.7778H15.4277C15.449 18.6935 15.5273 32.8527 15.57 39.5964C15.5842 41.2789 16.9567 42.6361 18.6564 42.6361H22.7384H22.7313Z" fill="#DFDED0"/>
</svg>
