<svg width="37" height="22" viewBox="0 0 37 22" fill="none" xmlns="http://www.w3.org/2000/svg">
<path d="M34.9375 2.47409C33.8826 1.65222 32.3396 1.82403 31.4913 2.85784L23.2453 12.9067C22.397 13.9405 22.5645 15.4448 23.6194 16.2667C24.6744 17.0886 26.2173 16.9168 27.0657 15.883L35.3117 5.83408C36.16 4.80028 35.9925 3.29596 34.9375 2.47409Z" fill="#F7F4E3"/>
<path d="M1.81812 2.96894C0.867936 3.90432 0.875681 5.41292 1.83542 6.3385L11.2412 15.4094C12.2009 16.335 13.7492 16.327 14.6994 15.3916C15.6496 14.4563 15.6418 12.9477 14.6821 12.0221L5.27633 2.95119C4.31659 2.02562 2.7683 2.03357 1.81812 2.96894Z" fill="#F7F4E3"/>
<ellipse cx="19.0651" cy="18.4166" rx="2.59705" ry="2.66539" transform="rotate(90 19.0651 18.4166)" fill="#F7F4E3"/>
</svg>
