<svg width="400" height="91" viewBox="0 0 400 91" fill="none" xmlns="http://www.w3.org/2000/svg">
<g clip-path="url(#clip0_1696_838)">
<path d="M22.0859 21.7998V13.1198H19.7859V11.2398H24.3059V21.7998H22.0859ZM27.96 21.3198C28.22 17.6598 28.66 15.3398 29.52 13.5198L27.74 13.0598V10.9798L30.98 11.8198C31.58 11.3198 32.32 11.0598 33.16 11.0598C35.54 11.0598 36.86 12.9398 36.86 16.2998C36.86 20.2998 35.74 21.7998 32.72 21.7998H31.86V19.8598H32.56C34.34 19.8598 34.8 19.1798 34.8 16.5198C34.8 14.2398 34.14 12.9998 32.96 12.9998C31.6 12.9998 30.88 14.4398 30.38 18.2798C30.28 19.0398 30.2 19.9398 30.1 21.7998H27.98L27.96 21.3198ZM41.6029 17.3398V13.1198H39.1429V11.2398H43.8029V17.3398H41.6029ZM46.565 21.7998V19.8598H48.745H49.145L46.945 11.2398H49.145L51.185 19.6198C52.345 19.2798 52.725 18.4198 53.025 16.4598C53.145 15.6398 53.225 14.5398 53.265 12.4798L53.305 11.2398H55.445C55.445 13.1198 55.265 15.6598 54.985 17.1398C54.385 20.5598 52.765 21.7998 48.905 21.7998H46.565ZM63.237 21.7998C63.317 21.1398 63.417 20.5198 63.537 19.9398C64.017 17.7198 64.817 16.6598 66.577 16.0798L63.057 11.2398H65.717L68.837 15.5398C70.437 14.9998 70.517 13.7598 70.677 12.7798L70.897 11.2398H73.217C73.137 11.7198 73.057 12.2598 72.937 12.7598C72.437 15.1598 71.617 16.0998 69.597 16.5598L73.397 21.7998H70.737L67.357 17.1398C66.057 17.7598 65.977 19.0198 65.797 19.9798C65.677 20.6998 65.617 21.1998 65.537 21.7998H63.237ZM81.4362 22.0798C78.4562 22.0798 76.2962 19.8398 76.2962 16.7398V11.2398H78.3762V16.4998C80.0162 16.0198 80.5762 15.2798 80.5762 13.6798V11.2398H82.6562V13.5198C82.6562 16.0798 81.5562 17.3398 78.5762 17.9798C79.0162 19.2798 80.0962 20.0998 81.5362 20.0998C83.5362 20.0998 84.8362 18.6398 84.8362 16.4398V11.2398H86.9362V16.2598C86.9362 19.6398 84.6362 22.0798 81.4362 22.0798ZM92.282 21.7998V13.1198H89.982V11.2398H94.502V21.7998H92.282ZM97.8328 21.7998V19.8598H99.4128C99.9528 19.8598 100.213 19.5998 100.213 19.0798V13.1198H97.8928V11.2398H102.413V19.0398C102.413 20.8398 101.453 21.7998 99.6728 21.7998H97.8328ZM107.662 21.7998V13.1198H105.362V11.2398H109.882V21.7998H107.662ZM119.406 24.5798C120.386 23.3998 120.866 22.5198 120.966 21.7998H119.486V18.9798H122.306V20.8798C122.306 22.3798 121.586 23.9998 120.406 25.3198L119.406 24.5798ZM129.473 14.9998C129.473 13.7598 128.873 13.1198 127.673 13.1198H123.353V11.2398H128.313C130.553 11.2398 131.693 12.5198 131.693 15.0398V21.7998H129.473V14.9998ZM134.859 21.7998V19.8598H136.699C138.919 19.8598 139.859 18.7998 139.859 16.2598C139.859 14.1398 138.979 13.1198 137.199 13.1198H134.859V11.2398H137.739C140.599 11.2398 142.059 12.8798 142.059 16.0998C142.059 19.9398 140.379 21.7998 136.899 21.7998H134.859ZM146.912 21.7998V13.1198H144.612V11.2398H149.132V21.7998H146.912ZM152.786 21.3198C153.046 17.6598 153.486 15.3398 154.346 13.5198L152.566 13.0598V10.9798L155.806 11.8198C156.406 11.3198 157.146 11.0598 157.986 11.0598C160.366 11.0598 161.686 12.9398 161.686 16.2998C161.686 20.2998 160.566 21.7998 157.546 21.7998H156.686V19.8598H157.386C159.166 19.8598 159.626 19.1798 159.626 16.5198C159.626 14.2398 158.966 12.9998 157.786 12.9998C156.426 12.9998 155.706 14.4398 155.206 18.2798C155.106 19.0398 155.026 19.9398 154.926 21.7998H152.806L152.786 21.3198ZM175.302 22.0798C172.322 22.0798 170.162 19.8398 170.162 16.7398V11.2398H172.242V16.4998C173.882 16.0198 174.442 15.2798 174.442 13.6798V11.2398H176.522V13.5198C176.522 16.0798 175.422 17.3398 172.442 17.9798C172.882 19.2798 173.962 20.0998 175.402 20.0998C177.402 20.0998 178.702 18.6398 178.702 16.4398V11.2398H180.802V16.2598C180.802 19.6398 178.502 22.0798 175.302 22.0798ZM187.275 21.7998L187.115 20.1798L183.255 22.1198V19.9798L186.775 18.2398L186.255 13.1198H183.995V11.2398H188.175L189.175 21.7998H187.275ZM197.599 14.9998C197.599 13.7598 196.999 13.1198 195.799 13.1198H191.479V11.2398H196.439C198.679 11.2398 199.819 12.5198 199.819 15.0398V21.7998H197.599V14.9998ZM203.305 21.3198C203.565 17.6598 204.005 15.3398 204.865 13.5198L203.085 13.0598V10.9798L206.325 11.8198C206.925 11.3198 207.665 11.0598 208.505 11.0598C210.885 11.0598 212.205 12.9398 212.205 16.2998C212.205 20.2998 211.085 21.7998 208.065 21.7998H207.205V19.8598H207.905C209.685 19.8598 210.145 19.1798 210.145 16.5198C210.145 14.2398 209.485 12.9998 208.305 12.9998C206.945 12.9998 206.225 14.4398 205.725 18.2798C205.625 19.0398 205.545 19.9398 205.445 21.7998H203.325L203.305 21.3198ZM225.341 21.7998V13.1198H219.681V11.2398H229.281V13.1198H227.541V21.7998H225.341ZM233.685 21.7998L237.425 13.1198H231.885V7.1798H234.045V11.2398H239.945V12.4798L235.965 21.7998H233.685ZM244.943 21.7998V13.1198H242.643V11.2398H247.163V21.7998H244.943ZM250.494 21.7998V19.8598H252.074C252.614 19.8598 252.874 19.5998 252.874 19.0798V13.1198H250.554V11.2398H255.074V19.0398C255.074 20.8398 254.114 21.7998 252.334 21.7998H250.494ZM265.415 21.7998V13.1198H263.115V11.2398H267.635V21.7998H265.415ZM270.966 21.7998V19.8598H272.546C273.086 19.8598 273.346 19.5998 273.346 19.0798V13.1198H271.026V11.2398H275.546V19.0398C275.546 20.8398 274.586 21.7998 272.806 21.7998H270.966ZM280.332 21.7998L284.072 13.1198H278.532V7.1798H280.692V11.2398H286.592V12.4798L282.612 21.7998H280.332ZM294.86 22.0798C291.88 22.0798 289.72 19.8398 289.72 16.7398V11.2398H291.8V16.4998C293.44 16.0198 294 15.2798 294 13.6798V11.2398H296.08V13.5198C296.08 16.0798 294.98 17.3398 292 17.9798C292.44 19.2798 293.52 20.0998 294.96 20.0998C296.96 20.0998 298.26 18.6398 298.26 16.4398V11.2398H300.36V16.2598C300.36 19.6398 298.06 22.0798 294.86 22.0798ZM313.361 21.7998L316.461 13.1198H309.001V11.2398H318.841V12.4798L315.541 21.7998H313.361ZM309.461 24.7398V15.1998H311.641V24.7398H309.461ZM323.898 21.7998V13.1198H321.598V11.2398H326.118V21.7998H323.898ZM329.433 21.7998V19.8598H334.573V14.8998C334.573 13.6398 334.013 13.1198 332.833 13.1198H329.433V11.2398H333.473C335.713 11.2398 336.793 12.3598 336.793 14.8798V19.8598H338.293V21.7998H329.433ZM345.005 21.7998L348.105 13.1198H340.645V11.2398H350.485V12.4798L347.185 21.7998H345.005ZM341.105 24.7398V15.1998H343.285V24.7398H341.105ZM353.25 21.7998V19.8598H358.39V14.8998C358.39 13.6398 357.83 13.1198 356.65 13.1198H353.25V11.2398H357.29C359.53 11.2398 360.61 12.3598 360.61 14.8798V19.8598H362.11V21.7998H353.25ZM370.81 21.7998L374.55 13.1198H369.01V7.1798H371.17V11.2398H377.07V12.4798L373.09 21.7998H370.81ZM379.913 21.7998V19.8598H381.753C383.973 19.8598 384.913 18.7998 384.913 16.2598C384.913 14.1398 384.033 13.1198 382.253 13.1198H379.913V11.2398H382.793C385.653 11.2398 387.113 12.8798 387.113 16.0998C387.113 19.9398 385.433 21.7998 381.953 21.7998H379.913ZM22.0179 44.8998C22.0179 43.6598 21.4779 43.1198 20.2779 43.1198H17.3979V49.2598C17.3979 50.9398 16.5379 51.7998 14.8779 51.7998H13.3779V49.8598H14.4979C14.9379 49.8598 15.1779 49.6398 15.1779 49.1998V43.1198H13.3779V41.2398H20.8979C23.1779 41.2398 24.2379 42.3798 24.2379 44.8798V51.7998H22.0179V44.8998ZM29.3558 51.7998V43.1198H27.0558V41.2398H31.5758V51.7998H29.3558ZM36.9643 47.3398V43.1198H34.5043V41.2398H39.1643V47.3398H36.9643ZM50.1886 44.9998C50.1886 43.7598 49.5886 43.1198 48.3886 43.1198H42.6086V41.2398H49.0286C51.2886 41.2398 52.4086 42.5198 52.4086 45.0398V51.7998H50.1886V44.9998ZM43.1086 51.7998V45.1998H45.3286V51.7998H43.1086ZM56.9825 51.7998L60.7225 43.1198H55.1825V37.1798H57.3425V41.2398H63.2425V42.4798L59.2625 51.7998H56.9825ZM71.7599 51.7998V41.2398H77.8399C80.0999 41.2398 81.2199 42.5198 81.2199 45.0398V51.7998H71.7599ZM73.9799 49.8598H78.9999V44.9998C78.9999 43.7598 78.3999 43.1198 77.1999 43.1198H73.9799V49.8598ZM86.2143 47.3398V43.1198H83.7543V41.2398H88.4143V47.3398H86.2143ZM91.674 51.7998V49.8598H93.514C95.734 49.8598 96.674 48.7998 96.674 46.2598C96.674 44.1398 95.794 43.1198 94.014 43.1198H91.674V41.2398H94.554C97.414 41.2398 98.874 42.8798 98.874 46.0998C98.874 49.9398 97.194 51.7998 93.714 51.7998H91.674ZM103.586 47.3398V43.1198H101.126V41.2398H105.786V47.3398H103.586ZM115.099 44.9998C115.099 43.7598 114.499 43.1198 113.299 43.1198H108.979V41.2398H113.939C116.179 41.2398 117.319 42.5198 117.319 45.0398V51.7998H115.099V44.9998ZM128.826 51.7998H120.346V49.8598H125.966L119.746 41.2398H122.326L125.206 45.2598C126.686 44.7198 126.766 43.6198 126.926 42.6998C127.006 42.2198 127.086 41.6598 127.146 41.2398H129.466C129.386 41.6998 129.306 42.2198 129.186 42.6998C128.666 44.9798 127.886 45.8998 125.986 46.3598L128.826 50.3198V51.7998ZM137.012 51.7998C137.092 51.1398 137.192 50.5198 137.312 49.9398C137.792 47.7198 138.592 46.6598 140.352 46.0798L136.832 41.2398H139.492L142.612 45.5398C144.212 44.9998 144.292 43.7598 144.452 42.7798L144.672 41.2398H146.992C146.912 41.7198 146.832 42.2598 146.712 42.7598C146.212 45.1598 145.392 46.0998 143.372 46.5598L147.172 51.7998H144.512L141.132 47.1398C139.832 47.7598 139.752 49.0198 139.572 49.9798C139.452 50.6998 139.392 51.1998 139.312 51.7998H137.012ZM151.479 51.7998L155.219 43.1198H149.679V37.1798H151.839V41.2398H157.739V42.4798L153.759 51.7998H151.479ZM166.256 51.7998V41.2398H172.336C174.596 41.2398 175.716 42.5198 175.716 45.0398V51.7998H166.256ZM168.476 49.8598H173.496V44.9998C173.496 43.7598 172.896 43.1198 171.696 43.1198H168.476V49.8598ZM187.53 44.8998C187.53 43.6598 186.99 43.1198 185.79 43.1198H182.91V49.2598C182.91 50.9398 182.05 51.7998 180.39 51.7998H178.89V49.8598H180.01C180.45 49.8598 180.69 49.6398 180.69 49.1998V43.1198H178.89V41.2398H186.41C188.69 41.2398 189.75 42.3798 189.75 44.8798V51.7998H187.53V44.8998ZM192.648 51.7998C192.728 51.1398 192.828 50.5198 192.948 49.9398C193.428 47.7198 194.228 46.6598 195.988 46.0798L192.468 41.2398H195.128L198.248 45.5398C199.848 44.9998 199.928 43.7598 200.088 42.7798L200.308 41.2398H202.628C202.548 41.7198 202.468 42.2598 202.348 42.7598C201.848 45.1598 201.028 46.0998 199.008 46.5598L202.808 51.7998H200.148L196.768 47.1398C195.468 47.7598 195.388 49.0198 195.208 49.9798C195.088 50.6998 195.028 51.1998 194.948 51.7998H192.648ZM212.836 52.1598C211.996 52.1598 211.356 51.4798 211.356 50.6598C211.356 49.8398 211.996 49.1598 212.836 49.1598C213.676 49.1598 214.356 49.8398 214.356 50.6598C214.356 51.4798 213.676 52.1598 212.836 52.1598ZM218.358 51.7998V41.2398H224.438C226.698 41.2398 227.818 42.5198 227.818 45.0398V51.7998H218.358ZM220.578 49.8598H225.598V44.9998C225.598 43.7598 224.998 43.1198 223.798 43.1198H220.578V49.8598ZM232.812 47.3398V43.1198H230.352V41.2398H235.012V47.3398H232.812ZM244.325 44.9998C244.325 43.7598 243.725 43.1198 242.525 43.1198H238.205V41.2398H243.165C245.405 41.2398 246.545 42.5198 246.545 45.0398V51.7998H244.325V44.9998ZM251.531 47.3398V43.1198H249.071V41.2398H253.731V47.3398H251.531ZM256.991 51.7998V49.8598H258.831C261.051 49.8598 261.991 48.7998 261.991 46.2598C261.991 44.1398 261.111 43.1198 259.331 43.1198H256.991V41.2398H259.871C262.731 41.2398 264.191 42.8798 264.191 46.0998C264.191 49.9398 262.511 51.7998 259.031 51.7998H256.991ZM267.306 51.3198C267.566 47.6598 268.006 45.3398 268.866 43.5198L267.086 43.0598V40.9798L270.326 41.8198C270.926 41.3198 271.666 41.0598 272.506 41.0598C274.886 41.0598 276.206 42.9398 276.206 46.2998C276.206 50.2998 275.086 51.7998 272.066 51.7998H271.206V49.8598H271.906C273.686 49.8598 274.146 49.1798 274.146 46.5198C274.146 44.2398 273.486 42.9998 272.306 42.9998C270.946 42.9998 270.226 44.4398 269.726 48.2798C269.626 49.0398 269.546 49.9398 269.446 51.7998H267.326L267.306 51.3198ZM286.142 51.7998V43.1198H283.842V41.2398H288.362V51.7998H286.142ZM291.693 51.7998V49.8598H293.273C293.813 49.8598 294.073 49.5998 294.073 49.0798V43.1198H291.753V41.2398H296.273V49.0398C296.273 50.8398 295.313 51.7998 293.533 51.7998H291.693ZM301.059 51.7998L304.799 43.1198H299.259V37.1798H301.419V41.2398H307.319V42.4798L303.339 51.7998H301.059ZM312.317 51.7998V43.1198H310.017V41.2398H314.537V51.7998H312.317ZM317.968 51.7998V49.8598H319.808C322.028 49.8598 322.968 48.7998 322.968 46.2598C322.968 44.1398 322.088 43.1198 320.308 43.1198H317.968V41.2398H320.848C323.708 41.2398 325.168 42.8798 325.168 46.0998C325.168 49.9398 323.488 51.7998 320.008 51.7998H317.968ZM333.74 52.0798C330.76 52.0798 328.6 49.8398 328.6 46.7398V41.2398H330.68V46.4998C332.32 46.0198 332.88 45.2798 332.88 43.6798V41.2398H334.96V43.5198C334.96 46.0798 333.86 47.3398 330.88 47.9798C331.32 49.2798 332.4 50.0998 333.84 50.0998C335.84 50.0998 337.14 48.6398 337.14 46.4398V41.2398H339.24V46.2598C339.24 49.6398 336.94 52.0798 333.74 52.0798ZM353.361 44.9998C353.361 43.7598 352.761 43.1198 351.561 43.1198H347.241V41.2398H352.201C354.441 41.2398 355.581 42.5198 355.581 45.0398V51.7998H353.361V44.9998ZM360.707 51.7998V43.1198H358.407V41.2398H362.927V51.7998H360.707ZM366.463 51.7998V49.8598H369.183C371.643 49.8598 372.503 48.9198 372.503 46.1398C372.503 43.8798 371.783 42.8398 370.203 42.8398C369.043 42.8398 368.343 43.4998 368.343 44.5798C368.343 45.3598 368.783 45.7198 369.983 45.9798L370.403 46.0798L370.043 47.9198L369.663 47.8598C367.383 47.5398 366.263 46.5798 366.263 44.7398C366.263 42.4398 367.843 40.9598 370.343 40.9598C373.203 40.9598 374.643 42.6398 374.643 45.8798C374.643 49.9598 372.923 51.7998 369.103 51.7998H366.463ZM379.306 47.3398V43.1198H376.846V41.2398H381.506V47.3398H379.306ZM389.286 52.0598C386.746 52.0598 385.286 50.3798 385.286 47.2998V41.2398H389.646C392.306 41.2398 393.766 42.9198 393.766 45.9998C393.766 49.8798 392.146 52.0598 389.286 52.0598ZM387.446 47.1598C387.446 49.1198 388.126 50.1398 389.386 50.1398C390.826 50.1398 391.606 48.8398 391.606 46.3798C391.606 44.1798 390.866 43.1198 389.346 43.1198H387.446V47.1598ZM18.3696 82.1598C17.5296 82.1598 16.8896 81.4798 16.8896 80.6598C16.8896 79.8398 17.5296 79.1598 18.3696 79.1598C19.2096 79.1598 19.8896 79.8398 19.8896 80.6598C19.8896 81.4798 19.2096 82.1598 18.3696 82.1598ZM23.3771 81.7998V79.8598H25.5571H25.9571L23.7571 71.2398H25.9571L27.9971 79.6198C29.1571 79.2798 29.5371 78.4198 29.8371 76.4598C29.9571 75.6398 30.0371 74.5398 30.0771 72.4798L30.1171 71.2398H32.2571C32.2571 73.1198 32.0771 75.6598 31.7971 77.1398C31.1971 80.5598 29.5771 81.7998 25.7171 81.7998H23.3771ZM38.5383 81.7998L38.3783 80.1798L34.5183 82.1198V79.9798L38.0383 78.2398L37.5183 73.1198H35.2583V71.2398H39.4383L40.4383 81.7998H38.5383ZM48.8625 74.9998C48.8625 73.7598 48.2625 73.1198 47.0625 73.1198H42.7425V71.2398H47.7025C49.9425 71.2398 51.0825 72.5198 51.0825 75.0398V81.7998H48.8625V74.9998ZM62.2089 74.9998C62.2089 73.7598 61.6089 73.1198 60.4089 73.1198H54.6289V71.2398H61.0489C63.3089 71.2398 64.4289 72.5198 64.4289 75.0398V81.7998H62.2089V74.9998ZM55.1289 81.7998V75.1998H57.3489V81.7998H55.1289ZM81.4913 74.8998C81.4913 73.6598 80.9513 73.1198 79.7513 73.1198H76.8713V79.2598C76.8713 80.9398 76.0113 81.7998 74.3513 81.7998H72.8513V79.8598H73.9713C74.4113 79.8598 74.6513 79.6398 74.6513 79.1998V73.1198H72.8513V71.2398H80.3713C82.6513 71.2398 83.7113 72.3798 83.7113 74.8798V81.7998H81.4913V74.8998ZM86.6092 81.7998C86.6892 81.1398 86.7892 80.5198 86.9092 79.9398C87.3892 77.7198 88.1892 76.6598 89.9492 76.0798L86.4292 71.2398H89.0892L92.2092 75.5398C93.8092 74.9998 93.8892 73.7598 94.0492 72.7798L94.2692 71.2398H96.5892C96.5092 71.7198 96.4292 72.2598 96.3092 72.7598C95.8092 75.1598 94.9892 76.0998 92.9692 76.5598L96.7692 81.7998H94.1092L90.7292 77.1398C89.4292 77.7598 89.3492 79.0198 89.1692 79.9798C89.0492 80.6998 88.9892 81.1998 88.9092 81.7998H86.6092ZM113.057 74.8998C113.057 73.6598 112.517 73.1198 111.317 73.1198H108.437V79.2598C108.437 80.9398 107.577 81.7998 105.917 81.7998H104.417V79.8598H105.537C105.977 79.8598 106.217 79.6398 106.217 79.1998V73.1198H104.417V71.2398H111.937C114.217 71.2398 115.277 72.3798 115.277 74.8798V81.7998H113.057V74.8998ZM120.395 81.7998V73.1198H118.095V71.2398H122.615V81.7998H120.395ZM127.909 81.7998V73.1198H125.609V71.2398H130.129V81.7998H127.909ZM134.204 81.7998V71.2398H140.264C142.524 71.2398 143.644 72.5198 143.644 75.0398V81.7998H141.424V74.9998C141.424 73.7598 140.824 73.1198 139.624 73.1198H136.404V81.7998H134.204ZM148.217 81.7998L151.957 73.1198H146.417V67.1798H148.577V71.2398H154.477V72.4798L150.497 81.7998H148.217ZM162.994 81.7998V71.2398H169.074C171.334 71.2398 172.454 72.5198 172.454 75.0398V81.7998H162.994ZM165.214 79.8598H170.234V74.9998C170.234 73.7598 169.634 73.1198 168.434 73.1198H165.214V79.8598ZM177.449 77.3398V73.1198H174.989V71.2398H179.649V77.3398H177.449ZM183.454 81.7998V71.2398H189.514C191.774 71.2398 192.894 72.5198 192.894 75.0398V81.7998H190.674V74.9998C190.674 73.7598 190.074 73.1198 188.874 73.1198H185.654V81.7998H183.454ZM198.027 81.7998V73.1198H195.727V71.2398H200.247V81.7998H198.027ZM212.162 74.8998C212.162 73.6598 211.622 73.1198 210.422 73.1198H207.542V79.2598C207.542 80.9398 206.682 81.7998 205.022 81.7998H203.522V79.8598H204.642C205.082 79.8598 205.322 79.6398 205.322 79.1998V73.1198H203.522V71.2398H211.042C213.322 71.2398 214.382 72.3798 214.382 74.8798V81.7998H212.162V74.8998ZM217.8 81.7998V79.8598H220.52C222.98 79.8598 223.84 78.9198 223.84 76.1398C223.84 73.8798 223.12 72.8398 221.54 72.8398C220.38 72.8398 219.68 73.4998 219.68 74.5798C219.68 75.3598 220.12 75.7198 221.32 75.9798L221.74 76.0798L221.38 77.9198L221 77.8598C218.72 77.5398 217.6 76.5798 217.6 74.7398C217.6 72.4398 219.18 70.9598 221.68 70.9598C224.54 70.9598 225.98 72.6398 225.98 75.8798C225.98 79.9598 224.26 81.7998 220.44 81.7998H217.8ZM242.615 74.8998C242.615 73.6598 242.075 73.1198 240.875 73.1198H237.995V79.2598C237.995 80.9398 237.135 81.7998 235.475 81.7998H233.975V79.8598H235.095C235.535 79.8598 235.775 79.6398 235.775 79.1998V73.1198H233.975V71.2398H241.495C243.775 71.2398 244.835 72.3798 244.835 74.8798V81.7998H242.615V74.8998ZM249.953 81.7998V73.1198H247.653V71.2398H252.173V81.7998H249.953ZM257.561 77.3398V73.1198H255.101V71.2398H259.761V77.3398H257.561ZM270.786 74.9998C270.786 73.7598 270.186 73.1198 268.986 73.1198H263.206V71.2398H269.626C271.886 71.2398 273.006 72.5198 273.006 75.0398V81.7998H270.786V74.9998ZM263.706 81.7998V75.1998H265.926V81.7998H263.706ZM277.579 81.7998L281.319 73.1198H275.779V67.1798H277.939V71.2398H283.839V72.4798L279.859 81.7998H277.579ZM296.317 81.7998L299.417 73.1198H291.957V71.2398H301.797V72.4798L298.497 81.7998H296.317ZM292.417 84.7398V75.1998H294.597V84.7398H292.417ZM310.771 74.9998C310.771 73.7598 310.171 73.1198 308.971 73.1198H304.651V71.2398H309.611C311.851 71.2398 312.991 72.5198 312.991 75.0398V81.7998H310.771V74.9998ZM322.406 84.5798C323.386 83.3998 323.866 82.5198 323.966 81.7998H322.486V78.9798H325.306V80.8798C325.306 82.3798 324.586 83.9998 323.406 85.3198L322.406 84.5798ZM329.405 81.7998V71.2398H335.485C337.745 71.2398 338.865 72.5198 338.865 75.0398V81.7998H329.405ZM331.625 79.8598H336.645V74.9998C336.645 73.7598 336.045 73.1198 334.845 73.1198H331.625V79.8598ZM343.86 77.3398V73.1198H341.4V71.2398H346.06V77.3398H343.86ZM349.865 81.7998V71.2398H355.925C358.185 71.2398 359.305 72.5198 359.305 75.0398V81.7998H357.085V74.9998C357.085 73.7598 356.485 73.1198 355.285 73.1198H352.065V81.7998H349.865ZM362.798 81.3198C363.058 77.6598 363.498 75.3398 364.358 73.5198L362.578 73.0598V70.9798L365.818 71.8198C366.418 71.3198 367.158 71.0598 367.998 71.0598C370.378 71.0598 371.698 72.9398 371.698 76.2998C371.698 80.2998 370.578 81.7998 367.558 81.7998H366.698V79.8598H367.398C369.178 79.8598 369.638 79.1798 369.638 76.5198C369.638 74.2398 368.978 72.9998 367.798 72.9998C366.438 72.9998 365.718 74.4398 365.218 78.2798C365.118 79.0398 365.038 79.9398 364.938 81.7998H362.818L362.798 81.3198ZM376.483 81.7998V73.1198H374.183V71.2398H378.703V81.7998H376.483ZM382.357 81.3198C382.617 77.6598 383.057 75.3398 383.917 73.5198L382.137 73.0598V70.9798L385.377 71.8198C385.977 71.3198 386.717 71.0598 387.557 71.0598C389.937 71.0598 391.257 72.9398 391.257 76.2998C391.257 80.2998 390.137 81.7998 387.117 81.7998H386.257V79.8598H386.957C388.737 79.8598 389.197 79.1798 389.197 76.5198C389.197 74.2398 388.537 72.9998 387.357 72.9998C385.997 72.9998 385.277 74.4398 384.777 78.2798C384.677 79.0398 384.597 79.9398 384.497 81.7998H382.377L382.357 81.3198Z" fill="white"/>
</g>
<defs>
<clipPath id="clip0_1696_838">
<rect width="399" height="90" fill="white" transform="translate(0.656982)"/>
</clipPath>
</defs>
</svg>
