<svg width="400" height="91" viewBox="0 0 400 91" fill="none" xmlns="http://www.w3.org/2000/svg">
<path d="M26.2914 21.7998V19.8598H28.4714H28.8714L26.6714 11.2398H28.8714L30.9114 19.6198C32.0714 19.2798 32.4514 18.4198 32.7514 16.4598C32.8714 15.6398 32.9514 14.5398 32.9914 12.4798L33.0314 11.2398H35.1714C35.1714 13.1198 34.9914 15.6598 34.7114 17.1398C34.1114 20.5598 32.4914 21.7998 28.6314 21.7998H26.2914ZM42.7489 22.0598C40.2089 22.0598 38.7489 20.3798 38.7489 17.2998V11.2398H43.1089C45.7689 11.2398 47.2289 12.9198 47.2289 15.9998C47.2289 19.8798 45.6089 22.0598 42.7489 22.0598ZM40.9089 17.1598C40.9089 19.1198 41.5889 20.1398 42.8489 20.1398C44.2889 20.1398 45.0689 18.8398 45.0689 16.3798C45.0689 14.1798 44.3289 13.1198 42.8089 13.1198H40.9089V17.1598ZM50.477 21.3198C50.737 17.6598 51.177 15.3398 52.037 13.5198L50.257 13.0598V10.9798L53.497 11.8198C54.097 11.3198 54.837 11.0598 55.677 11.0598C58.057 11.0598 59.377 12.9398 59.377 16.2998C59.377 20.2998 58.257 21.7998 55.237 21.7998H54.377V19.8598H55.077C56.857 19.8598 57.317 19.1798 57.317 16.5198C57.317 14.2398 56.657 12.9998 55.477 12.9998C54.117 12.9998 53.397 14.4398 52.897 18.2798C52.797 19.0398 52.717 19.9398 52.617 21.7998H50.497L50.477 21.3198ZM70.0646 14.9998C70.0646 13.7598 69.4646 13.1198 68.2646 13.1198H62.4846V11.2398H68.9046C71.1646 11.2398 72.2846 12.5198 72.2846 15.0398V21.7998H70.0646V14.9998ZM62.9846 21.7998V15.1998H65.2046V21.7998H62.9846ZM83.087 22.1598C82.247 22.1598 81.607 21.4798 81.607 20.6598C81.607 19.8398 82.247 19.1598 83.087 19.1598C83.927 19.1598 84.607 19.8398 84.607 20.6598C84.607 21.4798 83.927 22.1598 83.087 22.1598ZM88.6085 21.7998V11.2398H94.6885C96.9485 11.2398 98.0685 12.5198 98.0685 15.0398V21.7998H88.6085ZM90.8285 19.8598H95.8485V14.9998C95.8485 13.7598 95.2485 13.1198 94.0485 13.1198H90.8285V19.8598ZM101.243 21.7998V19.8598H103.083C105.303 19.8598 106.243 18.7998 106.243 16.2598C106.243 14.1398 105.363 13.1198 103.583 13.1198H101.243V11.2398H104.123C106.983 11.2398 108.443 12.8798 108.443 16.0998C108.443 19.9398 106.763 21.7998 103.283 21.7998H101.243ZM111.557 21.3198C111.817 17.6598 112.257 15.3398 113.117 13.5198L111.337 13.0598V10.9798L114.577 11.8198C115.177 11.3198 115.917 11.0598 116.757 11.0598C119.137 11.0598 120.457 12.9398 120.457 16.2998C120.457 20.2998 119.337 21.7998 116.317 21.7998H115.457V19.8598H116.157C117.937 19.8598 118.397 19.1798 118.397 16.5198C118.397 14.2398 117.737 12.9998 116.557 12.9998C115.197 12.9998 114.477 14.4398 113.977 18.2798C113.877 19.0398 113.797 19.9398 113.697 21.7998H111.577L111.557 21.3198ZM131.525 21.7998H123.045V19.8598H128.665L122.445 11.2398H125.025L127.905 15.2598C129.385 14.7198 129.465 13.6198 129.625 12.6998C129.705 12.2198 129.785 11.6598 129.845 11.2398H132.165C132.085 11.6998 132.005 12.2198 131.885 12.6998C131.365 14.9798 130.585 15.8998 128.685 16.3598L131.525 20.3198V21.7998ZM134.518 21.7998V19.8598H136.698H137.098L134.898 11.2398H137.098L139.138 19.6198C140.298 19.2798 140.678 18.4198 140.978 16.4598C141.098 15.6398 141.178 14.5398 141.218 12.4798L141.258 11.2398H143.398C143.398 13.1198 143.218 15.6598 142.938 17.1398C142.338 20.5598 140.718 21.7998 136.858 21.7998H134.518ZM148.109 21.7998L151.849 13.1198H146.309V7.1798H148.469V11.2398H154.369V12.4798L150.389 21.7998H148.109ZM159.367 21.7998V13.1198H157.067V11.2398H161.587V21.7998H159.367ZM171.111 24.5798C172.091 23.3998 172.571 22.5198 172.671 21.7998H171.191V18.9798H174.011V20.8798C174.011 22.3798 173.291 23.9998 172.111 25.3198L171.111 24.5798ZM178.865 24.7398V13.1198H176.565V11.2398H181.065V24.7398H178.865ZM186.314 17.3398V13.1198H183.854V11.2398H188.514V17.3398H186.314ZM193.653 17.3398V13.1198H191.193V11.2398H195.853V17.3398H193.653ZM200.63 21.7998L204.37 13.1198H198.83V7.1798H200.99V11.2398H206.89V12.4798L202.91 21.7998H200.63ZM220.487 14.9998C220.487 13.7598 219.887 13.1198 218.687 13.1198H214.367V11.2398H219.327C221.567 11.2398 222.707 12.5198 222.707 15.0398V21.7998H220.487V14.9998ZM225.913 21.7998V19.8598H231.053V14.8998C231.053 13.6398 230.493 13.1198 229.313 13.1198H225.913V11.2398H229.953C232.193 11.2398 233.273 12.3598 233.273 14.8798V19.8598H234.773V21.7998H225.913ZM237.469 21.7998V11.2398H243.529C245.789 11.2398 246.909 12.5198 246.909 15.0398V21.7998H244.689V14.9998C244.689 13.7598 244.089 13.1198 242.889 13.1198H239.669V21.7998H237.469ZM258.721 14.8998C258.721 13.6598 258.181 13.1198 256.981 13.1198H254.101V19.2598C254.101 20.9398 253.241 21.7998 251.581 21.7998H250.081V19.8598H251.201C251.641 19.8598 251.881 19.6398 251.881 19.1998V13.1198H250.081V11.2398H257.601C259.881 11.2398 260.941 12.3798 260.941 14.8798V21.7998H258.721V14.8998ZM272.059 14.9998C272.059 13.7598 271.459 13.1198 270.259 13.1198H264.479V11.2398H270.899C273.159 11.2398 274.279 12.5198 274.279 15.0398V21.7998H272.059V14.9998ZM264.979 21.7998V15.1998H267.199V21.7998H264.979ZM278.853 21.7998L282.593 13.1198H277.053V7.1798H279.213V11.2398H285.113V12.4798L281.133 21.7998H278.853ZM300.89 14.9998C300.89 13.7598 300.29 13.1198 299.09 13.1198H293.31V11.2398H299.73C301.99 11.2398 303.11 12.5198 303.11 15.0398V21.7998H300.89V14.9998ZM293.81 21.7998V15.1998H296.03V21.7998H293.81ZM306.144 21.7998V19.8598H307.724C308.264 19.8598 308.524 19.5998 308.524 19.0798V13.1198H306.204V11.2398H310.724V19.0398C310.724 20.8398 309.764 21.7998 307.984 21.7998H306.144ZM314.236 21.3198C314.496 17.6598 314.936 15.3398 315.796 13.5198L314.016 13.0598V10.9798L317.256 11.8198C317.856 11.3198 318.596 11.0598 319.436 11.0598C321.816 11.0598 323.136 12.9398 323.136 16.2998C323.136 20.2998 322.016 21.7998 318.996 21.7998H318.136V19.8598H318.836C320.616 19.8598 321.076 19.1798 321.076 16.5198C321.076 14.2398 320.416 12.9998 319.236 12.9998C317.876 12.9998 317.156 14.4398 316.656 18.2798C316.556 19.0398 316.476 19.9398 316.376 21.7998H314.256L314.236 21.3198ZM327.737 21.7998C326.977 19.7798 326.597 17.9398 326.597 16.4998C326.597 15.0398 327.017 13.8798 327.837 13.1198H325.817V11.2398H331.137V13.1198H330.297C329.077 13.1198 328.477 13.8798 328.477 15.3798C328.477 16.8398 329.057 19.0598 330.157 21.7998H327.737ZM341.494 14.9998C341.494 13.7598 340.894 13.1198 339.694 13.1198H333.914V11.2398H340.334C342.594 11.2398 343.714 12.5198 343.714 15.0398V21.7998H341.494V14.9998ZM334.414 21.7998V15.1998H336.634V21.7998H334.414ZM354.096 21.7998V13.1198H351.796V11.2398H356.316V21.7998H354.096ZM361.426 21.7998C360.666 19.7798 360.286 17.9398 360.286 16.4998C360.286 15.0398 360.706 13.8798 361.526 13.1198H359.506V11.2398H364.826V13.1198H363.986C362.766 13.1198 362.166 13.8798 362.166 15.3798C362.166 16.8398 362.746 19.0598 363.846 21.7998H361.426ZM40.1201 51.7998V43.1198H34.4601V41.2398H44.0601V43.1198H42.3201V51.7998H40.1201ZM47.239 51.7998V41.2398H53.299C55.559 41.2398 56.679 42.5198 56.679 45.0398V51.7998H54.459V44.9998C54.459 43.7598 53.859 43.1198 52.659 43.1198H49.439V51.7998H47.239ZM59.5915 51.7998C59.6715 51.1398 59.7715 50.5198 59.8915 49.9398C60.3715 47.7198 61.1715 46.6598 62.9315 46.0798L59.4115 41.2398H62.0715L65.1915 45.5398C66.7915 44.9998 66.8715 43.7598 67.0315 42.7798L67.2515 41.2398H69.5715C69.4915 41.7198 69.4115 42.2598 69.2915 42.7598C68.7915 45.1598 67.9715 46.0998 65.9515 46.5598L69.7515 51.7998H67.0915L63.7115 47.1398C62.4115 47.7598 62.3315 49.0198 62.1515 49.9798C62.0315 50.6998 61.9715 51.1998 61.8915 51.7998H59.5915ZM76.9992 51.7998V49.8598H79.1792H79.5792L77.3792 41.2398H79.5792L81.6192 49.6198C82.7792 49.2798 83.1592 48.4198 83.4592 46.4598C83.5792 45.6398 83.6592 44.5398 83.6992 42.4798L83.7392 41.2398H85.8792C85.8792 43.1198 85.6992 45.6598 85.4192 47.1398C84.8192 50.5598 83.1992 51.7998 79.3392 51.7998H76.9992ZM92.1604 51.7998L92.0004 50.1798L88.1404 52.1198V49.9798L91.6604 48.2398L91.1404 43.1198H88.8804V41.2398H93.0604L94.0604 51.7998H92.1604ZM102.485 44.9998C102.485 43.7598 101.885 43.1198 100.685 43.1198H96.3646V41.2398H101.325C103.565 41.2398 104.705 42.5198 104.705 45.0398V51.7998H102.485V44.9998ZM107.911 51.7998V49.8598H113.051V44.8998C113.051 43.6398 112.491 43.1198 111.311 43.1198H107.911V41.2398H111.951C114.191 41.2398 115.271 42.3598 115.271 44.8798V49.8598H116.771V51.7998H107.911ZM120.685 51.7998V43.1198H118.385V41.2398H122.905V51.7998H120.685ZM132.429 54.5798C133.409 53.3998 133.889 52.5198 133.989 51.7998H132.509V48.9798H135.329V50.8798C135.329 52.3798 134.609 53.9998 133.429 55.3198L132.429 54.5798ZM140.183 54.7398V43.1198H137.883V41.2398H142.383V54.7398H140.183ZM147.675 51.7998V43.1198H145.375V41.2398H149.895V51.7998H147.675ZM159.302 44.9998C159.302 43.7598 158.702 43.1198 157.502 43.1198H153.182V41.2398H158.142C160.382 41.2398 161.522 42.5198 161.522 45.0398V51.7998H159.302V44.9998ZM164.688 51.7998V49.8598H166.528C168.748 49.8598 169.688 48.7998 169.688 46.2598C169.688 44.1398 168.808 43.1198 167.028 43.1198H164.688V41.2398H167.568C170.428 41.2398 171.888 42.8798 171.888 46.0998C171.888 49.9398 170.208 51.7998 166.728 51.7998H164.688ZM176.6 47.3398V43.1198H174.14V41.2398H178.8V47.3398H176.6ZM183.778 51.7998C183.018 49.7798 182.638 47.9398 182.638 46.4998C182.638 45.0398 183.058 43.8798 183.878 43.1198H181.858V41.2398H187.178V43.1198H186.338C185.118 43.1198 184.518 43.8798 184.518 45.3798C184.518 46.8398 185.098 49.0598 186.198 51.7998H183.778ZM189.712 51.7998V49.8598H194.852V44.8998C194.852 43.6398 194.292 43.1198 193.112 43.1198H189.712V41.2398H193.752C195.992 41.2398 197.072 42.3598 197.072 44.8798V49.8598H198.572V51.7998H189.712ZM206.872 54.5798C207.852 53.3998 208.332 52.5198 208.432 51.7998H206.952V48.9798H209.772V50.8798C209.772 52.3798 209.052 53.9998 207.872 55.3198L206.872 54.5798ZM218.303 52.0798C215.323 52.0798 213.163 49.8398 213.163 46.7398V41.2398H215.243V46.4998C216.883 46.0198 217.443 45.2798 217.443 43.6798V41.2398H219.523V43.5198C219.523 46.0798 218.423 47.3398 215.443 47.9798C215.883 49.2798 216.963 50.0998 218.403 50.0998C220.403 50.0998 221.703 48.6398 221.703 46.4398V41.2398H223.803V46.2598C223.803 49.6398 221.503 52.0798 218.303 52.0798ZM230.276 51.7998L230.116 50.1798L226.256 52.1198V49.9798L229.776 48.2398L229.256 43.1198H226.996V41.2398H231.176L232.176 51.7998H230.276ZM240.6 44.9998C240.6 43.7598 240 43.1198 238.8 43.1198H234.48V41.2398H239.44C241.68 41.2398 242.82 42.5198 242.82 45.0398V51.7998H240.6V44.9998ZM246.027 51.7998V49.8598H251.167V44.8998C251.167 43.6398 250.607 43.1198 249.427 43.1198H246.027V41.2398H250.067C252.307 41.2398 253.387 42.3598 253.387 44.8798V49.8598H254.887V51.7998H246.027ZM263.587 51.7998L267.327 43.1198H261.787V37.1798H263.947V41.2398H269.847V42.4798L265.867 51.7998H263.587ZM274.997 47.3398V43.1198H272.537V41.2398H277.197V47.3398H274.997ZM281.003 51.7998V41.2398H287.063C289.323 41.2398 290.443 42.5198 290.443 45.0398V51.7998H288.223V44.9998C288.223 43.7598 287.623 43.1198 286.423 43.1198H283.203V51.7998H281.003ZM302.256 44.8998C302.256 43.6598 301.716 43.1198 300.516 43.1198H297.636V49.2598C297.636 50.9398 296.776 51.7998 295.116 51.7998H293.616V49.8598H294.736C295.176 49.8598 295.416 49.6398 295.416 49.1998V43.1198H293.616V41.2398H301.136C303.416 41.2398 304.476 42.3798 304.476 44.8798V51.7998H302.256V44.8998ZM307.954 51.3198C308.214 47.6598 308.654 45.3398 309.514 43.5198L307.734 43.0598V40.9798L310.974 41.8198C311.574 41.3198 312.314 41.0598 313.154 41.0598C315.534 41.0598 316.854 42.9398 316.854 46.2998C316.854 50.2998 315.734 51.7998 312.714 51.7998H311.854V49.8598H312.554C314.334 49.8598 314.794 49.1798 314.794 46.5198C314.794 44.2398 314.134 42.9998 312.954 42.9998C311.594 42.9998 310.874 44.4398 310.374 48.2798C310.274 49.0398 310.194 49.9398 310.094 51.7998H307.974L307.954 51.3198ZM332.79 44.9998C332.79 43.7598 332.19 43.1198 330.99 43.1198H325.21V41.2398H331.63C333.89 41.2398 335.01 42.5198 335.01 45.0398V51.7998H332.79V44.9998ZM325.71 51.7998V45.1998H327.93V51.7998H325.71ZM339.804 51.7998C339.044 49.7798 338.664 47.9398 338.664 46.4998C338.664 45.0398 339.084 43.8798 339.904 43.1198H337.884V41.2398H343.204V43.1198H342.364C341.144 43.1198 340.544 43.8798 340.544 45.3798C340.544 46.8398 341.124 49.0598 342.224 51.7998H339.804ZM353.56 44.9998C353.56 43.7598 352.96 43.1198 351.76 43.1198H345.98V41.2398H352.4C354.66 41.2398 355.78 42.5198 355.78 45.0398V51.7998H353.56V44.9998ZM346.48 51.7998V45.1998H348.7V51.7998H346.48ZM28.6948 82.1598C27.8548 82.1598 27.2148 81.4798 27.2148 80.6598C27.2148 79.8398 27.8548 79.1598 28.6948 79.1598C29.5348 79.1598 30.2148 79.8398 30.2148 80.6598C30.2148 81.4798 29.5348 82.1598 28.6948 82.1598ZM34.2164 81.7998V71.2398H40.2964C42.5564 71.2398 43.6764 72.5198 43.6764 75.0398V81.7998H34.2164ZM36.4364 79.8598H41.4564V74.9998C41.4564 73.7598 40.8564 73.1198 39.6564 73.1198H36.4364V79.8598ZM46.8507 81.7998V79.8598H48.6907C50.9107 79.8598 51.8507 78.7998 51.8507 76.2598C51.8507 74.1398 50.9707 73.1198 49.1907 73.1198H46.8507V71.2398H49.7307C52.5907 71.2398 54.0507 72.8798 54.0507 76.0998C54.0507 79.9398 52.3707 81.7998 48.8907 81.7998H46.8507ZM58.382 81.7998L62.122 73.1198H56.582V67.1798H58.742V71.2398H64.642V72.4798L60.662 81.7998H58.382ZM72.9095 82.0798C69.9295 82.0798 67.7695 79.8398 67.7695 76.7398V71.2398H69.8495V76.4998C71.4895 76.0198 72.0495 75.2798 72.0495 73.6798V71.2398H74.1295V73.5198C74.1295 76.0798 73.0295 77.3398 70.0495 77.9798C70.4895 79.2798 71.5695 80.0998 73.0095 80.0998C75.0095 80.0998 76.3095 78.6398 76.3095 76.4398V71.2398H78.4095V76.2598C78.4095 79.6398 76.1095 82.0798 72.9095 82.0798ZM95.3907 74.8998C95.3907 73.6598 94.8507 73.1198 93.6507 73.1198H90.7707V79.2598C90.7707 80.9398 89.9107 81.7998 88.2507 81.7998H86.7507V79.8598H87.8707C88.3107 79.8598 88.5507 79.6398 88.5507 79.1998V73.1198H86.7507V71.2398H94.2707C96.5507 71.2398 97.6107 72.3798 97.6107 74.8798V81.7998H95.3907V74.8998ZM102.729 81.7998V73.1198H100.429V71.2398H104.949V81.7998H102.729ZM113.923 82.0798C110.943 82.0798 108.783 79.8398 108.783 76.7398V71.2398H110.863V76.4998C112.503 76.0198 113.063 75.2798 113.063 73.6798V71.2398H115.143V73.5198C115.143 76.0798 114.043 77.3398 111.063 77.9798C111.503 79.2798 112.583 80.0998 114.023 80.0998C116.023 80.0998 117.323 78.6398 117.323 76.4398V71.2398H119.423V76.2598C119.423 79.6398 117.123 82.0798 113.923 82.0798ZM124.769 81.7998V73.1198H122.469V71.2398H126.989V81.7998H124.769ZM131.064 81.7998V71.2398H137.124C139.384 71.2398 140.504 72.5198 140.504 75.0398V81.7998H138.284V74.9998C138.284 73.7598 137.684 73.1198 136.484 73.1198H133.264V81.7998H131.064ZM152.317 74.8998C152.317 73.6598 151.777 73.1198 150.577 73.1198H147.697V79.2598C147.697 80.9398 146.837 81.7998 145.177 81.7998H143.677V79.8598H144.797C145.237 79.8598 145.477 79.6398 145.477 79.1998V73.1198H143.677V71.2398H151.197C153.477 71.2398 154.537 72.3798 154.537 74.8798V81.7998H152.317V74.8998ZM159.094 81.7998L162.834 73.1198H157.294V67.1798H159.454V71.2398H165.354V72.4798L161.374 81.7998H159.094ZM177.832 81.7998L180.932 73.1198H173.472V71.2398H183.312V72.4798L180.012 81.7998H177.832ZM173.932 84.7398V75.1998H176.112V84.7398H173.932ZM188.369 81.7998V73.1198H186.069V71.2398H190.589V81.7998H188.369ZM195.977 77.3398V73.1198H193.517V71.2398H198.177V77.3398H195.977ZM206.909 81.7998V73.1198H201.249V71.2398H210.849V73.1198H209.109V81.7998H206.909ZM213.424 81.7998V79.8598H218.564V74.8998C218.564 73.6398 218.004 73.1198 216.824 73.1198H213.424V71.2398H217.464C219.704 71.2398 220.784 72.3598 220.784 74.8798V79.8598H222.284V81.7998H213.424ZM230.284 81.7998V71.2398H236.364C238.624 71.2398 239.744 72.5198 239.744 75.0398V81.7998H230.284ZM232.504 79.8598H237.524V74.9998C237.524 73.7598 236.924 73.1198 235.724 73.1198H232.504V79.8598ZM244.739 77.3398V73.1198H242.279V71.2398H246.939V77.3398H244.739ZM249.684 81.7998C249.764 81.1398 249.864 80.5198 249.984 79.9398C250.464 77.7198 251.264 76.6598 253.024 76.0798L249.504 71.2398H252.164L255.284 75.5398C256.884 74.9998 256.964 73.7598 257.124 72.7798L257.344 71.2398H259.664C259.584 71.7198 259.504 72.2598 259.384 72.7598C258.884 75.1598 258.064 76.0998 256.044 76.5598L259.844 81.7998H257.184L253.804 77.1398C252.504 77.7598 252.424 79.0198 252.244 79.9798C252.124 80.6998 252.064 81.1998 251.984 81.7998H249.684ZM271.079 74.8998C271.079 73.6598 270.539 73.1198 269.339 73.1198H266.459V79.2598C266.459 80.9398 265.599 81.7998 263.939 81.7998H262.439V79.8598H263.559C263.999 79.8598 264.239 79.6398 264.239 79.1998V73.1198H262.439V71.2398H269.959C272.239 71.2398 273.299 72.3798 273.299 74.8798V81.7998H271.079V74.8998ZM276.777 81.3198C277.037 77.6598 277.477 75.3398 278.337 73.5198L276.557 73.0598V70.9798L279.797 71.8198C280.397 71.3198 281.137 71.0598 281.977 71.0598C284.357 71.0598 285.677 72.9398 285.677 76.2998C285.677 80.2998 284.557 81.7998 281.537 81.7998H280.677V79.8598H281.377C283.157 79.8598 283.617 79.1798 283.617 76.5198C283.617 74.2398 282.957 72.9998 281.777 72.9998C280.417 72.9998 279.697 74.4398 279.197 78.2798C279.097 79.0398 279.017 79.9398 278.917 81.7998H276.797L276.777 81.3198ZM294.24 82.0798C291.26 82.0798 289.1 79.8398 289.1 76.7398V71.2398H291.18V76.4998C292.82 76.0198 293.38 75.2798 293.38 73.6798V71.2398H295.46V73.5198C295.46 76.0798 294.36 77.3398 291.38 77.9798C291.82 79.2798 292.9 80.0998 294.34 80.0998C296.34 80.0998 297.64 78.6398 297.64 76.4398V71.2398H299.74V76.2598C299.74 79.6398 297.44 82.0798 294.24 82.0798ZM309.081 84.5798C310.061 83.3998 310.541 82.5198 310.641 81.7998H309.161V78.9798H311.981V80.8798C311.981 82.3798 311.261 83.9998 310.081 85.3198L309.081 84.5798ZM319.943 81.7998L323.043 73.1198H315.583V71.2398H325.423V72.4798L322.123 81.7998H319.943ZM316.043 84.7398V75.1998H318.223V84.7398H316.043ZM330.535 77.3398V73.1198H328.075V71.2398H332.735V77.3398H330.535ZM338.111 81.7998V73.1198H335.811V71.2398H340.331V81.7998H338.111ZM349.02 81.7998V73.1198H343.36V71.2398H352.96V73.1198H351.22V81.7998H349.02ZM355.972 81.3198C356.232 77.6598 356.672 75.3398 357.532 73.5198L355.752 73.0598V70.9798L358.992 71.8198C359.592 71.3198 360.332 71.0598 361.172 71.0598C363.552 71.0598 364.872 72.9398 364.872 76.2998C364.872 80.2998 363.752 81.7998 360.732 81.7998H359.872V79.8598H360.572C362.352 79.8598 362.812 79.1798 362.812 76.5198C362.812 74.2398 362.152 72.9998 360.972 72.9998C359.612 72.9998 358.892 74.4398 358.392 78.2798C358.292 79.0398 358.212 79.9398 358.112 81.7998H355.992L355.972 81.3198Z" fill="white"/>
</svg>
