<svg width="400" height="91" viewBox="0 0 400 91" fill="none" xmlns="http://www.w3.org/2000/svg">
<path d="M13.4383 33.6514V11.5734H9.06827V8.00143H17.6183V33.6514H13.4383ZM27.213 19.5914V11.5734H22.539V8.00143H31.393V19.5914H27.213ZM40.7757 19.5914V11.5734H36.1017V8.00143H44.9557V19.5914H40.7757ZM61.32 28.0654V8.00143H72.8721C77.1661 8.00143 79.2941 10.4334 79.2941 15.2214V28.0654H61.32ZM65.5381 24.3794H75.0761V15.1454C75.0761 12.7894 73.9361 11.5734 71.6561 11.5734H65.5381V24.3794ZM88.4034 19.5914V11.5734H83.7294V8.00143H92.5834V19.5914H88.4034ZM109.898 15.1454C109.898 12.7894 108.758 11.5734 106.478 11.5734H98.2703V8.00143H107.694C111.95 8.00143 114.116 10.4334 114.116 15.2214V28.0654H109.898V15.1454ZM135.598 28.0654H119.486V24.3794H130.164L118.346 8.00143H123.248L128.72 15.6394C131.532 14.6134 131.684 12.5234 131.988 10.7754C132.14 9.86343 132.292 8.79943 132.406 8.00143H136.814C136.662 8.87543 136.51 9.86343 136.282 10.7754C135.294 15.1074 133.812 16.8554 130.202 17.7294L135.598 25.2534V28.0654ZM145.828 19.5914V11.5734H141.154V8.00143H150.008V19.5914H145.828ZM159.391 19.5914V11.5734H154.717V8.00143H163.571V19.5914H159.391Z" fill="white"/>
<path d="M212.108 28.0654L217.998 11.5734H203.824V8.00143H222.52V10.3574L216.25 28.0654H212.108ZM204.698 33.6514V15.5254H208.84V33.6514H204.698ZM239.192 15.1454C239.192 12.7894 238.052 11.5734 235.772 11.5734H227.564V8.00143H236.988C241.244 8.00143 243.41 10.4334 243.41 15.2214V28.0654H239.192V15.1454ZM258.144 28.0654C258.296 26.8114 258.486 25.6334 258.714 24.5314C259.626 20.3134 261.146 18.2994 264.49 17.1974L257.802 8.00143H262.856L268.784 16.1714C271.824 15.1454 271.976 12.7894 272.28 10.9274L272.698 8.00143H277.106C276.954 8.91343 276.802 9.93943 276.574 10.8894C275.624 15.4494 274.066 17.2354 270.228 18.1094L277.448 28.0654H272.394L265.972 19.2114C263.502 20.3894 263.35 22.7834 263.008 24.6074C262.78 25.9754 262.666 26.9254 262.514 28.0654H258.144ZM285.251 28.0654L292.357 11.5734H281.831V0.287429H285.935V8.00143H297.145V10.3574L289.583 28.0654H285.251ZM314.962 28.0654V11.5734H310.592V8.00143H319.18V28.0654H314.962ZM325.129 28.0654V24.3794H328.131C329.157 24.3794 329.651 23.8854 329.651 22.8974V11.5734H325.243V8.00143H333.831V22.8214C333.831 26.2414 332.007 28.0654 328.625 28.0654H325.129ZM340.737 28.0654V8.00143H352.251C356.545 8.00143 358.673 10.4334 358.673 15.2214V28.0654H354.455V15.1454C354.455 12.7894 353.315 11.5734 351.035 11.5734H344.917V28.0654H340.737ZM364.055 28.0654V24.3794H367.057C368.083 24.3794 368.577 23.8854 368.577 22.8974V11.5734H364.169V8.00143H372.757V22.8214C372.757 26.2414 370.933 28.0654 367.551 28.0654H364.055ZM377.835 28.0654C377.987 26.8114 378.177 25.6334 378.405 24.5314C379.317 20.3134 380.837 18.2994 384.181 17.1974L377.493 8.00143H382.547L388.475 16.1714C391.515 15.1454 391.667 12.7894 391.971 10.9274L392.389 8.00143H396.797C396.645 8.91343 396.493 9.93943 396.265 10.8894C395.315 15.4494 393.757 17.2354 389.919 18.1094L397.139 28.0654H392.085L385.663 19.2114C383.193 20.3894 383.041 22.7834 382.699 24.6074C382.471 25.9754 382.357 26.9254 382.205 28.0654H377.835Z" fill="white"/>
<path d="M10.8543 78.9033V58.8393H22.4063C26.7003 58.8393 28.8283 61.2713 28.8283 66.0593V78.9033H10.8543ZM15.0723 75.2173H24.6103V65.9833C24.6103 63.6273 23.4703 62.4113 21.1903 62.4113H15.0723V75.2173ZM37.9376 70.4293V62.4113H33.2636V58.8393H42.1176V70.4293H37.9376ZM46.9854 78.9033V75.2173H51.1274H51.8874L47.7074 58.8393H51.8874L55.7634 74.7613C57.9674 74.1153 58.6894 72.4813 59.2594 68.7573C59.4874 67.1993 59.6394 65.1093 59.7154 61.1953L59.7914 58.8393H63.8574C63.8574 62.4113 63.5154 67.2373 62.9834 70.0493C61.8434 76.5473 58.7654 78.9033 51.4314 78.9033H46.9854ZM75.4118 78.9033L75.1078 75.8253L67.7738 79.5113V75.4453L74.4618 72.1393L73.4738 62.4113H69.1798V58.8393H77.1218L79.0218 78.9033H75.4118ZM94.6478 65.9833C94.6478 63.6273 93.5078 62.4113 91.2278 62.4113H83.0198V58.8393H92.4438C96.6998 58.8393 98.8658 61.2713 98.8658 66.0593V78.9033H94.6478V65.9833ZM115.424 78.9033V58.8393H126.976C131.27 58.8393 133.398 61.2713 133.398 66.0593V78.9033H115.424ZM119.642 75.2173H129.18V65.9833C129.18 63.6273 128.04 62.4113 125.76 62.4113H119.642V75.2173ZM142.507 70.4293V62.4113H137.833V58.8393H146.687V70.4293H142.507ZM164.002 65.9833C164.002 63.6273 162.862 62.4113 160.582 62.4113H152.374V58.8393H161.798C166.054 58.8393 168.22 61.2713 168.22 66.0593V78.9033H164.002V65.9833ZM189.702 78.9033H173.59V75.2173H184.268L172.45 58.8393H177.352L182.824 66.4773C185.636 65.4513 185.788 63.3613 186.092 61.6133C186.244 60.7013 186.396 59.6373 186.51 58.8393H190.918C190.766 59.7133 190.614 60.7013 190.386 61.6133C189.398 65.9453 187.916 67.6933 184.306 68.5673L189.702 76.0913V78.9033ZM199.932 70.4293V62.4113H195.258V58.8393H204.112V70.4293H199.932ZM213.495 70.4293V62.4113H208.821V58.8393H217.675V70.4293H213.495Z" fill="white"/>
<path d="M262.418 78.917V62.425H258.048V58.853H266.636V78.917H262.418ZM272.585 78.917V75.231H275.587C276.613 75.231 277.107 74.737 277.107 73.749V62.425H272.699V58.853H281.287V73.673C281.287 77.093 279.463 78.917 276.081 78.917H272.585ZM288.193 78.917V58.853H299.707C304.001 58.853 306.129 61.285 306.129 66.073V78.917H301.911V65.997C301.911 63.641 300.771 62.425 298.491 62.425H292.373V78.917H288.193ZM311.511 78.917V75.231H314.513C315.539 75.231 316.033 74.737 316.033 73.749V62.425H311.625V58.853H320.213V73.673C320.213 77.093 318.389 78.917 315.007 78.917H311.511ZM325.291 78.917C325.443 77.663 325.633 76.485 325.861 75.383C326.773 71.165 328.293 69.151 331.637 68.049L324.949 58.853H330.003L335.931 67.023C338.971 65.997 339.123 63.641 339.427 61.779L339.845 58.853H344.253C344.101 59.765 343.949 60.791 343.721 61.741C342.771 66.301 341.213 68.087 337.375 68.961L344.595 78.917H339.541L333.119 70.063C330.649 71.241 330.497 73.635 330.155 75.459C329.927 76.827 329.813 77.777 329.661 78.917H325.291Z" fill="white"/>
<path d="M187.317 11.14L187.321 24.7272C187.321 25.3518 186.858 25.8302 186.297 25.8349C185.735 25.8395 185.293 26.3394 185.289 26.9565C185.284 27.5737 184.855 28.0968 184.293 28.0968L178.54 28.0953C178.002 28.0953 177.565 27.6094 177.565 27.0109V25.4579C177.565 24.8333 178.02 24.327 178.582 24.327H182.586C183.147 24.327 183.602 23.8206 183.602 23.1951V12.5371C183.602 11.9125 183.147 11.4062 182.586 11.4062H174.254C173.693 11.4062 173.238 11.9125 173.238 12.5371V26.9643C173.238 27.5889 172.783 28.0953 172.222 28.0953H170.554C169.993 28.0953 169.538 27.5889 169.538 26.9643L169.538 14.7807C169.538 14.1561 170.001 13.6777 170.562 13.673C171.119 13.6683 171.57 13.1638 171.57 12.542C171.57 11.9203 171.09 11.4111 170.524 11.4111H169.262C168.7 11.4111 168.245 10.9047 168.245 10.2792L168.245 8.8663C168.245 8.24172 168.7 7.73535 169.261 7.73535H172.584C173.139 7.73535 173.613 8.22962 173.604 8.84862C173.594 9.46762 174.053 9.99725 174.62 9.99725C175.187 9.99725 175.645 9.48065 175.636 8.84862C175.627 8.22962 176.1 7.73535 176.656 7.73535L184.235 7.7549C184.796 7.7549 185.226 8.27057 185.23 8.89516C185.234 9.51974 185.683 10.0121 186.238 10.0168C186.799 10.0215 187.317 10.5154 187.317 11.14Z" fill="white"/>
<path d="M241.367 61.9447L241.371 75.5319C241.371 76.1565 240.908 76.6349 240.347 76.6396C239.785 76.6442 239.343 77.1441 239.339 77.7612C239.335 78.3783 238.905 78.9015 238.343 78.9015L232.59 78.9C232.052 78.9 231.615 78.4141 231.615 77.8155V76.2626C231.615 75.638 232.07 75.1317 232.632 75.1317H236.636C237.197 75.1317 237.652 74.6253 237.652 73.9998V63.3418C237.652 62.7172 237.197 62.2109 236.636 62.2109H228.305C227.743 62.2109 227.288 62.7172 227.288 63.3418V77.769C227.288 78.3936 226.833 78.9 226.272 78.9H224.604C224.043 78.9 223.588 78.3936 223.588 77.769L223.588 65.5854C223.588 64.9608 224.051 64.4823 224.612 64.4777C225.17 64.473 225.62 63.9685 225.62 63.3467C225.62 62.7249 225.14 62.2158 224.574 62.2158H223.312C222.75 62.2158 222.295 61.7094 222.295 61.0839L222.295 59.671C222.295 59.0464 222.75 58.54 223.311 58.54H226.634C227.19 58.54 227.663 59.0343 227.654 59.6533C227.645 60.2723 228.103 60.8019 228.67 60.8019C229.237 60.8019 229.696 60.2853 229.686 59.6533C229.677 59.0343 230.151 58.54 230.706 58.54L238.285 58.5596C238.846 58.5596 239.276 59.0753 239.28 59.6998C239.284 60.3244 239.733 60.8168 240.288 60.8215C240.849 60.8261 241.367 61.3201 241.367 61.9447Z" fill="white"/>
<path d="M396.503 69.9236C396.503 69.0602 395.803 68.3604 394.939 68.3604L361.744 68.3604C360.88 68.3604 360.18 69.0603 360.18 69.9236C360.18 70.7869 360.88 71.4868 361.744 71.4868L394.939 71.4868C395.803 71.4868 396.503 70.7869 396.503 69.9236Z" fill="white"/>
<path d="M394.939 60.062C394.076 60.062 393.376 60.7619 393.376 61.6252L393.376 69.9119C393.376 70.7752 394.076 71.4751 394.939 71.4751C395.803 71.4751 396.503 70.7752 396.503 69.9119L396.503 61.6252C396.503 60.7619 395.803 60.062 394.939 60.062Z" fill="white"/>
<path d="M367.935 80.0691C368.474 79.3948 368.365 78.4111 367.69 77.8719L361.084 72.5901C360.41 72.051 359.426 72.1606 358.887 72.8349C358.348 73.5092 358.458 74.4929 359.132 75.032L365.738 80.3138C366.412 80.8529 367.396 80.7434 367.935 80.0691Z" fill="white"/>
<path d="M367.611 58.9005C366.997 58.2931 366.007 58.2982 365.4 58.9118L359.45 64.9231C358.843 65.5367 358.848 66.5265 359.462 67.1338C360.075 67.7411 361.065 67.736 361.672 67.1224L367.622 61.1111C368.229 60.4975 368.224 59.5078 367.611 58.9005Z" fill="white"/>
<circle cx="357.477" cy="69.9238" r="1.70364" transform="rotate(180 357.477 69.9238)" fill="white"/>
</svg>
