<svg width="154" height="154" viewBox="0 0 154 154" fill="none" xmlns="http://www.w3.org/2000/svg">
<g filter="url(#filter0_d_2578_2281)">
<rect x="18.2832" y="10.3276" width="117.432" height="117.43" rx="58.7148" fill="#DFDED0"/>
</g>
<path d="M44.1828 61.7358H45.0288C45.2088 61.7358 45.3168 61.8798 45.3168 62.0238V66.0738C45.8568 65.5698 46.5588 65.2638 47.4048 65.2638C49.2948 65.2638 50.8248 66.7038 50.8248 68.5038V70.8258C50.8248 72.6258 49.2948 74.0838 47.4048 74.0838C46.4868 74.0838 45.6408 73.7238 45.1908 73.0578V73.6698C45.1908 73.8138 45.0648 73.9038 44.9208 73.9038H44.1828C44.0028 73.9038 43.8948 73.7778 43.8948 73.6338V62.0238C43.8948 61.8798 44.0028 61.7358 44.1828 61.7358ZM49.4208 70.7718V68.5938C49.4208 67.4418 48.4848 66.5058 47.3328 66.5058C46.1808 66.5058 45.2628 67.4418 45.2628 68.5938V70.7718C45.2628 71.9238 46.1808 72.8418 47.3328 72.8418C48.4848 72.8418 49.4208 71.9238 49.4208 70.7718ZM59.6032 73.6338V73.1838C58.7032 73.7238 57.6412 74.0658 56.7052 74.0658C55.2472 74.0658 54.0592 73.2198 54.0592 70.8798V65.7138C54.0592 65.5518 54.1672 65.4258 54.3292 65.4258H55.1932C55.3372 65.4258 55.4632 65.5518 55.4632 65.7138V71.2038C55.4632 72.3558 56.0932 72.7338 56.9032 72.7338C57.7852 72.7338 58.8472 72.3198 59.5312 71.8878V65.7138C59.5312 65.5518 59.6752 65.4258 59.8192 65.4258H60.6652C60.8452 65.4258 60.9172 65.5518 60.9172 65.7138V73.6338C60.9172 73.7778 60.8092 73.9038 60.6292 73.9038H59.8912C59.7112 73.9038 59.6032 73.7778 59.6032 73.6338ZM70.1611 74.0838V73.2378C69.2791 73.7958 68.4331 74.0658 67.3351 74.0658C65.8771 74.0658 64.6891 73.2198 64.6891 70.8798V65.7138C64.6891 65.5518 64.7971 65.4258 64.9591 65.4258H65.8231C65.9671 65.4258 66.0931 65.5518 66.0931 65.7138V71.2038C66.0931 72.3558 66.7231 72.7338 67.5331 72.7338C68.4871 72.7338 69.5131 72.3378 70.1611 71.8878V65.7138C70.1611 65.5518 70.3051 65.4258 70.4491 65.4258H71.3131C71.4931 65.4258 71.5651 65.5518 71.5651 65.7138V74.3358C71.5651 77.2158 69.6751 77.5938 67.1551 77.5938H66.5251C66.3091 77.5938 66.1831 77.4678 66.1831 77.2518V76.7118C66.1831 76.4958 66.3091 76.3878 66.5251 76.3878C69.3331 76.3878 70.1611 76.2078 70.1611 74.0838ZM83.404 65.6958V66.1458C84.376 65.6058 85.42 65.2458 86.356 65.2458C87.814 65.2458 88.948 66.0738 88.948 68.4138V73.6158C88.948 73.7778 88.84 73.9038 88.678 73.9038H87.814C87.67 73.9038 87.544 73.7778 87.544 73.6158V68.1258C87.544 66.9738 86.914 66.5778 86.104 66.5778C85.258 66.5778 84.214 67.0098 83.476 67.4418V73.6158C83.476 73.7778 83.332 73.9038 83.188 73.9038H82.342C82.162 73.9038 82.09 73.7778 82.09 73.6158V65.6958C82.09 65.5518 82.198 65.4258 82.378 65.4258H83.116C83.296 65.4258 83.404 65.5518 83.404 65.6958ZM92.4498 70.8258V68.5038C92.4498 66.7038 93.9798 65.2638 95.9418 65.2638C97.8318 65.2638 99.3618 66.7038 99.3618 68.5038V70.8258C99.3618 72.6258 97.8318 74.0838 95.9418 74.0838C93.9798 74.0838 92.4498 72.6258 92.4498 70.8258ZM95.9058 72.8418C97.0218 72.8418 97.9578 71.9598 97.9578 70.9158V68.4318C97.9578 67.3698 97.0218 66.5058 95.9058 66.5058C94.7898 66.5058 93.8718 67.3698 93.8718 68.4318V70.9158C93.8718 71.9598 94.7898 72.8418 95.9058 72.8418ZM107.727 73.9038L106.701 70.8618H106.629L105.603 73.9038H104.973C104.757 73.9038 104.631 73.8318 104.595 73.6158L102.975 65.7138C102.939 65.5518 103.065 65.4258 103.227 65.4258H104.019C104.217 65.4258 104.343 65.5158 104.379 65.7138L105.279 71.8338L106.089 69.3318C106.125 69.2238 106.215 69.1698 106.323 69.1698H107.007C107.115 69.1698 107.205 69.2238 107.241 69.3318L108.051 71.8338L108.951 65.7138C108.987 65.5158 109.113 65.4258 109.311 65.4258H110.103C110.265 65.4258 110.391 65.5518 110.355 65.7138L108.735 73.6158C108.699 73.8318 108.573 73.9038 108.357 73.9038H107.727Z" fill="black"/>
<defs>
<filter id="filter0_d_2578_2281" x="0.783203" y="0.827637" width="152.432" height="152.43" filterUnits="userSpaceOnUse" color-interpolation-filters="sRGB">
<feFlood flood-opacity="0" result="BackgroundImageFix"/>
<feColorMatrix in="SourceAlpha" type="matrix" values="0 0 0 0 0 0 0 0 0 0 0 0 0 0 0 0 0 0 127 0" result="hardAlpha"/>
<feMorphology radius="6" operator="dilate" in="SourceAlpha" result="effect1_dropShadow_2578_2281"/>
<feOffset dy="8"/>
<feGaussianBlur stdDeviation="5.75"/>
<feComposite in2="hardAlpha" operator="out"/>
<feColorMatrix type="matrix" values="0 0 0 0 0 0 0 0 0 0 0 0 0 0 0 0 0 0 1 0"/>
<feBlend mode="normal" in2="BackgroundImageFix" result="effect1_dropShadow_2578_2281"/>
<feBlend mode="normal" in="SourceGraphic" in2="effect1_dropShadow_2578_2281" result="shape"/>
</filter>
</defs>
</svg>
