<svg width="154" height="154" viewBox="0 0 154 154" fill="none" xmlns="http://www.w3.org/2000/svg">
<g filter="url(#filter0_d_1981_4241)">
<circle cx="77.0002" cy="69.0793" r="58.715" fill="#DFDED0"/>
</g>
<path d="M113.372 44.7984C111.74 43.6787 109.522 43.9943 108.268 45.5249L72.6629 88.9532C71.2468 90.6804 71.6125 93.2497 73.4543 94.5133C75.0863 95.6329 77.3038 95.3173 78.5586 93.7867L114.163 50.3585C115.579 48.6312 115.214 46.062 113.372 44.7984Z" fill="#121010"/>
<path d="M48.5118 82.2491C47.1957 83.7894 47.3803 86.1056 48.9239 87.4179L56.2659 93.6598C57.804 94.9674 60.1103 94.7836 61.4218 93.2488C62.7379 91.7085 62.5532 89.3922 61.0097 88.08L53.6676 81.838C52.1295 80.5304 49.8233 80.7143 48.5118 82.2491Z" fill="#121010"/>
<circle cx="67.2985" cy="96.4993" r="4.11703" transform="rotate(85.8078 67.2985 96.4993)" fill="#121010"/>
<defs>
<filter id="filter0_d_1981_4241" x="0.785156" y="0.864258" width="152.43" height="152.43" filterUnits="userSpaceOnUse" color-interpolation-filters="sRGB">
<feFlood flood-opacity="0" result="BackgroundImageFix"/>
<feColorMatrix in="SourceAlpha" type="matrix" values="0 0 0 0 0 0 0 0 0 0 0 0 0 0 0 0 0 0 127 0" result="hardAlpha"/>
<feMorphology radius="6" operator="dilate" in="SourceAlpha" result="effect1_dropShadow_1981_4241"/>
<feOffset dy="8"/>
<feGaussianBlur stdDeviation="5.75"/>
<feComposite in2="hardAlpha" operator="out"/>
<feColorMatrix type="matrix" values="0 0 0 0 0 0 0 0 0 0 0 0 0 0 0 0 0 0 1 0"/>
<feBlend mode="normal" in2="BackgroundImageFix" result="effect1_dropShadow_1981_4241"/>
<feBlend mode="normal" in="SourceGraphic" in2="effect1_dropShadow_1981_4241" result="shape"/>
</filter>
</defs>
</svg>
