<svg width="32" height="33" viewBox="0 0 32 33" fill="none" xmlns="http://www.w3.org/2000/svg">
<path d="M29.9833 30.8374C30.842 29.9699 30.8348 28.5705 29.9672 27.7118L21.4678 19.2996C20.6002 18.441 19.2008 18.4481 18.3421 19.3157C17.4834 20.1832 17.4906 21.5826 18.3581 22.4413L26.8576 30.8535C27.7251 31.7121 29.1245 31.705 29.9833 30.8374Z" fill="white"/>
<path d="M2.33999 30.8374C1.48128 29.9699 1.48847 28.5705 2.35604 27.7118L10.8554 19.2996C11.723 18.441 13.1224 18.4481 13.9811 19.3157C14.8399 20.1832 14.8327 21.5826 13.9651 22.4413L5.46569 30.8535C4.59812 31.7121 3.1987 31.705 2.33999 30.8374Z" fill="white"/>
<path d="M2.26865 2.06829C1.40997 2.93586 1.41716 4.33527 2.28471 5.19397L10.7839 13.6064C11.6514 14.4651 13.0508 14.4579 13.9095 13.5904C14.7682 12.7228 14.761 11.3234 13.8934 10.4647L5.39427 2.05224C4.52672 1.19355 3.12734 1.20073 2.26865 2.06829Z" fill="white"/>
<path d="M30.0634 2.06829C30.9221 2.93586 30.9149 4.33527 30.0473 5.19397L21.5482 13.6064C20.6806 14.4651 19.2812 14.4579 18.4226 13.5904C17.5639 12.7228 17.5711 11.3234 18.4386 10.4647L26.9378 2.05224C27.8053 1.19355 29.2047 1.20073 30.0634 2.06829Z" fill="white"/>
<ellipse cx="16.1313" cy="16.4552" rx="2.40877" ry="2.40872" transform="rotate(90 16.1313 16.4552)" fill="white"/>
</svg>
