<svg width="125" height="11" viewBox="0 0 125 11" fill="none" xmlns="http://www.w3.org/2000/svg">
<path d="M93.2705 6.18846V0.429199H94.8406V5.60867C96.3138 5.12551 96.8371 4.41043 96.8371 2.98028V0.429199H98.446V2.72904C98.446 5.0482 97.4768 6.20779 94.8988 6.82623C95.1314 8.29504 96.1587 9.2227 97.5543 9.2227C99.2407 9.2227 100.404 7.88918 100.404 5.89856V0.429199H101.993V5.7053C101.993 8.70089 100.171 10.7302 97.4768 10.7302C94.9763 10.7302 93.2705 8.8555 93.2705 6.18846Z" fill="white"/>
<path d="M116.124 6.1887V0.429443H117.694V5.60891C119.167 5.12575 119.691 4.41068 119.691 2.98053V0.429443H121.3V2.72928C121.3 5.04845 120.33 6.20803 117.752 6.82648C117.985 8.29528 119.012 9.22295 120.408 9.22295C122.094 9.22295 123.257 7.88943 123.257 5.89881V0.429443H124.847V5.70554C124.847 8.70113 123.025 10.7304 120.33 10.7304C117.83 10.7304 116.124 8.85574 116.124 6.1887Z" fill="white"/>
<path d="M88.6344 6.69085C88.1724 6.69085 87.7977 6.3172 87.7977 5.85659V2.92865C87.7977 2.69834 87.704 2.49058 87.5522 2.33919C87.4003 2.1878 87.192 2.09439 86.961 2.09439H83.8321C83.3556 2.09439 82.9388 1.70464 82.9566 1.23115C82.9647 1.01372 83.0568 0.815628 83.2005 0.672291C83.3524 0.520901 83.5607 0.42749 83.7917 0.42749H86.961C87.192 0.42749 87.4003 0.520901 87.5522 0.672291C87.704 0.823681 87.7977 1.03144 87.7977 1.26175C87.7977 1.72236 88.1724 2.096 88.6344 2.096C88.8654 2.096 89.0738 2.18941 89.2257 2.3408C89.3775 2.49219 89.4712 2.69995 89.4712 2.93026V5.8582C89.4712 6.31882 89.0964 6.69246 88.6344 6.69246V6.69085Z" fill="white"/>
<path d="M111.444 6.69085C110.982 6.69085 110.607 6.3172 110.607 5.85659V2.92865C110.607 2.69834 110.514 2.49058 110.362 2.33919C110.21 2.1878 110.002 2.09439 109.771 2.09439H106.642C106.165 2.09439 105.748 1.70464 105.766 1.23115C105.774 1.01372 105.866 0.815628 106.01 0.672291C106.162 0.520901 106.37 0.42749 106.601 0.42749H109.771C110.002 0.42749 110.21 0.520901 110.362 0.672291C110.514 0.823681 110.607 1.03144 110.607 1.26175C110.607 1.72236 110.982 2.096 111.444 2.096C111.675 2.096 111.883 2.18941 112.035 2.3408C112.187 2.49219 112.281 2.69995 112.281 2.93026V5.8582C112.281 6.31882 111.906 6.69246 111.444 6.69246V6.69085Z" fill="white"/>
<path d="M6.20669 6.69134C5.74471 6.69134 5.36997 6.31769 5.36997 5.85708V2.92913C5.36997 2.69883 5.27628 2.49107 5.12444 2.33968C4.9726 2.18829 4.76424 2.09488 4.53325 2.09488H1.40436C0.927839 2.09488 0.5111 1.70513 0.528869 1.23163C0.536945 1.01421 0.62902 0.816117 0.772783 0.67278C0.924623 0.52139 1.13298 0.427979 1.36398 0.427979H4.53325C4.76424 0.427979 4.9726 0.52139 5.12444 0.67278C5.27628 0.82417 5.36997 1.03193 5.36997 1.26223C5.36997 1.72284 5.74471 2.09649 6.20669 2.09649C6.43768 2.09649 6.64609 2.1899 6.79793 2.34129C6.94977 2.49268 7.04346 2.70044 7.04346 2.93074V5.85869C7.04346 6.3193 6.66868 6.69295 6.20669 6.69295V6.69134Z" fill="white"/>
<path d="M10.8418 8.93281H12.063C12.5282 8.93281 12.7802 8.68156 12.7802 8.21773V1.91733H10.8418V0.429199H17.4711C19.6033 0.429199 20.5919 1.51148 20.5919 3.84997V10.4596H18.8861V3.69536C18.8861 2.43914 18.324 1.91733 17.0252 1.91733H14.486V8.23706C14.486 9.70586 13.73 10.4596 12.2762 10.4596H10.8418V8.93281Z" fill="white"/>
<path d="M24.3926 0.430664H29.2385C31.3126 0.430664 32.3593 1.64822 32.3593 4.0447V10.4611H30.6536V3.89009C30.6536 2.57589 30.0333 1.91879 28.7927 1.91879H26.0596V10.4611H24.3926V0.430664Z" fill="white"/>
<path d="M36.4499 8.93283H38.9116C41.3928 8.93283 42.3038 7.86988 42.3038 5.00957C42.3038 2.72906 41.5091 1.66611 39.7839 1.66611C38.5434 1.66611 37.7874 2.38119 37.7874 3.57942C37.7874 4.42978 38.2526 4.81631 39.5707 5.04823L40.0359 5.12553L39.7839 6.61367L39.3575 6.57501C37.2253 6.36242 36.1592 5.43476 36.1592 3.71471C36.1592 1.55015 37.6323 0.177979 39.939 0.177979C42.5946 0.177979 43.9515 1.76274 43.9515 4.81631C43.9515 8.70091 42.3426 10.4596 38.776 10.4596H36.4499V8.93283Z" fill="white"/>
<path d="M47.75 6.18846V0.429199H49.3201V5.60867C50.7933 5.12551 51.3166 4.41044 51.3166 2.98028V0.429199H52.9254V2.72904C52.9254 5.0482 51.9563 6.20779 49.3782 6.82623C49.6108 8.29504 50.6382 9.2227 52.0338 9.2227C53.7202 9.2227 54.8832 7.88918 54.8832 5.89857V0.429199H56.4727V5.7053C56.4727 8.70089 54.6506 10.7302 51.9563 10.7302C49.4557 10.7302 47.75 8.8555 47.75 6.18846Z" fill="white"/>
<path d="M69.0792 2.07828V8.76521C69.0792 9.07121 68.8127 9.30635 68.4896 9.30957C68.1665 9.31279 67.9129 9.55759 67.9097 9.86037C67.9065 10.1632 67.6593 10.4208 67.3379 10.4208H64.4012C64.0911 10.4208 63.8407 10.1825 63.8407 9.88775V9.42553C63.8407 9.11953 64.1024 8.86989 64.4255 8.86989H66.9163C67.2393 8.86989 67.501 8.62187 67.501 8.31426V2.57433C67.501 2.26832 67.2393 2.01869 66.9163 2.01869H63.6097C63.2867 2.01869 63.025 2.26671 63.025 2.57433V9.86359C63.025 10.1696 62.7633 10.4192 62.4402 10.4192H61.9104C61.5874 10.4176 61.3257 10.1857 61.3257 9.87809V3.91107C61.3257 3.60507 61.5922 3.36993 61.9153 3.36671C62.2383 3.36349 62.4951 3.11708 62.4951 2.81107C62.4951 2.50507 62.2189 2.25544 61.8942 2.25544H60.8572C60.5342 2.25544 60.2725 2.00742 60.2725 1.69981V0.989563C60.2725 0.683562 60.5342 0.433928 60.8572 0.433928L62.4386 0.419434C62.7585 0.419434 63.0298 0.662624 63.025 0.965404C63.0201 1.26818 63.2834 1.52909 63.6097 1.52909C63.936 1.52909 64.1993 1.27624 64.1945 0.965404C64.1896 0.654571 64.461 0.419434 64.7808 0.419434H67.3395C67.6625 0.419434 67.9097 0.672286 67.9113 0.979898C67.9129 1.28751 68.1714 1.52909 68.4912 1.5307C68.811 1.53231 69.0808 1.76745 69.0808 2.07506L69.0792 2.07828Z" fill="white"/>
</svg>
