<svg width="354" height="52" viewBox="0 0 354 52" fill="none" xmlns="http://www.w3.org/2000/svg">
<path d="M224.006 31.9724H192.072C191.609 41.991 202.629 46.2994 210.57 41.5974C211.992 40.7551 213.898 38.2763 215.134 38.2763H222.818C216.135 57.3951 185.892 54.2328 183.835 33.6917C180.493 0.349534 225.691 0.625718 223.999 31.9655L224.006 31.9724ZM215.334 25.6617C214.139 11.8318 193.26 11.8663 192.072 25.6617H215.334Z" fill="white"/>
<path d="M125.96 9.39539L125.939 14.5117C132.658 6.59214 143.567 6.32976 149.001 15.6924C154.262 5.21813 169.307 6.65428 172.905 17.6878C173.954 20.9122 173.968 24.3714 173.975 27.7615C173.982 35.2875 173.989 42.8204 174.003 50.3464C171.11 50.3464 168.223 50.3533 165.33 50.3602C165.33 50.3602 165.31 34.3692 165.31 32.9123C165.31 28.6315 165.738 23.0595 163.901 19.2137C162.879 17.0802 159.731 15.7683 156.762 16.4242C153.675 17.1009 151.991 19.5934 151.459 22.6798C151.045 25.0895 151.176 27.6511 151.176 30.0124V50.3464H142.511V39.3267C142.511 36.1713 142.428 33.0159 142.559 29.8743C142.759 25.0688 142.994 18.6751 137.601 16.6935C133.997 15.3678 129.295 16.5278 127.217 19.8972C126.354 21.292 125.967 22.7764 125.967 24.4059C125.967 33.0573 125.967 41.7019 125.967 50.3533H117.302V9.39539H125.96Z" fill="white"/>
<path d="M233.722 9.39434V50.3453H242.387V31.9654C242.387 29.7145 242.194 27.36 242.421 25.1229C242.753 21.8709 244.493 18.6534 247.483 17.1827C250.465 15.712 254.857 15.6223 257.874 17.0032C260.014 17.9836 260.891 20.1931 261.471 22.3266C262.231 25.116 262.307 28.016 262.314 30.8883C262.314 30.9711 262.314 31.054 262.314 31.1368V46.2164C262.314 46.4373 262.314 50.3453 262.314 50.3453H270.585V40.5754C270.585 35.3348 270.572 30.0873 270.585 24.8468C270.599 20.2897 269.943 16.0365 266.802 12.8881C262.134 8.20676 252.005 7.67511 246.302 10.6924C244.672 11.5555 243.568 12.6947 242.38 14.1102V9.38744H233.722V9.39434Z" fill="white"/>
<path d="M301.67 42.0044V50.3452C301.387 50.3452 298.39 50.3383 297.983 50.3452C295.801 50.3659 294.103 50.4004 291.493 49.5788C288.475 48.6259 287.412 46.7893 286.639 44.6213C285.879 42.5154 285.955 39.9193 285.955 37.7443C285.955 35.2794 285.955 32.8145 285.955 30.3426V16.7475H280.245V9.24228C283.725 9.20776 281.916 9.24228 285.955 9.24228V0.83252H294.621L294.579 9.26299H301.712V16.7475H294.579C294.6 18.6187 294.676 32.4485 294.717 39.0355C294.731 40.6788 296.064 42.0044 297.714 42.0044H301.677H301.67Z" fill="white"/>
<path d="M46.4818 50.3603V16.7006C46.4818 16.452 46.2816 16.2518 46.033 16.2518H38.141C37.8925 16.2518 37.6922 16.452 37.6922 16.7006V18.0538C37.6922 19.3381 36.6566 20.3738 35.3723 20.3738H32.714C32.4654 20.3738 32.2583 20.5809 32.2583 20.8295L32.2997 50.3672H24.0211V16.7006C24.0211 16.452 23.8209 16.2518 23.5723 16.2518H12.7735C12.5249 16.2518 12.3247 16.452 12.3247 16.7006V18.0538C12.3247 19.3381 11.289 20.3738 10.0047 20.3738H8.89996C8.65139 20.3738 8.44425 20.5809 8.44425 20.8295V50.3672H0.207031V11.1493C0.207031 9.87193 1.24963 8.82935 2.52699 8.82935H5.30265C6.58691 8.82935 7.6226 9.87193 7.6226 11.1493V12.5026C7.6226 12.7511 7.82974 12.9514 8.07831 12.9514C8.32687 12.9514 8.52711 12.7511 8.53401 12.5095L8.55472 11.1079C8.57544 9.85122 9.61804 8.82935 10.8747 8.82935H29.9591C31.2364 8.82935 32.279 9.87193 32.279 11.1493L32.2928 13.1516C32.3066 13.3933 32.5 13.5866 32.7416 13.5866L34.1157 13.6004C34.2814 13.6004 34.3849 13.5175 34.4402 13.4692C34.4954 13.414 34.5714 13.3104 34.5714 13.1447V11.1493C34.5714 9.87193 35.6071 8.82935 36.8844 8.82935H47.1654C48.4497 8.82935 49.4854 9.87193 49.4854 11.1493V13.1378C49.4854 13.3864 49.6925 13.5935 49.9411 13.5935H52.7167C54.001 13.5935 55.0367 14.6292 55.0367 15.9134V50.3672H46.468L46.4818 50.3603Z" fill="white"/>
<path d="M107.629 29.7355C107.629 41.5699 98.004 51.1949 86.1695 51.1949C74.3349 51.1949 64.7168 41.5699 64.7168 29.7355C64.7168 17.9011 74.3418 8.27612 86.1695 8.27612C97.9971 8.27612 107.629 17.9011 107.629 29.7355Z" fill="white"/>
<path d="M332.582 50.9951C320.886 50.9951 311.371 41.4807 311.371 29.7843C311.371 18.088 320.886 8.57349 332.582 8.57349C344.279 8.57349 353.793 18.088 353.793 29.7843C353.793 41.4807 344.279 50.9951 332.582 50.9951ZM332.582 15.6645C324.794 15.6645 318.462 21.996 318.462 29.7843C318.462 37.5727 324.794 43.9042 332.582 43.9042C340.371 43.9042 346.702 37.5727 346.702 29.7843C346.702 21.996 340.371 15.6645 332.582 15.6645Z" fill="white"/>
</svg>
