<svg width="367" height="84" viewBox="0 0 367 84" fill="none" xmlns="http://www.w3.org/2000/svg">
<path d="M230.505 46.9724H198.571C198.109 56.991 209.129 61.2994 217.069 56.5974C218.491 55.7551 220.397 53.2763 221.633 53.2763H229.318C222.634 72.3951 192.392 69.2328 190.334 48.6917C186.992 15.3495 232.19 15.6257 230.498 46.9655L230.505 46.9724ZM221.833 40.6617C220.639 26.8318 199.759 26.8663 198.571 40.6617H221.833Z" fill="white"/>
<path d="M132.459 24.3951L132.439 29.5114C139.157 21.5919 150.066 21.3295 155.5 30.6921C160.761 20.2179 175.807 21.654 179.404 32.6875C180.453 35.912 180.467 39.3712 180.474 42.7613C180.481 50.2873 180.488 57.8202 180.502 65.3461C177.609 65.3461 174.723 65.353 171.83 65.3599C171.83 65.3599 171.809 49.369 171.809 47.9121C171.809 43.6313 172.237 38.0593 170.4 34.2134C169.378 32.0799 166.23 30.7681 163.261 31.424C160.175 32.1006 158.49 34.5932 157.958 37.6795C157.544 40.0892 157.675 42.6508 157.675 45.0122V65.3461H149.01V54.3264C149.01 51.1711 148.927 48.0157 149.058 44.8741C149.258 40.0685 149.493 33.6749 144.101 31.6933C140.496 30.3676 135.794 31.5276 133.716 34.897C132.853 36.2917 132.466 37.7762 132.466 39.4057C132.466 48.0571 132.466 56.7016 132.466 65.353H123.801V24.3951H132.459Z" fill="white"/>
<path d="M240.222 24.3946V65.3456H248.887V46.9656C248.887 44.7147 248.694 42.3603 248.921 40.1232C249.253 36.8711 250.993 33.6536 253.982 32.1829C256.965 30.7123 261.357 30.6225 264.374 32.0034C266.514 32.9839 267.391 35.1933 267.971 37.3268C268.731 40.1163 268.807 43.0162 268.814 45.8885C268.814 45.9714 268.814 46.0542 268.814 46.1371V61.2166C268.814 61.4376 268.814 65.3456 268.814 65.3456H277.085V55.5756C277.085 50.335 277.072 45.0876 277.085 39.847C277.099 35.29 276.443 31.0368 273.302 27.8883C268.634 23.207 258.505 22.6754 252.802 25.6926C251.172 26.5557 250.068 27.695 248.88 29.1104V24.3877H240.222V24.3946Z" fill="white"/>
<path d="M308.169 57.0044V65.3452C307.886 65.3452 304.89 65.3383 304.482 65.3452C302.301 65.3659 300.602 65.4004 297.992 64.5788C294.975 63.6259 293.911 61.7893 293.138 59.6213C292.379 57.5154 292.455 54.9193 292.455 52.7443C292.455 50.2794 292.455 47.8145 292.455 45.3426V31.7475H286.744V24.2423C290.224 24.2078 288.415 24.2423 292.455 24.2423V15.8325H301.12L301.078 24.263H308.211V31.7475H301.078C301.099 33.6187 301.175 47.4485 301.216 54.0355C301.23 55.6788 302.563 57.0044 304.213 57.0044H308.176H308.169Z" fill="white"/>
<path d="M52.9813 65.3606V31.7008C52.9813 31.4522 52.7811 31.252 52.5326 31.252H44.6406C44.392 31.252 44.1918 31.4522 44.1918 31.7008V33.0541C44.1918 34.3383 43.1561 35.374 41.8718 35.374H39.2135C38.965 35.374 38.7578 35.5812 38.7578 35.8297L38.7992 65.3675H30.5206V31.7008C30.5206 31.4522 30.3204 31.252 30.0718 31.252H19.273C19.0244 31.252 18.8242 31.4522 18.8242 31.7008V33.0541C18.8242 34.3383 17.7885 35.374 16.5042 35.374H15.3995C15.1509 35.374 14.9438 35.5812 14.9438 35.8297V65.3675H6.70654V26.1495C6.70654 24.8722 7.74914 23.8296 9.0265 23.8296H11.8022C13.0864 23.8296 14.1221 24.8722 14.1221 26.1495V27.5028C14.1221 27.7514 14.3293 27.9516 14.5778 27.9516C14.8264 27.9516 15.0266 27.7514 15.0335 27.5097L15.0542 26.1081C15.075 24.8515 16.1175 23.8296 17.3742 23.8296H36.4586C37.7359 23.8296 38.7785 24.8722 38.7785 26.1495L38.7923 28.1518C38.8062 28.3935 38.9995 28.5868 39.2411 28.5868L40.6152 28.6006C40.7809 28.6006 40.8844 28.5178 40.9397 28.4695C40.9949 28.4142 41.0709 28.3107 41.0709 28.1449V26.1495C41.0709 24.8722 42.1066 23.8296 43.3839 23.8296H53.6649C54.9492 23.8296 55.9849 24.8722 55.9849 26.1495V28.138C55.9849 28.3866 56.192 28.5937 56.4406 28.5937H59.2162C60.5005 28.5937 61.5362 29.6294 61.5362 30.9137V65.3675H52.9675L52.9813 65.3606Z" fill="white"/>
<path d="M114.129 44.7358C114.129 56.5702 104.504 66.1951 92.669 66.1951C80.8345 66.1951 71.2163 56.5702 71.2163 44.7358C71.2163 32.9013 80.8414 23.2764 92.669 23.2764C104.497 23.2764 114.129 32.9013 114.129 44.7358Z" fill="#F86A3A"/>
<path d="M339.082 65.9949C327.386 65.9949 317.871 56.4804 317.871 44.7841C317.871 33.0877 327.386 23.5732 339.082 23.5732C350.778 23.5732 360.293 33.0877 360.293 44.7841C360.293 56.4804 350.778 65.9949 339.082 65.9949ZM339.082 30.6642C331.294 30.6642 324.962 36.9957 324.962 44.7841C324.962 52.5724 331.294 58.9039 339.082 58.9039C346.87 58.9039 353.202 52.5724 353.202 44.7841C353.202 36.9957 346.87 30.6642 339.082 30.6642Z" fill="white"/>
</svg>
