<svg width="121" height="64" viewBox="0 0 121 64" fill="none" xmlns="http://www.w3.org/2000/svg">
<path d="M62.5022 2.9435H52.2617V0.019043H63.381C67.4695 0.019043 69.5329 2.41178 69.5329 7.12129V19.7306H66.1704V6.81745C66.1704 4.23482 64.9476 2.9435 62.5022 2.9435Z" fill="white"/>
<path d="M30.7871 16.7302H41.7153V6.43765C41.7153 3.85502 40.4926 2.9435 38.0471 2.9435H30.7871V0.019043H38.926C43.0145 0.019043 45.0779 2.03198 45.0779 6.74149V16.7302H49.281V19.7306H30.7871V16.7302Z" fill="white"/>
<path d="M76.4707 16.7302H81.3999C81.973 16.7302 82.4698 16.7302 82.9665 16.6922L78.5341 0.019043H81.8966L86.0233 16.3124C88.3924 15.5908 89.233 13.9577 89.8444 10.2736C90.1501 8.56453 90.3029 6.17179 90.4176 1.50026L90.4558 0.019043H93.7419C93.7037 4.31078 93.3216 8.94433 92.7484 11.6029C91.4875 17.7177 88.6217 19.7306 81.3234 19.7306H76.4707V16.7302Z" fill="white"/>
<path d="M113.932 45.9169H103.691V42.9924H114.811C118.899 42.9924 120.963 45.3852 120.963 50.0947V62.704H117.6V49.7908C117.6 47.2082 116.377 45.9169 113.932 45.9169Z" fill="white"/>
<path d="M19.8848 54.2192V42.8253H23.1709V53.9914C23.1709 57.9793 24.5465 60.1061 27.183 60.1061C30.3927 60.1061 31.9211 57.2197 31.9211 51.1049C31.9211 47.3069 31.1187 45.7497 29.2081 45.7497C28.5204 45.7497 27.6797 45.9396 26.6862 46.2814L25.8838 43.6988C27.2594 43.0152 28.635 42.6733 29.8577 42.6733C33.2585 42.6733 35.2072 45.4459 35.2072 50.3833C35.2072 58.8908 32.5325 63.0306 27.0301 63.0306C22.4067 63.0306 19.8848 59.9162 19.8848 54.2192Z" fill="white"/>
<path d="M55.428 47.9084V61.0146C55.428 61.4672 55.2433 61.8755 54.944 62.173C54.6447 62.4705 54.2339 62.6541 53.7786 62.6541H43.8916C42.9809 62.6541 42.2422 61.9198 42.2422 61.0146C42.2422 60.562 42.4269 60.1538 42.7262 59.8562C43.0255 59.5587 43.4363 59.3752 43.8916 59.3752H50.4829C50.9383 59.3752 51.349 59.1916 51.6484 58.8941C51.9477 58.5966 52.1324 58.1883 52.1324 57.7357V47.9084C52.1324 47.4558 51.9477 47.0475 51.6484 46.75C51.349 46.4525 50.9383 46.2689 50.4829 46.2689H47.1873C46.2766 46.2689 45.5379 45.5346 45.5379 44.6295C45.5379 44.1769 45.7225 43.7686 46.0219 43.4711C46.3212 43.1736 46.7319 42.99 47.1873 42.99H50.4829C50.9383 42.99 51.349 43.1736 51.6484 43.4711C51.9477 43.7686 52.1324 44.1769 52.1324 44.6295C52.1324 45.5346 52.8711 46.2689 53.7818 46.2689C54.2371 46.2689 54.6479 46.4525 54.9472 46.75C55.2465 47.0475 55.4312 47.4558 55.4312 47.9084H55.428Z" fill="white"/>
<path d="M11.2627 55.2987C10.352 55.2987 9.61325 54.5644 9.61325 53.6592V47.9052C9.61325 47.4526 9.42857 47.0443 9.12925 46.7468C8.82994 46.4493 8.41917 46.2658 7.96383 46.2658H1.79919C0.859847 46.2658 0.0383199 45.4998 0.0733463 44.5693C0.0892673 44.142 0.270768 43.7528 0.554163 43.4711C0.853479 43.1736 1.26424 42.99 1.71959 42.99H7.96701C8.42236 42.99 8.83312 43.1736 9.13244 43.4711C9.43175 43.7686 9.61644 44.1769 9.61644 44.6295C9.61644 45.5346 10.3552 46.2689 11.2659 46.2689C11.7212 46.2689 12.132 46.4525 12.4313 46.75C12.7306 47.0475 12.9153 47.4558 12.9153 47.9084V53.6624C12.9153 54.5675 12.1765 55.3018 11.2659 55.3018L11.2627 55.2987Z" fill="white"/>
<path d="M79.7939 46.2433V59.3844C79.7939 59.9857 79.2685 60.4478 78.6317 60.4542C77.9949 60.4605 77.4949 60.9416 77.4886 61.5366C77.4822 62.1316 76.995 62.638 76.3614 62.638H70.5724C69.9611 62.638 69.4675 62.1696 69.4675 61.5904V60.682C69.4675 60.0807 69.9834 59.5901 70.6202 59.5901H75.5303C76.1671 59.5901 76.683 59.1027 76.683 58.4982V47.2182C76.683 46.6168 76.1671 46.1262 75.5303 46.1262H69.0122C68.3753 46.1262 67.8595 46.6136 67.8595 47.2182V61.5429C67.8595 62.1443 67.3437 62.6348 66.7068 62.6348H65.6624C65.0255 62.6317 64.5097 62.1759 64.5097 61.5714V49.8451C64.5097 49.2438 65.0351 48.7817 65.6719 48.7753C66.3088 48.769 66.8151 48.2848 66.8151 47.6834C66.8151 47.0821 66.2706 46.5915 65.6305 46.5915H63.5863C62.9494 46.5915 62.4336 46.1041 62.4336 45.4996V44.1038C62.4336 43.5025 62.9494 43.0119 63.5863 43.0119L66.7036 42.9834C67.3341 42.9834 67.8691 43.4613 67.8595 44.0563C67.8499 44.6514 68.369 45.1641 69.0122 45.1641C69.6554 45.1641 70.1744 44.6672 70.1649 44.0563C70.1553 43.4613 70.6903 42.9834 71.3207 42.9834H76.3645C77.0014 42.9834 77.4886 43.4803 77.4917 44.0848C77.4981 44.6798 78.0044 45.1641 78.6349 45.1672C79.2717 45.1704 79.7971 45.6325 79.7971 46.237L79.7939 46.2433Z" fill="white"/>
<path d="M95.0387 62.7047C94.128 62.7047 93.3893 61.9705 93.3893 61.0653V47.9052C93.3893 47.4526 93.2046 47.0443 92.9053 46.7468C92.606 46.4493 92.1952 46.2658 91.7399 46.2658H88.5238C87.5845 46.2658 86.7629 45.4998 86.798 44.5693C86.8139 44.142 86.9954 43.7528 87.2788 43.4711C87.5781 43.1736 87.9889 42.99 88.4442 42.99H91.7399C92.1952 42.99 92.606 43.1736 92.9053 43.4711C93.2046 43.7686 93.3893 44.1769 93.3893 44.6295C93.3893 45.5346 94.128 46.2689 95.0387 46.2689C95.494 46.2689 95.9048 46.4525 96.2041 46.75C96.5034 47.0475 96.6881 47.4558 96.6881 47.9084V61.0684C96.6881 61.9736 95.9494 62.7079 95.0387 62.7079V62.7047Z" fill="white"/>
</svg>
