<svg width="109" height="12" viewBox="0 0 109 12" fill="none" xmlns="http://www.w3.org/2000/svg">
<path d="M92.7291 2.45728H87.4834V0.959229H93.1793C95.2736 0.959229 96.3306 2.18491 96.3306 4.59736V11.0565H94.6081V4.44172C94.6081 3.11876 93.9818 2.45728 92.7291 2.45728Z" fill="white"/>
<path d="M76.4834 9.51954H82.0814V4.24717C82.0814 2.92421 81.4551 2.45728 80.2024 2.45728H76.4834V0.959229H80.6525C82.7469 0.959229 83.8039 1.99036 83.8039 4.40281V9.51954H85.9569V11.0565H76.4834V9.51954Z" fill="white"/>
<path d="M99.8848 9.51954H102.41C102.703 9.51954 102.958 9.51954 103.212 9.50009L100.942 0.959229H102.664L104.778 9.30553C105.992 8.93588 106.422 8.09931 106.735 6.21215C106.892 5.33666 106.97 4.11098 107.029 1.71798L107.049 0.959229H108.732C108.712 3.15767 108.517 5.53121 108.223 6.89308C107.577 10.0254 106.109 11.0565 102.371 11.0565H99.8848V9.51954Z" fill="white"/>
<path d="M58.9713 2.45069H53.7256V0.952637H59.4215C61.5158 0.952637 62.5728 2.17832 62.5728 4.59077V11.0499H60.8503V4.43513C60.8503 3.11217 60.224 2.45069 58.9713 2.45069Z" fill="white"/>
<path d="M10.7969 6.70395V0.867372H12.4802V6.58722C12.4802 8.63002 13.1848 9.71952 14.5354 9.71952C16.1796 9.71952 16.9625 8.24092 16.9625 5.10862C16.9625 3.16309 16.5515 2.36543 15.5728 2.36543C15.2205 2.36543 14.7899 2.4627 14.2809 2.6378L13.8699 1.31484C14.5745 0.964649 15.2792 0.789551 15.9055 0.789551C17.6476 0.789551 18.6458 2.20978 18.6458 4.73897C18.6458 9.09695 17.2757 11.2176 14.4571 11.2176C12.0887 11.2176 10.7969 9.62224 10.7969 6.70395Z" fill="white"/>
<path d="M29.0045 3.47087V10.1846C29.0045 10.4164 28.9099 10.6255 28.7565 10.7779C28.6032 10.9303 28.3928 11.0244 28.1595 11.0244H23.0949C22.6284 11.0244 22.25 10.6482 22.25 10.1846C22.25 9.95271 22.3446 9.74357 22.4979 9.59117C22.6513 9.43877 22.8617 9.34474 23.0949 9.34474H26.4713C26.7046 9.34474 26.915 9.2507 27.0683 9.0983C27.2217 8.94591 27.3163 8.73676 27.3163 8.50492V3.47087C27.3163 3.23903 27.2217 3.02989 27.0683 2.87749C26.915 2.72509 26.7046 2.63105 26.4713 2.63105H24.7831C24.3166 2.63105 23.9382 2.25492 23.9382 1.79123C23.9382 1.55939 24.0328 1.35025 24.1861 1.19785C24.3395 1.04545 24.5499 0.951416 24.7831 0.951416H26.4713C26.7046 0.951416 26.915 1.04545 27.0683 1.19785C27.2217 1.35025 27.3163 1.55939 27.3163 1.79123C27.3163 2.25492 27.6947 2.63105 28.1612 2.63105C28.3944 2.63105 28.6048 2.72509 28.7582 2.87749C28.9115 3.02989 29.0061 3.23903 29.0061 3.47087H29.0045Z" fill="white"/>
<path d="M6.37977 7.25654C5.91327 7.25654 5.53485 6.88041 5.53485 6.41672V3.46925C5.53485 3.23741 5.44024 3.02827 5.28692 2.87587C5.13359 2.72347 4.92318 2.62943 4.68993 2.62943H1.53208C1.0509 2.62943 0.630072 2.23709 0.648014 1.76043C0.65617 1.54156 0.749144 1.34214 0.894314 1.19785C1.04764 1.04545 1.25805 0.951416 1.4913 0.951416H4.69156C4.92481 0.951416 5.13522 1.04545 5.28855 1.19785C5.44187 1.35025 5.53648 1.55939 5.53648 1.79123C5.53648 2.25492 5.9149 2.63105 6.3814 2.63105C6.61465 2.63105 6.82506 2.72509 6.97839 2.87749C7.13171 3.02989 7.22632 3.23903 7.22632 3.47087V6.41834C7.22632 6.88203 6.8479 7.25816 6.3814 7.25816L6.37977 7.25654Z" fill="white"/>
<path d="M41.4847 2.61815V9.34967C41.4847 9.65771 41.2155 9.89442 40.8893 9.89766C40.5631 9.90091 40.307 10.1473 40.3037 10.4521C40.3005 10.7569 40.0509 11.0163 39.7263 11.0163H36.7609C36.4478 11.0163 36.1949 10.7764 36.1949 10.4797V10.0144C36.1949 9.70635 36.4592 9.45505 36.7854 9.45505H39.3006C39.6268 9.45505 39.8911 9.20538 39.8911 8.89572V3.1175C39.8911 2.80946 39.6268 2.55817 39.3006 2.55817H35.9617C35.6355 2.55817 35.3712 2.80784 35.3712 3.1175V10.4554C35.3712 10.7634 35.107 11.0147 34.7808 11.0147H34.2458C33.9195 11.0131 33.6553 10.7796 33.6553 10.47V4.46316C33.6553 4.15512 33.9244 3.91841 34.2506 3.91517C34.5769 3.91193 34.8362 3.66387 34.8362 3.35583C34.8362 3.04779 34.5573 2.79649 34.2294 2.79649H33.1823C32.856 2.79649 32.5918 2.54682 32.5918 2.23715V1.52217C32.5918 1.21413 32.856 0.962833 33.1823 0.962833L34.7791 0.948242C35.1021 0.948242 35.3761 1.19305 35.3712 1.49785C35.3663 1.80265 35.6322 2.0653 35.9617 2.0653C36.2912 2.0653 36.557 1.81076 36.5522 1.49785C36.5473 1.19305 36.8213 0.948242 37.1443 0.948242H39.7279C40.0542 0.948242 40.3037 1.20278 40.3054 1.51244C40.3086 1.81724 40.568 2.0653 40.8909 2.06692C41.2172 2.06854 41.4863 2.30525 41.4863 2.61491L41.4847 2.61815Z" fill="white"/>
<path d="M49.2942 11.0503C48.8277 11.0503 48.4492 10.6742 48.4492 10.2105V3.46925C48.4492 3.23741 48.3546 3.02827 48.2013 2.87587C48.048 2.72347 47.8376 2.62943 47.6043 2.62943H45.9569C45.4757 2.62943 45.0549 2.23709 45.0728 1.76043C45.081 1.54156 45.174 1.34214 45.3191 1.19785C45.4724 1.04545 45.6829 0.951416 45.9161 0.951416H47.6043C47.8376 0.951416 48.048 1.04545 48.2013 1.19785C48.3546 1.35025 48.4492 1.55939 48.4492 1.79123C48.4492 2.25492 48.8277 2.63105 49.2942 2.63105C49.5274 2.63105 49.7378 2.72509 49.8911 2.87749C50.0445 3.02989 50.1391 3.23903 50.1391 3.47087V10.2121C50.1391 10.6758 49.7607 11.0519 49.2942 11.0519V11.0503Z" fill="white"/>
</svg>
