<svg width="126" height="17" viewBox="0 0 126 17" fill="none" xmlns="http://www.w3.org/2000/svg">
<path d="M0.120117 3.94727H5.81011C7.89514 3.94727 8.94737 5.17126 8.94737 7.5804V14.0307H0.120117V3.94727ZM7.23265 12.4958V7.42497C7.23265 6.10383 6.60909 5.44326 5.36197 5.44326H1.83492V12.4958H7.23265Z" fill="white"/>
<path d="M42.335 9.73697V3.94727H43.9134V9.15411C45.3943 8.6684 45.9204 7.94954 45.9204 6.51183V3.94727H47.5378V6.25926C47.5378 8.59069 46.5635 9.7564 43.9718 10.3781C44.2057 11.8547 45.2384 12.7872 46.6414 12.7872C48.3367 12.7872 49.5059 11.4467 49.5059 9.44554V3.94727H51.1038V9.25126C51.1038 12.2627 49.2721 14.3027 46.5635 14.3027C44.0498 14.3027 42.335 12.4181 42.335 9.73697Z" fill="white"/>
<path d="M61.0601 5.44298H54.9219V0.0612793H56.5977V3.94699H63.0477V4.89898L58.5074 14.0304H56.7341L61.0601 5.44298Z" fill="white"/>
<path d="M38.5144 6.48084V13.1853C38.5144 13.4168 38.4202 13.6257 38.2675 13.7779C38.1149 13.9301 37.9055 14.024 37.6733 14.024H32.6311C32.1667 14.024 31.79 13.6484 31.79 13.1853C31.79 12.9538 31.8842 12.7449 32.0369 12.5927C32.1895 12.4405 32.3989 12.3466 32.6311 12.3466H35.9926C36.2248 12.3466 36.4342 12.2527 36.5868 12.1005C36.7395 11.9484 36.8337 11.7395 36.8337 11.508V6.48084C36.8337 6.24932 36.7395 6.04046 36.5868 5.88827C36.4342 5.73608 36.2248 5.64217 35.9926 5.64217H34.3119C33.8474 5.64217 33.4707 5.26656 33.4707 4.80351C33.4707 4.57199 33.5649 4.36313 33.7175 4.21094C33.8701 4.05875 34.0796 3.96484 34.3119 3.96484H35.9926C36.2248 3.96484 36.4342 4.05875 36.5868 4.21094C36.7395 4.36313 36.8337 4.57199 36.8337 4.80351C36.8337 5.26656 37.2104 5.64217 37.6749 5.64217C37.9071 5.64217 38.1166 5.73608 38.2692 5.88827C38.4219 6.04046 38.516 6.24932 38.516 6.48084H38.5144Z" fill="white"/>
<path d="M18.4721 10.1934C18.0076 10.1934 17.6309 9.81782 17.6309 9.35477V6.41135C17.6309 6.17983 17.5367 5.97097 17.384 5.81878C17.2314 5.66659 17.022 5.57269 16.7898 5.57269H13.6443C13.1653 5.57269 12.7464 5.18088 12.7642 4.70488C12.7723 4.48631 12.8649 4.28716 13.0094 4.14307C13.162 3.99088 13.3715 3.89697 13.6037 3.89697H16.7898C17.022 3.89697 17.2314 3.99088 17.384 4.14307C17.5367 4.29526 17.6309 4.50412 17.6309 4.73564C17.6309 5.19869 18.0076 5.5743 18.4721 5.5743C18.7043 5.5743 18.9138 5.66821 19.0664 5.8204C19.2191 5.97259 19.3132 6.18145 19.3132 6.41297V9.35639C19.3132 9.81944 18.9365 10.1951 18.4721 10.1951V10.1934Z" fill="white"/>
<path d="M28.8402 10.1934C28.3758 10.1934 27.9991 9.81782 27.9991 9.35477V6.41135C27.9991 6.17983 27.9049 5.97097 27.7523 5.81878C27.5996 5.66659 27.3901 5.57269 27.1579 5.57269H24.0125C23.5335 5.57269 23.1145 5.18088 23.1324 4.70488C23.1405 4.48631 23.2331 4.28716 23.3776 4.14307C23.5303 3.99088 23.7397 3.89697 23.9719 3.89697H27.1579C27.3901 3.89697 27.5996 3.99088 27.7523 4.14307C27.9049 4.29526 27.9991 4.50412 27.9991 4.73564C27.9991 5.19869 28.3758 5.5743 28.8402 5.5743C29.0724 5.5743 29.2819 5.66821 29.4346 5.8204C29.5872 5.97259 29.6814 6.18145 29.6814 6.41297V9.35639C29.6814 9.81944 29.3046 10.1951 28.8402 10.1951V10.1934Z" fill="white"/>
<path d="M111.853 14.0565C111.389 14.0565 111.012 13.6808 111.012 13.2178V6.48581C111.012 6.25429 110.918 6.04543 110.766 5.89324C110.613 5.74105 110.403 5.64715 110.171 5.64715H108.531C108.052 5.64715 107.633 5.25534 107.651 4.77934C107.659 4.56077 107.752 4.36163 107.896 4.21753C108.049 4.06534 108.258 3.97144 108.49 3.97144H110.171C110.403 3.97144 110.613 4.06534 110.766 4.21753C110.918 4.36972 111.012 4.57858 111.012 4.8101C111.012 5.27315 111.389 5.64877 111.853 5.64877C112.086 5.64877 112.295 5.74267 112.448 5.89486C112.6 6.04705 112.695 6.25591 112.695 6.48743V13.2194C112.695 13.6825 112.318 14.0581 111.853 14.0581V14.0565Z" fill="white"/>
<path d="M79.2451 16.7183C78.7807 16.7183 78.404 16.3426 78.404 15.8796V6.48752C78.404 6.256 78.3098 6.04714 78.1571 5.89495C78.0045 5.74276 77.795 5.64886 77.5628 5.64886H75.9227C75.4436 5.64886 75.0247 5.25705 75.0425 4.78105C75.0507 4.56248 75.1433 4.36333 75.2878 4.21924C75.4404 4.06705 75.6499 3.97314 75.8821 3.97314H77.5628C77.795 3.97314 78.0045 4.06705 78.1571 4.21924C78.3098 4.37143 78.404 4.58029 78.404 4.81181C78.404 5.27486 78.7807 5.65047 79.2451 5.65047C79.4774 5.65047 79.6868 5.74438 79.8394 5.89657C79.9921 6.04876 80.0862 6.25762 80.0862 6.48914V15.8812C80.0862 16.3443 79.7096 16.7199 79.2451 16.7199V16.7183Z" fill="white"/>
<path d="M83.9062 3.9729H88.7778C90.8628 3.9729 91.9152 5.1969 91.9152 7.60604V14.0563H90.2004V7.45061C90.2004 6.12947 89.5768 5.4689 88.3297 5.4689H85.5821V14.0563H83.9062V3.9729Z" fill="white"/>
<path d="M101.873 5.46886H95.7344V0.0871582H97.4102V3.97287H103.86V4.92486L99.3199 14.0563H97.5466L101.873 5.46886Z" fill="white"/>
<path d="M116.487 9.7626V3.9729H118.066V9.17975C119.547 8.69404 120.073 7.97518 120.073 6.53747V3.9729H121.69V6.2849C121.69 8.61632 120.716 9.78203 118.124 10.4037C118.358 11.8803 119.391 12.8129 120.794 12.8129C122.489 12.8129 123.658 11.4723 123.658 9.47118V3.9729H125.256V9.27689C125.256 12.2883 123.424 14.3283 120.716 14.3283C118.202 14.3283 116.487 12.4437 116.487 9.7626Z" fill="white"/>
</svg>
