<svg width="137" height="63" viewBox="0 0 137 63" fill="none" xmlns="http://www.w3.org/2000/svg">
<path d="M48.1191 11.1532V0.0065918H51.1579V10.0311C54.0091 9.09598 55.0221 7.712 55.0221 4.94404V0.0065918H58.1359V4.45777C58.1359 8.94636 56.2601 11.1907 51.2705 12.3876C51.7207 15.2304 53.709 17.0258 56.4102 17.0258C59.6741 17.0258 61.9251 14.4449 61.9251 10.5922V0.0065918H65.0014V10.2181C65.0014 16.0159 61.4749 19.9434 56.2601 19.9434C51.4206 19.9434 48.1191 16.3151 48.1191 11.1532Z" fill="white"/>
<path d="M92.3516 11.1532V0.0065918H95.3904V10.0311C98.2416 9.09598 99.2545 7.712 99.2545 4.94404V0.0065918H102.368V4.45777C102.368 8.94636 100.493 11.1907 95.5029 12.3876C95.9531 15.2304 97.9415 17.0258 100.643 17.0258C103.907 17.0258 106.158 14.4449 106.158 10.5922V0.0065918H109.234V10.2181C109.234 16.0159 105.707 19.9434 100.493 19.9434C95.653 19.9434 92.3516 16.3151 92.3516 11.1532Z" fill="white"/>
<path d="M39.1464 12.1255C38.2522 12.1255 37.5269 11.4023 37.5269 10.5108V4.84399C37.5269 4.39825 37.3456 3.99615 37.0517 3.70314C36.7578 3.41014 36.3546 3.22935 35.9075 3.22935H29.8518C28.9295 3.22935 28.1229 2.47501 28.1573 1.55859C28.1729 1.13779 28.3511 0.754389 28.6294 0.476969C28.9233 0.183964 29.3265 0.00317383 29.7736 0.00317383H35.9075C36.3546 0.00317383 36.7578 0.183964 37.0517 0.476969C37.3456 0.769974 37.5269 1.17208 37.5269 1.61782C37.5269 2.5093 38.2522 3.23246 39.1464 3.23246C39.5934 3.23246 39.9968 3.41325 40.2906 3.70626C40.5845 3.99926 40.7658 4.40136 40.7658 4.84711V10.5139C40.7658 11.4054 40.0405 12.1286 39.1464 12.1286V12.1255Z" fill="white"/>
<path d="M83.2928 12.1255C82.3987 12.1255 81.6734 11.4023 81.6734 10.5108V4.84399C81.6734 4.39825 81.4921 3.99615 81.1982 3.70314C80.9043 3.41014 80.5011 3.22935 80.054 3.22935H73.9982C73.076 3.22935 72.2694 2.47501 72.3038 1.55859C72.3194 1.13779 72.4976 0.754389 72.7759 0.476969C73.0698 0.183964 73.473 0.00317383 73.9201 0.00317383H80.054C80.5011 0.00317383 80.9043 0.183964 81.1982 0.476969C81.4921 0.769974 81.6734 1.17208 81.6734 1.61782C81.6734 2.5093 82.3987 3.23246 83.2928 3.23246C83.7399 3.23246 84.1433 3.41325 84.4371 3.70626C84.731 3.99926 84.9123 4.40136 84.9123 4.84711V10.5139C84.9123 11.4054 84.187 12.1286 83.2928 12.1286V12.1255Z" fill="white"/>
<path d="M12.1236 54.8253C11.2097 54.8253 10.4684 54.0861 10.4684 53.1749V47.3829C10.4684 46.9273 10.2831 46.5163 9.9827 46.2168C9.68233 45.9173 9.27015 45.7325 8.8132 45.7325H2.62361C1.68096 45.7325 0.85656 44.9615 0.891709 44.0249C0.907687 43.5948 1.08983 43.2029 1.37422 42.9193C1.67459 42.6198 2.08678 42.4351 2.54372 42.4351H8.8132C9.27015 42.4351 9.68233 42.6198 9.9827 42.9193C10.2831 43.2188 10.4684 43.6298 10.4684 44.0854C10.4684 44.9966 11.2097 45.7357 12.1236 45.7357C12.5806 45.7357 12.9928 45.9205 13.2932 46.22C13.5936 46.5195 13.7789 46.9305 13.7789 47.386V53.1781C13.7789 54.0893 13.0375 54.8285 12.1236 54.8285V54.8253Z" fill="white"/>
<path d="M21.291 59.2594H23.7068C24.6271 59.2594 25.1255 58.7624 25.1255 57.8448V45.3813H21.291V42.4375H34.4051C38.6231 42.4375 40.5787 44.5785 40.5787 49.2045V62.2797H37.2043V48.8986C37.2043 46.4136 36.0923 45.3813 33.5231 45.3813H28.4999V57.8831C28.4999 60.7887 27.0045 62.2797 24.1286 62.2797H21.291V59.2594Z" fill="white"/>
<path d="M48.0977 42.4409H57.684C61.7869 42.4409 63.8576 44.8495 63.8576 49.5902V62.2831H60.4832V49.2844C60.4832 46.6846 59.2561 45.3847 56.802 45.3847H51.3954V62.2831H48.0977V42.4409Z" fill="white"/>
<path d="M71.9482 59.2596H76.818C81.7262 59.2596 83.5284 57.1568 83.5284 51.4986C83.5284 46.9872 81.9563 44.8845 78.5436 44.8845C76.0895 44.8845 74.594 46.2991 74.594 48.6694C74.594 50.3516 75.5143 51.1163 78.1218 51.575L79.0421 51.728L78.5436 54.6718L77.6999 54.5953C73.482 54.1748 71.373 52.3397 71.373 48.9371C71.373 44.6551 74.2873 41.9407 78.8503 41.9407C84.1036 41.9407 86.7878 45.0757 86.7878 51.1163C86.7878 58.8008 83.6052 62.2799 76.5496 62.2799H71.9482V59.2596Z" fill="white"/>
<path d="M94.3027 53.8305V42.4375H97.4087V52.6836C100.323 51.7278 101.358 50.3132 101.358 47.4841V42.4375H104.541V46.9871C104.541 51.5749 102.624 53.8687 97.5237 55.0922C97.9838 57.9978 100.016 59.8329 102.777 59.8329C106.113 59.8329 108.414 57.1949 108.414 53.257V42.4375H111.558V52.8747C111.558 58.8006 107.954 62.8149 102.624 62.8149C97.677 62.8149 94.3027 59.1065 94.3027 53.8305Z" fill="white"/>
<path d="M136.496 45.7V58.9281C136.496 59.5335 135.969 59.9986 135.329 60.005C134.69 60.0114 134.189 60.4956 134.182 61.0946C134.176 61.6936 133.687 62.2033 133.051 62.2033H127.242C126.628 62.2033 126.133 61.7318 126.133 61.1488V60.2344C126.133 59.629 126.651 59.1352 127.29 59.1352H132.217C132.856 59.1352 133.374 58.6446 133.374 58.0361V46.6813C133.374 46.0759 132.856 45.5821 132.217 45.5821H125.676C125.037 45.5821 124.519 46.0728 124.519 46.6813V61.101C124.519 61.7063 124.002 62.2001 123.363 62.2001H122.314C121.675 62.1969 121.158 61.7382 121.158 61.1296V49.3256C121.158 48.7203 121.685 48.2551 122.324 48.2488C122.963 48.2424 123.471 47.755 123.471 47.1496C123.471 46.5443 122.925 46.0505 122.282 46.0505H120.231C119.592 46.0505 119.074 45.5598 119.074 44.9513V43.5463C119.074 42.941 119.592 42.4471 120.231 42.4471L123.359 42.4185C123.992 42.4185 124.529 42.8995 124.519 43.4985C124.51 44.0975 125.031 44.6136 125.676 44.6136C126.322 44.6136 126.842 44.1134 126.833 43.4985C126.823 42.8836 127.36 42.4185 127.993 42.4185H133.054C133.693 42.4185 134.182 42.9187 134.185 43.5272C134.189 44.1357 134.7 44.6136 135.333 44.6168C135.965 44.62 136.499 45.0851 136.499 45.6936L136.496 45.7Z" fill="white"/>
</svg>
