<svg width="131" height="15" viewBox="0 0 131 15" fill="none" xmlns="http://www.w3.org/2000/svg">
<path d="M0.519525 12.5853C0.967715 10.5647 1.74718 9.5544 3.44251 8.97154L0.0908203 4.40576H2.11742L5.23527 8.66068C7.18393 8.1361 7.26187 6.77608 7.39828 5.90178L7.61263 4.40576H9.38591C9.32745 4.89148 9.2495 5.3772 9.15207 5.82407C8.64542 8.17496 7.86596 9.10754 5.89782 9.53497L9.52232 14.4893H7.49571L4.10505 9.86526C2.39023 10.5647 2.37075 11.9247 2.19537 12.8962C2.07845 13.5567 2.03948 13.9647 1.96153 14.4893H0.20774C0.305173 13.7122 0.402605 13.1099 0.519525 12.5853Z" fill="white"/>
<path d="M13.0723 9.92334V4.13354H14.6507V9.34047C16.1317 8.85475 16.6578 8.13588 16.6578 6.69815V4.13354H18.2752V6.44558C18.2752 8.77704 17.3009 9.94277 14.7091 10.5645C14.943 12.0411 15.9758 12.9737 17.3788 12.9737C19.0741 12.9737 20.2433 11.6331 20.2433 9.63191V4.13354H21.8412V9.43762C21.8412 12.4491 20.0095 14.4891 17.3009 14.4891C14.7871 14.4891 13.0723 12.6045 13.0723 9.92334Z" fill="white"/>
<path d="M31.8199 5.90178H25.6621V4.40576H35.6977V5.90178H33.4957V14.4893H31.8199V5.90178Z" fill="white"/>
<path d="M45.1121 5.90178H39.4805V4.40576H45.5603C47.6453 4.40576 48.6976 5.62978 48.6976 8.03895V14.4893H46.9828V7.88352C46.9828 6.56236 46.3592 5.90178 45.1121 5.90178ZM40.3574 8.07781H42.0722V14.4893H40.3574V8.07781Z" fill="white"/>
<path d="M68.7848 5.90181H62.6465V0.52002H64.3223V4.40579H70.7724V5.3578L66.232 14.4893H64.4587L68.7848 5.90181Z" fill="white"/>
<path d="M73.5 12.9527H76.0138C76.3061 12.9527 76.5594 12.9527 76.8127 12.9333L74.5523 4.40405H76.2671L78.3716 12.739C79.5798 12.3699 80.0085 11.5344 80.3203 9.64984C80.4762 8.77554 80.5541 7.55152 80.6126 5.16178L80.6321 4.40405H82.3079C82.2884 6.59951 82.0936 8.96983 81.8013 10.3298C81.1582 13.4579 79.6967 14.4876 75.9748 14.4876H73.5V12.9527Z" fill="white"/>
<path d="M96.3965 9.92172V4.13354H97.9749V9.34047C99.4559 8.85475 99.982 8.13588 99.982 6.69815V4.13354H101.599V6.44558C101.599 8.77704 100.625 9.94277 98.0334 10.5645C98.2672 12.0411 99.3 12.9737 100.703 12.9737C102.398 12.9737 103.568 11.6331 103.568 9.6319V4.13354H105.165V9.43762C105.165 12.4491 103.334 14.4891 100.625 14.4891C98.1113 14.4891 96.3965 12.6045 96.3965 9.92334V9.92172Z" fill="white"/>
<path d="M121.689 9.92172V4.13354H123.268V9.34047C124.749 8.85475 125.275 8.13588 125.275 6.69815V4.13354H126.892V6.44558C126.892 8.77704 125.918 9.94277 123.326 10.5645C123.56 12.0411 124.593 12.9737 125.996 12.9737C127.691 12.9737 128.861 11.6331 128.861 9.6319V4.13354H130.458V9.43762C130.458 12.4491 128.627 14.4891 125.918 14.4891C123.404 14.4891 121.689 12.6045 121.689 9.92334V9.92172Z" fill="white"/>
<path d="M117.869 5.80607V12.5284C117.869 12.8361 117.601 13.0725 117.276 13.0757C116.952 13.0789 116.697 13.325 116.693 13.6294C116.69 13.9338 116.442 14.1928 116.118 14.1928H113.166C112.854 14.1928 112.603 13.9532 112.603 13.6569V13.1923C112.603 12.8846 112.866 12.6337 113.191 12.6337H115.695C116.019 12.6337 116.282 12.3843 116.282 12.0751V6.30474C116.282 5.99712 116.019 5.74616 115.695 5.74616H112.371C112.046 5.74616 111.783 5.9955 111.783 6.30474V13.6326C111.783 13.9403 111.52 14.1912 111.195 14.1912H110.662C110.337 14.1896 110.074 13.9565 110.074 13.6472V7.64857C110.074 7.34095 110.342 7.10456 110.667 7.10132C110.992 7.09809 111.25 6.85037 111.25 6.54275C111.25 6.23512 110.972 5.98417 110.646 5.98417H109.603C109.279 5.98417 109.016 5.73483 109.016 5.42559V4.71158C109.016 4.40396 109.279 4.153 109.603 4.153L111.193 4.13843C111.515 4.13843 111.788 4.38291 111.783 4.68729C111.778 4.99168 112.043 5.25397 112.371 5.25397C112.699 5.25397 112.963 4.99977 112.958 4.68729C112.954 4.37481 113.226 4.13843 113.548 4.13843H116.12C116.445 4.13843 116.693 4.39262 116.695 4.70186C116.697 5.01111 116.956 5.25397 117.278 5.25559C117.599 5.2572 117.871 5.49359 117.871 5.80283L117.869 5.80607Z" fill="white"/>
</svg>
