<svg width="129" height="72" viewBox="0 0 129 72" fill="none" xmlns="http://www.w3.org/2000/svg">
<path d="M17.5192 66.8677C18.4009 62.8924 19.9344 60.9048 23.2697 59.7581L16.6758 50.7756H20.6628L26.7967 59.1465C30.6304 58.1145 30.7838 55.4389 31.0521 53.7188L31.4738 50.7756H34.9625C34.8475 51.7312 34.6941 52.6868 34.5025 53.5659C33.5057 58.191 31.9722 60.0257 28.1002 60.8666L35.2309 70.6136H31.2438L24.5732 61.5164C21.1995 62.8924 21.1612 65.5681 20.8162 67.4792C20.5861 68.7788 20.5095 69.5815 20.3561 70.6136H16.9058C17.0975 69.0846 17.2892 67.8997 17.5192 66.8677Z" fill="white"/>
<path d="M42.2148 62.1662V50.7756H45.3201V61.0195C48.2337 60.0639 49.2688 58.6496 49.2688 55.8211V50.7756H52.4508V55.3242C52.4508 59.911 50.534 62.2044 45.4351 63.4276C45.8952 66.3325 47.927 68.1673 50.6873 68.1673C54.0226 68.1673 56.3228 65.5298 56.3228 61.5928V50.7756H59.4665V61.2106C59.4665 67.1352 55.8628 71.1487 50.534 71.1487C45.5885 71.1487 42.2148 67.441 42.2148 62.1662Z" fill="white"/>
<path d="M79.0949 53.7188H66.9805V50.7756H86.724V53.7188H82.3919V70.6136H79.0949V53.7188Z" fill="white"/>
<path d="M105.245 53.7188H94.166V50.7756H106.127C110.229 50.7756 112.299 53.1837 112.299 57.9234V70.6136H108.926V57.6176C108.926 55.0184 107.699 53.7188 105.245 53.7188ZM95.8912 57.9999H99.2648V70.6136H95.8912V57.9999Z" fill="white"/>
<path d="M12.6827 11.1354H0.773438V0.693848H4.02487V8.2329H16.5391V10.08L7.72998 27.7968H4.28952L12.6827 11.1354Z" fill="white"/>
<path d="M21.832 24.8157H26.7092C27.2763 24.8157 27.7678 24.8157 28.2593 24.778L23.8736 8.22974H27.2007L31.2839 24.401C33.6279 23.6848 34.4597 22.0639 35.0646 18.4075C35.367 16.7112 35.5183 14.3364 35.6317 9.69985L35.6695 8.22974H38.9209C38.8831 12.4893 38.5051 17.0881 37.9379 19.7268C36.6903 25.7957 33.8548 27.7936 26.6336 27.7936H21.832V24.8157Z" fill="white"/>
<path d="M62.1172 19.4625V8.23242H65.1796V18.3348C68.0529 17.3924 69.0737 15.9977 69.0737 13.2082V8.23242H72.2117V12.7182C72.2117 17.2416 70.3214 19.5033 65.293 20.7096C65.7467 23.5744 67.7505 25.3838 70.4726 25.3838C73.7618 25.3838 76.0303 22.7828 76.0303 18.9002V8.23242H79.1305V18.5232C79.1305 24.366 75.5766 28.324 70.3214 28.324C65.4442 28.324 62.1172 24.6676 62.1172 19.4656V19.4625Z" fill="white"/>
<path d="M111.191 19.4627V8.23267H114.254V18.335C117.127 17.3926 118.148 15.9979 118.148 13.2084V8.23267H121.286V12.7184C121.286 17.2418 119.396 19.5036 114.367 20.7098C114.821 23.5746 116.825 25.384 119.547 25.384C122.836 25.384 125.104 22.783 125.104 18.9004V8.23267H128.205V18.5235C128.205 24.3662 124.651 28.3243 119.396 28.3243C114.518 28.3243 111.191 24.6678 111.191 19.4659V19.4627Z" fill="white"/>
<path d="M103.777 11.4775V24.52C103.777 25.1169 103.257 25.5755 102.627 25.5818C101.997 25.5881 101.502 26.0655 101.496 26.6561C101.489 27.2467 101.007 27.7493 100.38 27.7493H94.6526C94.0476 27.7493 93.5593 27.2843 93.5593 26.7095V25.8079C93.5593 25.2111 94.0697 24.7242 94.6998 24.7242H99.5581C100.188 24.7242 100.699 24.2405 100.699 23.6405V12.445C100.699 11.8481 100.188 11.3612 99.5581 11.3612H93.1088C92.4786 11.3612 91.9682 11.845 91.9682 12.445V26.6624C91.9682 27.2592 91.4579 27.7461 90.8277 27.7461H89.7943C89.1642 27.743 88.6538 27.2906 88.6538 26.6906V15.0522C88.6538 14.4554 89.1737 13.9968 89.8038 13.9905C90.4339 13.9842 90.9349 13.5036 90.9349 12.9067C90.9349 12.3099 90.3961 11.823 89.7628 11.823H87.7401C87.11 11.823 86.5996 11.3392 86.5996 10.7393V9.35395C86.5996 8.75711 87.11 8.27021 87.7401 8.27021L90.8246 8.24194C91.4484 8.24194 91.9777 8.71628 91.9682 9.30684C91.9588 9.89739 92.4723 10.4063 93.1088 10.4063C93.7452 10.4063 94.2587 9.9131 94.2493 9.30684C94.2398 8.70057 94.7691 8.24194 95.393 8.24194H100.384C101.014 8.24194 101.496 8.73512 101.499 9.33511C101.502 9.93509 102.006 10.4063 102.63 10.4094C103.254 10.4126 103.78 10.8712 103.78 11.4712L103.777 11.4775Z" fill="white"/>
</svg>
