<svg width="23" height="18" viewBox="0 0 23 18" fill="none" xmlns="http://www.w3.org/2000/svg">
<circle cx="8.3668" cy="13.8956" r="1.3668" fill="#121010"/>
<circle cx="1.3668" cy="1.3668" r="1.3668" transform="matrix(-1 0 0 1 15.9727 12.5288)" fill="#121010"/>
<circle cx="5.28672" cy="11.423" r="1.3668" fill="#121010"/>
<circle cx="1.3668" cy="1.3668" r="1.3668" transform="matrix(-1 0 0 1 19.0527 10.0562)" fill="#121010"/>
<circle cx="2.20664" cy="8.9503" r="1.3668" fill="#121010"/>
<circle cx="1.3668" cy="1.3668" r="1.3668" transform="matrix(-1 0 0 1 22.1328 7.5835)" fill="#121010"/>
<circle cx="8.52945" cy="2.08919" r="1.3668" transform="rotate(-75 8.52945 2.08919)" fill="#121010"/>
<circle cx="1.3668" cy="1.3668" r="1.3668" transform="matrix(-0.258819 -0.965926 -0.965926 0.258819 16.1172 3.05566)" fill="#121010"/>
<circle cx="1.50352" cy="4.74229" r="1.3668" fill="#121010"/>
<circle cx="1.3668" cy="1.3668" r="1.3668" transform="matrix(-1 0 0 1 22.8359 3.37549)" fill="#121010"/>
<circle cx="4.26773" cy="1.67806" r="1.3668" transform="rotate(-75 4.26773 1.67806)" fill="#121010"/>
<circle cx="1.3668" cy="1.3668" r="1.3668" transform="matrix(-0.258819 -0.965926 -0.965926 0.258819 20.3789 2.64453)" fill="#121010"/>
<circle cx="11.4488" cy="5.3541" r="1.3668" fill="#121010"/>
<circle cx="11.4488" cy="16.3683" r="1.3668" fill="#121010"/>
</svg>
