<?xml version="1.0" encoding="UTF-8"?>
<svg id="Layer_1" xmlns="http://www.w3.org/2000/svg" version="1.1" viewBox="0 0 1080 1080">
  <!-- Generator: Adobe Illustrator 29.5.1, SVG Export Plug-In . SVG Version: 2.1.0 Build 141)  -->
  <defs>
    <style>
      .st0 {
        fill: #fff;
      }
    </style>
  </defs>
  <path class="st0" d="M562.7,567.7c0,0,0-.2,0-.3,0-5.2,4.2-9.4,9.4-9.4h48.5c2.4,0,4.6-1.2,5.9-3.2s1.1-2.6,1.1-4.1v-23.1c0-3.9-3.1-7-7-7h-.1c-1,0-2-.2-2.8-.7-1.3-.9-2.1-2.2-2.1-3.6,0-1.4-.3-2.7-1-3.9-1.4-2.2-3.6-3.4-6-3.4h-42c-1.9,0-3.6.7-5,2-1.3,1.3-2,3.1-2,5s-.5,2.4-1.4,3.3c-.8.9-2,1.3-3.2,1.4h-.2c-1.7,0-3.4.5-4.8,1.6-1.6,1.4-2.6,3.3-2.6,5.4v44.9c0,3.9,3.1,7,7,7h.2c1,0,1.9.2,2.7.8,1.3.9,2.1,2.2,2.1,3.6,0,1.4.3,2.7,1,3.9,1.3,2.2,3.6,3.4,6,3.4h41.8c1.6,0,3.2-.5,4.5-1.5,1.7-1.4,2.7-3.4,2.7-5.5s.7-3,2-3.9c.8-.6,1.8-.8,2.8-.8h.1c.8,0,1.5,0,2.3-.4,3.2-1.1,5-4.1,4.8-7.2-.3-3.6-3.4-6.5-7.2-6.5h-12.1c-2.2,0-4,.8-5.1,2.2-1.1,1.5-1,3.7-.9,6.2,0,.5,0,1.1,0,1.6,0,.4-.2.9-.5,1.2-.3.3-.7.5-1.2.5h-9.6c0,0-18.9,0-18.9,0-5.2,0-9.4-4.2-9.4-9.5ZM572.8,522.6h29.6c.9,0,1.7.1,2.5.3,4.9,1.2,8.4,5.5,8.4,10.6s-3.4,9.4-8.4,10.6c-.8.2-1.7.3-2.5.3l-32.3-.3c-4.9-1.2-8.2-5.5-8.2-10.5s3.4-9.4,8.4-10.6c.8-.2,1.6-.3,2.5-.3Z"/>
  <path class="st0" d="M405.9,548.7c0,23.5-19.1,42.5-42.5,42.5s-42.5-19.1-42.5-42.5,19.1-42.5,42.5-42.5,42.5,19.1,42.5,42.5Z"/>
  <path class="st0" d="M883.1,548.7c0,23.5-19.1,42.5-42.5,42.5s-42.5-19.1-42.5-42.5,19.1-42.5,42.5-42.5,42.5,19.1,42.5,42.5Z"/>
  <path class="st0" d="M435.7,516v-2.6c0-2.5-2.1-4.6-4.6-4.6h-2.9c-2.5,0-4.6,2.1-4.6,4.6v74.5c0,1.8,1.4,3.2,3.2,3.2h10.6c1.8,0,3.2-1.4,3.2-3.2v-53.8c0-.7.6-1.3,1.3-1.3h0c1.9,0,3.8-.7,5.1-2.1,1.8-1.9,2.5-4,2.3-5.9,0-.7.6-1.3,1.3-1.3h19c.5,0,.9.4.9.9v63.5c0,1.8,1.4,3.2,3.2,3.2h10.3c1.8,0,3.2-1.4,3.2-3.2l.4-53.9c0-.7.6-1.2,1.2-1.2,1.1,0,1.7,0,2.6,0,3.8,0,6.9-4.3,7.4-8.2,0-.6.6-1.1,1.3-1.1h11.7c.5,0,.9.4.9.9v63.5c0,1.8,1.4,3.2,3.2,3.2h10.6c1.8,0,3.2-1.4,3.2-3.2v-65.1c0-2.5-2.1-4.6-4.6-4.6h-5.5c-.5,0-.9-.4-.9-.9v-3.9c0-2.5-2.1-4.6-4.6-4.6h-17.6c-2.5,0-4.6,2.1-4.6,4.6v2.6c0,.4-.2.8-.6.9s-5.6,0-5.7,0h0c-.6,0-1-.4-1-1v-2.6c0-2.5-2.1-4.6-4.6-4.6h-32.3c-2.5,0-4.6,2-4.6,4.5v2.6c0,.5-.4.9-.9,1s-5.5,0-5.5,0h0c-.6,0-1-.5-1-1Z"/>
  <path class="st0" d="M209,516v-2.6c0-2.5-2.1-4.6-4.6-4.6h-2.9c-2.5,0-4.6,2.1-4.6,4.6v74.5c0,1.8,1.4,3.2,3.2,3.2h10.6c1.8,0,3.2-1.4,3.2-3.2v-53.8c0-.7.6-1.3,1.3-1.3h0c1.9,0,3.8-.7,5.1-2.1,1.8-1.9,2.5-4,2.3-5.9s.6-1.3,1.3-1.3h19c.5,0,.9.4.9.9v63.5c0,1.8,1.4,3.2,3.2,3.2h10.3c1.8,0,3.2-1.4,3.2-3.2l.4-53.9c0-.7.6-1.2,1.2-1.2,1.1,0,1.7,0,2.6,0,3.8,0,6.9-4.3,7.4-8.2,0-.6.6-1.1,1.3-1.1h11.7c.5,0,.9.4.9.9v63.5c0,1.8,1.4,3.2,3.2,3.2h10.6c1.8,0,3.2-1.4,3.2-3.2v-65.1c0-2.5-2.1-4.6-4.6-4.6h-5.5c-.5,0-.9-.4-.9-.9v-3.9c0-2.5-2.1-4.6-4.6-4.6h-17.6c-2.5,0-4.6,2.1-4.6,4.6v2.6c0,.4-.2.8-.6.9s-5.6,0-5.7,0h0c-.6,0-1-.4-1-1v-2.6c0-2.5-2.1-4.6-4.6-4.6h-32.3c-2.5,0-4.6,2-4.6,4.5v2.6c0,.5-.4.9-.9,1s-5.5,0-5.5,0h0c-.6,0-1-.5-1-1Z"/>
  <path class="st0" d="M716.3,591.2h-11.3c-1.6,0-2.8-1.3-2.8-2.8v-63.9c0-.5-.4-.9-.9-.9h-28.7c-.7,0-1.3.6-1.3,1.3.1,1.9-.5,4.1-2.3,5.9-1.3,1.4-3.2,2.1-5.1,2.1h0c-.7,0-1.3.5-1.3,1.3v54.2c0,1.6-1.3,2.8-2.8,2.8h-11.3c-1.6,0-2.8-1.3-2.8-2.8v-74.9c0-2.5,2.1-4.6,4.6-4.6h2.8c2.5,0,4.6,2.1,4.6,4.6v2.6c0,.6.5,1,1,1h0c0,0,5.5,0,5.6,0,.5,0,.8-.5.8-1v-2.6c0-2.5,2.1-4.5,4.6-4.5h45.1c2.5,0,4.6,2.1,4.6,4.6v2.6s0,72.3,0,72.3c0,1.6-1.3,2.8-2.8,2.8Z"/>
  <path class="st0" d="M763.4,488.9c1.8.5,3.1,2.1,3.1,4v4.4-4.4c0-1.9-1.3-3.5-3.1-4Z"/>
  <path class="st0" d="M780.2,578.5v9.3c0,1.9-1.5,3.5-3.5,3.5h-13.9c1.9,0,3.5-1.6,3.5-3.5v-61.9c0-1,.8-1.7,1.7-1.7h0c-.9,0-1.7.8-1.7,1.7v45.9c0,1.8,1.4,3.2,3.2,3.2h7.1c1.9,0,3.5,1.6,3.5,3.5Z"/>
  <path class="st0" d="M780.2,513.5v6.6c0,2.3-1.8,4.1-4.1,4.1h-8.1c-1,0-1.7.8-1.7,1.7v61.9c0,1.9-1.5,3.5-3.5,3.5h-7.7c-1.9,0-3.5-1.6-3.5-3.5v-61.9c0-1-.8-1.7-1.7-1.7h-8.1c-2.2,0-4.1-1.8-4.1-4.1v-6.6c0-.8.2-1.6.7-2.3.7-1.1,2-1.8,3.4-1.8h.6c.9,0,1.8,0,2.7,0,.9,0,1.8,0,2.6-.3.8-.2,1.5-.6,2.1-1.2.9-.9,1.2-2.1,1.4-3.3.2-.9.2-2.5.2-4.7v-2.1s.1-4.9.1-4.9c0-1.9,1.2-3.5,3-4,.1,0,.2,0,.4,0,.1,0,.3,0,.4,0,.1,0,.2,0,.3,0h6.4c.1,0,.3,0,.4,0,.1,0,.3,0,.4,0,.1,0,.2,0,.4,0,1.7.5,3,2.1,3,4v4.4c0,0,.2,2.5.2,2.5,0,2.2,0,3.8.2,4.7.2,1.2.5,2.4,1.4,3.3.6.6,1.3,1,2.1,1.2.8.2,1.8.2,2.6.3.9,0,1.8,0,2.7,0h.6c1.4,0,2.7.7,3.4,1.8.4.6.7,1.4.7,2.3Z"/>
  <path class="st0" d="M754.7,488.9c-1.7.5-3,2.1-3,4v4.9c0,0,0-4.9,0-4.9,0-1.9,1.3-3.5,3.1-4Z"/>
</svg>