<svg width="36" height="36" viewBox="0 0 36 36" fill="none" xmlns="http://www.w3.org/2000/svg">
<rect x="0.59375" y="0.510864" width="34.9129" height="34.9123" rx="17.4561" fill="#DFDED0"/>
<path d="M26.4746 17.6464C26.4746 18.3299 25.9205 18.884 25.237 18.884L14.5811 18.884C13.8976 18.884 13.3435 18.3299 13.3435 17.6464C13.3435 16.9628 13.8976 16.4087 14.5812 16.4087L25.237 16.4087C25.9205 16.4087 26.4746 16.9628 26.4746 17.6464Z" fill="#121010"/>
<path d="M19.9069 9.04568C20.3628 9.6173 20.2699 10.4514 19.6994 10.9087L14.1146 15.3853C13.5441 15.8426 12.712 15.7499 12.2561 15.1783C11.8002 14.6066 11.8931 13.7725 12.4637 13.3152L18.0485 8.83867C18.619 8.38138 19.4511 8.47406 19.9069 9.04568Z" fill="#121010"/>
<path d="M19.6309 26.9912C19.112 27.5061 18.2751 27.5018 17.7616 26.9816L12.7303 21.8857C12.2168 21.3656 12.2211 20.5265 12.74 20.0117C13.2588 19.4968 14.0957 19.5011 14.6093 20.0213L19.6405 25.1172C20.154 25.6374 20.1497 26.4764 19.6309 26.9912Z" fill="#121010"/>
<ellipse cx="1.44059" cy="1.44421" rx="1.44059" ry="1.44421" transform="matrix(-1 0 0 1 12.5039 16.2021)" fill="#121010"/>
</svg>
