<svg width="129" height="11" viewBox="0 0 129 11" fill="none" xmlns="http://www.w3.org/2000/svg">
<path d="M5.38834 2.14175H0.166016V0.645752H5.83653C7.92156 0.645752 8.97381 1.86975 8.97381 4.27889V10.7292H7.25901V4.12346C7.25901 2.80232 6.63546 2.14175 5.38834 2.14175Z" fill="white"/>
<path d="M41.2041 8.82492C41.6523 6.80435 42.4317 5.79407 44.127 5.21121L40.7754 0.645508H42.802L45.9198 4.90036C47.8684 4.37579 47.9463 3.01579 48.0827 2.1415L48.2971 0.645508H50.0703C50.0119 1.13122 49.9339 1.61693 49.8365 2.06379C49.3299 4.41464 48.5504 5.34721 46.5823 5.77464L50.2068 10.7289H48.1802L44.7896 6.10493C43.0748 6.80435 43.0553 8.16435 42.8799 9.13578C42.763 9.79635 42.724 10.2043 42.6461 10.7289H40.8923C40.9898 9.95178 41.0872 9.34949 41.2041 8.82492Z" fill="white"/>
<path d="M53.8564 9.19406H59.4295V3.92893C59.4295 2.60779 58.8059 2.1415 57.5588 2.1415H53.8564V0.645508H58.007C60.092 0.645508 61.1443 1.67522 61.1443 4.08436V9.19406H63.2878V10.7289H53.8564V9.19406Z" fill="white"/>
<path d="M36.1425 10.7288C35.6781 10.7288 35.3014 10.3532 35.3014 9.89016V3.15817C35.3014 2.92665 35.2072 2.7178 35.0545 2.56561C34.9019 2.41342 34.6924 2.31951 34.4602 2.31951H32.8201C32.3411 2.31951 31.9221 1.9277 31.94 1.4517C31.9481 1.23313 32.0407 1.03399 32.1852 0.889894C32.3378 0.737704 32.5473 0.643799 32.7795 0.643799H34.4602C34.6924 0.643799 34.9019 0.737704 35.0545 0.889894C35.2072 1.04208 35.3014 1.25094 35.3014 1.48247C35.3014 1.94551 35.6781 2.32113 36.1425 2.32113C36.3748 2.32113 36.5842 2.41503 36.7369 2.56722C36.8895 2.71941 36.9837 2.92827 36.9837 3.1598V9.89178C36.9837 10.3548 36.607 10.7304 36.1425 10.7304V10.7288Z" fill="white"/>
<path d="M27.3349 10.7288C26.8705 10.7288 26.4938 10.3532 26.4938 9.89016V3.15817C26.4938 2.92665 26.3996 2.7178 26.247 2.56561C26.0943 2.41342 25.8848 2.31951 25.6526 2.31951H24.0125C23.5335 2.31951 23.1145 1.9277 23.1324 1.4517C23.1405 1.23313 23.2331 1.03399 23.3776 0.889894C23.5302 0.737704 23.7397 0.643799 23.9719 0.643799H25.6526C25.8848 0.643799 26.0943 0.737704 26.247 0.889894C26.3996 1.04208 26.4938 1.25094 26.4938 1.48247C26.4938 1.94551 26.8705 2.32113 27.3349 2.32113C27.5671 2.32113 27.7766 2.41503 27.9293 2.56722C28.0819 2.71941 28.1761 2.92827 28.1761 3.1598V9.89178C28.1761 10.3548 27.7993 10.7304 27.3349 10.7304V10.7288Z" fill="white"/>
<path d="M18.4994 6.94026C18.035 6.94026 17.6583 6.56465 17.6583 6.1016V3.15818C17.6583 2.92665 17.5641 2.7178 17.4114 2.56561C17.2588 2.41342 17.0493 2.31951 16.8171 2.31951H13.6717C13.1927 2.31951 12.7737 1.9277 12.7916 1.4517C12.7997 1.23313 12.8922 1.03399 13.0368 0.889894C13.1894 0.737704 13.3989 0.643799 13.6311 0.643799H16.8171C17.0493 0.643799 17.2588 0.737704 17.4114 0.889894C17.5641 1.04208 17.6583 1.25094 17.6583 1.48247C17.6583 1.94551 18.035 2.32113 18.4994 2.32113C18.7316 2.32113 18.9411 2.41503 19.0937 2.56722C19.2464 2.71942 19.3406 2.92827 19.3406 3.1598V6.10322C19.3406 6.56627 18.9638 6.94188 18.4994 6.94188V6.94026Z" fill="white"/>
<path d="M77.2588 8.94089H78.4864C78.9541 8.94089 79.2074 8.68832 79.2074 8.22203V1.88833H77.2588V0.392334H83.9231C86.0666 0.392334 87.0604 1.48033 87.0604 3.83119V10.4757H85.3456V3.67576C85.3456 2.4129 84.7805 1.88833 83.4749 1.88833H80.9222V8.24146C80.9222 9.71803 80.1622 10.4757 78.7008 10.4757H77.2588V8.94089Z" fill="white"/>
<path d="M99.7422 6.22099V0.394043H103.951C106.543 0.394043 107.946 2.02604 107.946 4.99861C107.946 8.69003 106.387 10.73 103.561 10.73C101.087 10.73 99.7422 9.13689 99.7422 6.2226V6.22099ZM103.639 9.23241C105.354 9.23241 106.29 7.83355 106.29 5.28842C106.29 2.97642 105.471 1.88842 103.795 1.88842H101.399V6.10441C101.399 8.14441 102.178 9.23241 103.639 9.23241Z" fill="white"/>
<path d="M120.628 8.94089H123.512C125.792 8.94089 126.727 7.83346 126.727 5.17175C126.727 2.9569 125.85 1.88833 124.038 1.88833H120.628V0.392334H124.408C127.058 0.392334 128.383 1.94662 128.383 5.07461C128.383 8.78546 126.864 10.4757 123.512 10.4757H120.628V8.94089Z" fill="white"/>
<path d="M115.967 10.4761C115.502 10.4761 115.126 10.1005 115.126 9.63748V2.90549C115.126 2.67397 115.031 2.46511 114.879 2.31292C114.726 2.16073 114.517 2.06682 114.284 2.06682H112.644C112.165 2.06682 111.746 1.67502 111.764 1.19902C111.772 0.980446 111.865 0.781303 112.009 0.637208C112.162 0.485018 112.372 0.391113 112.604 0.391113H114.284C114.517 0.391113 114.726 0.485018 114.879 0.637208C115.031 0.789398 115.126 0.998255 115.126 1.22978C115.126 1.69283 115.502 2.06844 115.967 2.06844C116.199 2.06844 116.408 2.16235 116.561 2.31454C116.714 2.46673 116.808 2.67559 116.808 2.90711V9.6391C116.808 10.1021 116.431 10.4778 115.967 10.4778V10.4761Z" fill="white"/>
<path d="M95.083 10.4761C94.6186 10.4761 94.2418 10.1005 94.2418 9.63748V2.90549C94.2418 2.67397 94.1476 2.46511 93.995 2.31292C93.8424 2.16073 93.6329 2.06682 93.4007 2.06682H91.7606C91.2815 2.06682 90.8626 1.67502 90.8804 1.19902C90.8886 0.980446 90.9811 0.781303 91.1256 0.637208C91.2783 0.485018 91.4878 0.391113 91.72 0.391113H93.4007C93.6329 0.391113 93.8424 0.485018 93.995 0.637208C94.1476 0.789398 94.2418 0.998255 94.2418 1.22978C94.2418 1.69283 94.6186 2.06844 95.083 2.06844C95.3152 2.06844 95.5247 2.16235 95.6773 2.31454C95.83 2.46673 95.9241 2.67559 95.9241 2.90711V9.6391C95.9241 10.1021 95.5474 10.4778 95.083 10.4778V10.4761Z" fill="white"/>
</svg>
