<svg width="125" height="64" viewBox="0 0 125 64" fill="none" xmlns="http://www.w3.org/2000/svg">
<path d="M11.0622 46.7186H0.798828V43.7786H11.943C16.0407 43.7786 18.1087 46.1841 18.1087 50.9187V63.5954H14.7386V50.6133C14.7386 48.0168 13.5132 46.7186 11.0622 46.7186Z" fill="white"/>
<path d="M81.4499 59.8532C82.3308 55.8822 83.8626 53.8967 87.1944 52.7513L80.6074 43.7783H84.5902L90.7176 52.1403C94.5472 51.1094 94.7004 48.4366 94.9685 46.7184L95.3898 43.7783H98.8747C98.7598 44.7329 98.6066 45.6875 98.4152 46.5657C97.4195 51.1858 95.8876 53.0185 92.0197 53.8586L99.1428 63.5951H95.16L88.4965 54.5077C85.1264 55.8822 85.0881 58.555 84.7434 60.4642C84.5137 61.7624 84.437 62.5642 84.2839 63.5951H80.8372C81.0287 62.0678 81.2202 60.8842 81.4499 59.8532Z" fill="white"/>
<path d="M106.314 60.5787H117.267V50.2312C117.267 47.6348 116.042 46.7184 113.591 46.7184H106.314V43.7783H114.472C118.569 43.7783 120.637 45.802 120.637 50.5367V60.5787H124.85V63.5951H106.314V60.5787Z" fill="white"/>
<path d="M71.5025 63.5951C70.5898 63.5951 69.8493 62.8569 69.8493 61.9469V48.7166C69.8493 48.2616 69.6642 47.8512 69.3643 47.5521C69.0643 47.253 68.6526 47.0684 68.1962 47.0684H64.973C64.0315 47.0684 63.2082 46.2984 63.2433 45.3629C63.2592 44.9334 63.4411 44.542 63.7251 44.2588C64.0251 43.9597 64.4368 43.7751 64.8932 43.7751H68.1962C68.6526 43.7751 69.0643 43.9597 69.3643 44.2588C69.6642 44.5579 69.8493 44.9684 69.8493 45.4234C69.8493 46.3334 70.5898 47.0716 71.5025 47.0716C71.9588 47.0716 72.3705 47.2561 72.6705 47.5552C72.9705 47.8543 73.1556 48.2648 73.1556 48.7198V61.9501C73.1556 62.8601 72.4152 63.5983 71.5025 63.5983V63.5951Z" fill="white"/>
<path d="M54.1939 63.5951C53.2812 63.5951 52.5408 62.8569 52.5408 61.9469V48.7166C52.5408 48.2616 52.3557 47.8512 52.0557 47.5521C51.7557 47.253 51.344 47.0684 50.8877 47.0684H47.6644C46.723 47.0684 45.8996 46.2984 45.9347 45.3629C45.9506 44.9334 46.1325 44.542 46.4166 44.2588C46.7166 43.9597 47.1283 43.7751 47.5846 43.7751H50.8877C51.344 43.7751 51.7557 43.9597 52.0557 44.2588C52.3557 44.5579 52.5408 44.9684 52.5408 45.4234C52.5408 46.3334 53.2812 47.0716 54.1939 47.0716C54.6502 47.0716 55.0619 47.2561 55.3619 47.5552C55.6619 47.8543 55.847 48.2648 55.847 48.7198V61.9501C55.847 62.8601 55.1066 63.5983 54.1939 63.5983V63.5951Z" fill="white"/>
<path d="M36.8281 56.1495C35.9153 56.1495 35.1749 55.4113 35.1749 54.5013V48.7166C35.1749 48.2616 34.9898 47.8512 34.6898 47.5521C34.3898 47.253 33.9782 47.0684 33.5218 47.0684H27.3402C26.3987 47.0684 25.5754 46.2984 25.6105 45.3629C25.6264 44.9334 25.8083 44.542 26.0924 44.2588C26.3923 43.9597 26.804 43.7751 27.2604 43.7751H33.5218C33.9782 43.7751 34.3898 43.9597 34.6898 44.2588C34.9898 44.5579 35.1749 44.9684 35.1749 45.4234C35.1749 46.3334 35.9153 47.0716 36.8281 47.0716C37.2844 47.0716 37.6961 47.2561 37.9961 47.5552C38.296 47.8543 38.4811 48.2648 38.4811 48.7198V54.5045C38.4811 55.4145 37.7408 56.1527 36.8281 56.1527V56.1495Z" fill="white"/>
<path d="M12.5879 17.7577H15.0006C15.9197 17.7577 16.4175 17.2613 16.4175 16.3449V3.89734H12.5879V0.957275H25.6852C29.8978 0.957275 31.8509 3.09551 31.8509 7.71561V20.7741H28.4808V7.41015C28.4808 4.92828 27.3702 3.89734 24.8044 3.89734H19.7876V16.3831C19.7876 19.285 18.294 20.7741 15.4218 20.7741H12.5879V17.7577Z" fill="white"/>
<path d="M56.7715 12.4121V0.960449H65.0434C70.1368 0.960449 72.8942 4.1678 72.8942 10.0097C72.8942 17.2645 69.8305 21.2736 64.2775 21.2736C59.4139 21.2736 56.7715 18.1427 56.7715 12.4153V12.4121ZM64.4307 18.3304C67.8008 18.3304 69.639 15.5812 69.639 10.5793C69.639 6.03557 68.0305 3.89733 64.7371 3.89733H60.0266V12.183C60.0266 16.1922 61.5585 18.3304 64.4307 18.3304Z" fill="white"/>
<path d="M97.8203 17.7577H103.488C107.969 17.7577 109.807 15.5812 109.807 10.3502C109.807 5.99739 108.084 3.89734 104.522 3.89734H97.8203V0.957275H105.25C110.458 0.957275 113.062 4.01189 113.062 10.1593C113.062 17.4522 110.075 20.7741 103.488 20.7741H97.8203V17.7577Z" fill="white"/>
<path d="M88.6607 20.7741C87.748 20.7741 87.0076 20.0359 87.0076 19.1259V5.89558C87.0076 5.44057 86.8225 5.0301 86.5225 4.73101C86.2225 4.43191 85.8108 4.24736 85.3545 4.24736H82.1312C81.1898 4.24736 80.3664 3.47734 80.4015 2.54187C80.4174 2.11231 80.5993 1.72094 80.8834 1.43775C81.1834 1.13865 81.5951 0.954102 82.0514 0.954102H85.3545C85.8108 0.954102 86.2225 1.13865 86.5225 1.43775C86.8225 1.73685 87.0076 2.14731 87.0076 2.60232C87.0076 3.51234 87.748 4.25054 88.6607 4.25054C89.117 4.25054 89.5287 4.43509 89.8287 4.73419C90.1287 5.03329 90.3138 5.44375 90.3138 5.89876V19.1291C90.3138 20.0391 89.5734 20.7773 88.6607 20.7773V20.7741Z" fill="white"/>
<path d="M47.6158 20.7741C46.703 20.7741 45.9627 20.0359 45.9627 19.1259V5.89558C45.9627 5.44057 45.7776 5.0301 45.4776 4.73101C45.1776 4.43191 44.7659 4.24736 44.3095 4.24736H41.0863C40.1448 4.24736 39.3214 3.47734 39.3566 2.54187C39.3725 2.11231 39.5544 1.72094 39.8384 1.43775C40.1384 1.13865 40.5501 0.954102 41.0065 0.954102H44.3095C44.7659 0.954102 45.1776 1.13865 45.4776 1.43775C45.7776 1.73685 45.9627 2.14731 45.9627 2.60232C45.9627 3.51234 46.703 4.25054 47.6158 4.25054C48.0721 4.25054 48.4838 4.43509 48.7838 4.73419C49.0838 5.03329 49.2689 5.44375 49.2689 5.89876V19.1291C49.2689 20.0391 48.5285 20.7773 47.6158 20.7773V20.7741Z" fill="white"/>
</svg>
