<svg width="84" height="64" viewBox="0 0 84 64" fill="none" xmlns="http://www.w3.org/2000/svg">
<path d="M55.4608 20.4054C54.5591 20.4054 53.8277 19.674 53.8277 18.7724V5.66772C53.8277 5.21692 53.6449 4.81025 53.3485 4.51392C53.0522 4.21759 52.6455 4.03475 52.1947 4.03475H49.0106C48.0805 4.03475 47.2672 3.27186 47.3019 2.34504C47.3176 1.91946 47.4973 1.53171 47.7779 1.25114C48.0742 0.954814 48.4809 0.771973 48.9317 0.771973H52.1947C52.6455 0.771973 53.0522 0.954814 53.3485 1.25114C53.6449 1.54747 53.8277 1.95414 53.8277 2.40494C53.8277 3.30654 54.5591 4.0379 55.4608 4.0379C55.9116 4.0379 56.3183 4.22075 56.6146 4.51708C56.911 4.81341 57.0938 5.22007 57.0938 5.67087V18.7787C57.0938 19.6803 56.3624 20.4117 55.4608 20.4117V20.4054Z" fill="white"/>
<path d="M11.2622 3.68483H5.85238V7.65691C5.85238 10.0402 6.64683 10.6833 9.71116 11.4398L10.4678 11.629L9.82465 14.8067C9.55983 14.7688 9.33285 14.6932 9.06803 14.6553C4.52829 13.7474 2.52324 12.0073 2.56107 8.22435L2.5989 0.771973H12.1323C16.1803 0.771973 18.2232 3.15522 18.2232 7.84606V25.9663H14.894L14.894 7.54342C14.894 4.97103 13.6834 3.68483 11.2622 3.68483Z" fill="white"/>
<path d="M33.4054 3.68483H25.1582V0.771973H34.2755C38.3234 0.771973 40.3663 3.15522 40.3663 7.84606V20.4054H37.0372V7.54342C37.0372 4.97103 35.8266 3.68483 33.4054 3.68483Z" fill="white"/>
<path d="M64.0273 0.771973H74.9984C79.0463 0.771973 81.0892 3.15522 81.0892 7.84606V20.4054H77.76V7.54342C77.76 4.97103 76.5495 3.68483 74.1283 3.68483H67.2808V20.4054H64.0273V0.771973Z" fill="white"/>
<path d="M58.4343 55.8211C57.5223 55.8211 56.7825 55.0813 56.7825 54.1693V48.3724C56.7825 47.9164 56.5976 47.5051 56.2978 47.2053C55.9981 46.9056 55.5867 46.7207 55.1307 46.7207H48.954C48.0133 46.7207 47.1906 45.949 47.2257 45.0115C47.2416 44.5811 47.4234 44.1889 47.7072 43.9051C48.0069 43.6054 48.4183 43.4204 48.8743 43.4204H55.1307C55.5867 43.4204 55.9981 43.6054 56.2978 43.9051C56.5976 44.2048 56.7825 44.6162 56.7825 45.0721C56.7825 45.9841 57.5223 46.7239 58.4343 46.7239C58.8903 46.7239 59.3017 46.9088 59.6014 47.2085C59.9012 47.5083 60.0861 47.9196 60.0861 48.3756V54.1725C60.0861 55.0845 59.3463 55.8243 58.4343 55.8243V55.8211Z" fill="white"/>
<path d="M11.5327 55.8216C10.6207 55.8216 9.8809 55.0818 9.8809 54.1698V48.3729C9.8809 47.9169 9.69595 47.5056 9.3962 47.2058C9.09646 46.9061 8.6851 46.7211 8.2291 46.7211H2.05558C1.11489 46.7211 0.292177 45.9495 0.327254 45.012C0.343198 44.5816 0.52496 44.1894 0.808763 43.9056C1.10851 43.6058 1.51987 43.4209 1.97586 43.4209H8.23229C8.68829 43.4209 9.09965 43.6058 9.39939 43.9056C9.69914 44.2053 9.88409 44.6166 9.88409 45.0726C9.88409 45.9846 10.6239 46.7243 11.5359 46.7243C11.9919 46.7243 12.4032 46.9093 12.703 47.209C13.0027 47.5087 13.1877 47.9201 13.1877 48.3761V54.173C13.1877 55.085 12.4479 55.8247 11.5359 55.8247L11.5327 55.8216Z" fill="white"/>
<path d="M33.1713 46.3701H27.0105V58.8824C27.0105 61.7904 25.5181 63.2827 22.6482 63.2827H20.1992V60.2599H22.2273C23.1457 60.2599 23.6431 59.7625 23.6431 58.8441V46.3701H20.1992V43.4238H34.0514C38.2606 43.4238 40.2121 45.5666 40.2121 50.1965V63.2827H36.8448V49.8904C36.8448 47.4033 35.7351 46.3701 33.1713 46.3701Z" fill="white"/>
<path d="M67.0977 60.2599H77.2763V49.8904C77.2763 47.2885 76.0518 46.3701 73.6028 46.3701H67.0977V43.4238H74.4829C78.5773 43.4238 80.6437 45.4518 80.6437 50.1965V60.2599H83.3223V63.2827H67.0977V60.2599Z" fill="white"/>
</svg>
