<svg width="95" height="14" viewBox="0 0 95 14" fill="none" xmlns="http://www.w3.org/2000/svg">
<path d="M81.2316 11.0243C80.7744 11.0243 80.4035 10.6534 80.4035 10.1962V3.55076C80.4035 3.32216 80.3108 3.11594 80.1605 2.96567C80.0102 2.8154 79.804 2.72268 79.5754 2.72268H77.9608C77.4892 2.72268 77.0767 2.33582 77.0943 1.86582C77.1023 1.65001 77.1934 1.45338 77.3357 1.3111C77.486 1.16083 77.6922 1.06812 77.9208 1.06812H79.5754C79.804 1.06812 80.0102 1.16083 80.1605 1.3111C80.3108 1.46137 80.4035 1.6676 80.4035 1.8962C80.4035 2.3534 80.7744 2.72428 81.2316 2.72428C81.4602 2.72428 81.6665 2.817 81.8167 2.96727C81.967 3.11754 82.0597 3.32376 82.0597 3.55236V10.1994C82.0597 10.6566 81.6888 11.0275 81.2316 11.0275V11.0243Z" fill="white"/>
<path d="M58.8188 2.54524H56.0755V4.55949C56.0755 5.76804 56.4784 6.09416 58.0323 6.47783L58.4159 6.57375L58.0898 8.18515C57.9555 8.16597 57.8404 8.1276 57.7061 8.10842C55.4041 7.64802 54.3873 6.76558 54.4065 4.84724L54.4257 1.06812H59.26C61.3127 1.06812 62.3486 2.27667 62.3486 4.65541V13.8442H60.6605V4.50194C60.6605 3.19747 60.0466 2.54524 58.8188 2.54524Z" fill="white"/>
<path d="M70.0483 2.54524H65.8662V1.06812H70.4895C72.5422 1.06812 73.5781 2.27667 73.5781 4.65541V11.0243H71.89V4.50194C71.89 3.19747 71.2761 2.54524 70.0483 2.54524Z" fill="white"/>
<path d="M85.5752 1.06812H91.1385C93.1912 1.06812 94.2271 2.27667 94.2271 4.65541V11.0243H92.5389V4.50194C92.5389 3.19747 91.9251 2.54524 90.6973 2.54524H87.225V11.0243H85.5752V1.06812Z" fill="white"/>
<path d="M29.5183 7.26205C29.0559 7.26205 28.6807 6.88691 28.6807 6.42445V3.48479C28.6807 3.25357 28.5869 3.04498 28.4349 2.89298C28.2829 2.74099 28.0743 2.6472 27.8431 2.6472H24.711C24.2339 2.6472 23.8167 2.25589 23.8345 1.7805C23.8426 1.56221 23.9348 1.36332 24.0787 1.21941C24.2307 1.06742 24.4393 0.973633 24.6705 0.973633H27.8431C28.0743 0.973633 28.2829 1.06742 28.4349 1.21941C28.5869 1.37141 28.6807 1.58 28.6807 1.81123C28.6807 2.27368 29.0559 2.64882 29.5183 2.64882C29.7496 2.64882 29.9582 2.7426 30.1102 2.8946C30.2622 3.0466 30.356 3.25518 30.356 3.48641V6.42607C30.356 6.88853 29.9808 7.26366 29.5183 7.26366V7.26205Z" fill="white"/>
<path d="M5.73548 7.26229C5.27301 7.26229 4.89786 6.88715 4.89786 6.4247V3.48504C4.89786 3.25381 4.80408 3.04522 4.65208 2.89323C4.50008 2.74123 4.29148 2.64745 4.06025 2.64745H0.929706C0.452686 2.64745 0.035496 2.25614 0.0532831 1.78075C0.0613682 1.56246 0.153538 1.36357 0.297453 1.21966C0.449452 1.06766 0.658047 0.973877 0.889281 0.973877H4.06187C4.2931 0.973877 4.5017 1.06766 4.6537 1.21966C4.80569 1.37165 4.89948 1.58024 4.89948 1.81147C4.89948 2.27392 5.27463 2.64906 5.7371 2.64906C5.96833 2.64906 6.17693 2.74285 6.32892 2.89484C6.48092 3.04684 6.57471 3.25543 6.57471 3.48666V6.42632C6.57471 6.88877 6.19956 7.26391 5.7371 7.26391L5.73548 7.26229Z" fill="white"/>
<path d="M16.7099 2.46918H13.5858V8.81419C13.5858 10.2889 12.829 11.0456 11.3737 11.0456H10.1318V9.51273H11.1603C11.626 9.51273 11.8782 9.26048 11.8782 8.79479V2.46918H10.1318V0.975098H17.1562C19.2906 0.975098 20.2802 2.06171 20.2802 4.40955V11.0456H18.5727V4.25432C18.5727 2.99308 18.0099 2.46918 16.7099 2.46918Z" fill="white"/>
<path d="M33.9121 9.51273H39.0736V4.25432C39.0736 2.93487 38.4527 2.46918 37.2108 2.46918H33.9121V0.975098H37.6571C39.7334 0.975098 40.7812 2.00349 40.7812 4.40955V9.51273H42.1395V11.0456H33.9121V9.51273Z" fill="white"/>
</svg>
