<svg width="131" height="18" viewBox="0 0 131 18" fill="none" xmlns="http://www.w3.org/2000/svg">
<path d="M13.5656 14.7804C13.1022 14.7804 12.7263 14.4056 12.7263 13.9436V7.22692C12.7263 6.99592 12.6323 6.78754 12.48 6.6357C12.3277 6.48385 12.1188 6.39016 11.8871 6.39016H10.2507C9.77279 6.39016 9.3548 5.99924 9.37262 5.52433C9.38072 5.30625 9.47303 5.10756 9.61723 4.9638C9.76952 4.81195 9.97855 4.71826 10.2102 4.71826H11.8871C12.1188 4.71826 12.3277 4.81195 12.48 4.9638C12.6323 5.11564 12.7263 5.32402 12.7263 5.55502C12.7263 6.01701 13.1022 6.39178 13.5656 6.39178C13.7973 6.39178 14.0063 6.48547 14.1586 6.63731C14.3109 6.78916 14.4048 6.99754 14.4048 7.22854V13.9452C14.4048 14.4072 14.029 14.782 13.5656 14.782V14.7804Z" fill="white"/>
<path d="M4.67992 17.4364C4.21656 17.4364 3.84065 17.0616 3.84065 16.5996V7.22887C3.84065 6.99788 3.74668 6.7895 3.59438 6.63765C3.44209 6.48581 3.23306 6.39212 3.00138 6.39212H1.36499C0.887046 6.39212 0.469056 6.0012 0.486878 5.52628C0.494979 5.30821 0.587369 5.10952 0.731564 4.96575C0.883859 4.81391 1.09281 4.72021 1.32449 4.72021H3.00138C3.23306 4.72021 3.44209 4.81391 3.59438 4.96575C3.74668 5.1176 3.84065 5.32598 3.84065 5.55697C3.84065 6.01897 4.21656 6.39373 4.67992 6.39373C4.91161 6.39373 5.12055 6.48742 5.27285 6.63927C5.42514 6.79111 5.51912 6.99949 5.51912 7.23049V16.6012C5.51912 17.0632 5.14329 17.438 4.67992 17.438V17.4364Z" fill="white"/>
<path d="M24.3097 6.21273H18.1855V0.843262H19.8575V4.72013H26.2929V5.66997L21.7629 14.7806H19.9936L24.3097 6.21273Z" fill="white"/>
<path d="M30.1064 4.71997H34.9669C37.0472 4.71997 38.0971 5.94119 38.0971 8.34485V14.7805H36.3862V8.18977C36.3862 6.87163 35.7641 6.21257 34.5198 6.21257H31.7785V14.7805H30.1064V4.71997Z" fill="white"/>
<path d="M47.525 6.21257H41.9062V4.71997H47.9722C50.0525 4.71997 51.1023 5.94119 51.1023 8.34485V14.7805H49.3914V8.18977C49.3914 6.87163 48.7693 6.21257 47.525 6.21257ZM42.7812 8.38362H44.4921V14.7805H42.7812V8.38362Z" fill="white"/>
<path d="M71.215 6.54134H65.0908V1.17188H66.7628V5.04875H73.1981V5.99858L68.6682 15.1092H66.8989L71.215 6.54134Z" fill="white"/>
<path d="M75.9209 13.5779H78.4289C78.7205 13.5779 78.9733 13.5779 79.226 13.5586L76.9708 5.04883H78.6817L80.7814 13.3647C81.9868 12.9964 82.4145 12.1629 82.7256 10.2826C82.8811 9.41031 82.9589 8.1891 83.0173 5.80482L83.0366 5.04883H84.7087C84.6893 7.23926 84.4948 9.60415 84.2032 10.9611C83.5616 14.0819 82.1035 15.1093 78.3901 15.1093H75.9209V13.5779Z" fill="white"/>
<path d="M111.421 10.8254V5.04883H112.996V10.2438C114.473 9.75923 114.998 9.04201 114.998 7.60756V5.04883H116.612V7.35557C116.612 9.68169 115.64 10.8448 113.054 11.4651C113.287 12.9383 114.318 13.8687 115.718 13.8687C117.409 13.8687 118.576 12.5312 118.576 10.5346V5.04883H120.17V10.3408C120.17 13.3453 118.342 15.3807 115.64 15.3807C113.132 15.3807 111.421 13.5004 111.421 10.8254Z" fill="white"/>
<path d="M128.278 12.8801L122.465 15.4195V13.7524L127.947 11.3487L127.209 6.54142H123.942V5.04883H128.57L130.067 15.1093H128.608L128.278 12.8801Z" fill="white"/>
<path d="M107.368 6.90953C107.216 6.75769 107.007 6.664 106.775 6.664C106.312 6.664 105.936 6.28923 105.936 5.82724C105.936 5.59624 105.842 5.38786 105.69 5.23601C105.538 5.08417 105.329 4.99048 105.097 4.99048H99.6839C99.4522 4.99048 99.2433 5.08417 99.091 5.23601C98.9387 5.38786 98.8447 5.59624 98.8447 5.82724V14.19C98.8447 14.652 99.2206 15.0267 99.6839 15.0267H106.774C107.005 15.0267 107.215 14.933 107.367 14.7812C107.519 14.6294 107.613 14.421 107.613 14.19V7.50075C107.613 7.26976 107.519 7.06137 107.367 6.90953H107.368ZM105.936 13.0011C105.936 13.2321 105.842 13.4404 105.69 13.5923C105.538 13.7441 105.329 13.8378 105.097 13.8378H101.361C100.897 13.8378 100.522 13.4631 100.522 13.0011V7.32629C100.522 7.0953 100.616 6.88692 100.768 6.73507C100.92 6.58323 101.129 6.48954 101.361 6.48954H105.097C105.329 6.48954 105.538 6.58323 105.69 6.73507C105.842 6.88692 105.936 7.0953 105.936 7.32629V13.0011Z" fill="white"/>
</svg>
