<svg width="37" height="29" viewBox="0 0 37 29" fill="none" xmlns="http://www.w3.org/2000/svg">
<path d="M4.85557 2.81847V1.9462C4.85557 1.08325 4.15122 0.378906 3.28828 0.378906H2.31338C1.45044 0.378906 0.746094 1.08325 0.746094 1.9462L0.746094 27.3494C0.746094 27.9511 1.23587 28.4409 1.8376 28.4409H5.43397C6.0357 28.4409 6.52548 27.9511 6.52548 27.3494L6.52548 9.00366C6.52548 8.75644 6.73072 8.5652 6.9826 8.56986H6.9966C7.64963 8.56986 8.29334 8.33197 8.75047 7.86551C9.37552 7.22647 9.59009 6.50346 9.54344 5.8411C9.52478 5.59388 9.73469 5.38864 9.98191 5.38864H16.4656C16.6336 5.38864 16.7735 5.52857 16.7735 5.6965L16.7735 27.3447C16.7735 27.9464 17.2633 28.4362 17.865 28.4362H21.3588C21.9558 28.4362 22.4456 27.9511 22.4503 27.354L22.5715 8.99434C22.5715 8.76111 22.7628 8.57453 22.996 8.56986C23.3598 8.56986 23.5744 8.5652 23.873 8.5652C25.1604 8.5652 26.2239 7.0912 26.4011 5.7618C26.4291 5.54723 26.611 5.38864 26.8303 5.38864H30.8091C30.9771 5.38864 31.117 5.52857 31.117 5.6965L31.117 27.3447C31.117 27.9464 31.6068 28.4362 32.2085 28.4362H35.8189C36.4206 28.4362 36.9104 27.9464 36.9104 27.3447V5.1694C36.9104 4.3018 36.2107 3.60211 35.3431 3.60211H33.4726C33.3 3.60211 33.1647 3.46218 33.1647 3.29425V1.95086C33.1647 1.08792 32.4604 0.38357 31.5928 0.38357H25.5988C24.7312 0.38357 24.0315 1.08792 24.0315 1.95086V2.84179C24.0315 2.98173 23.9522 3.103 23.8356 3.15898C23.7937 3.17764 21.9372 3.19163 21.8859 3.19163C21.6946 3.19163 21.5407 3.0377 21.5407 2.84645V1.95086C21.536 1.08792 20.8317 0.38357 19.9687 0.38357H8.96504C8.11609 0.38357 7.41174 1.07859 7.39775 1.92287L7.38842 2.8278C7.38842 2.99572 7.26714 3.13566 7.10855 3.16364C7.08522 3.16364 5.25205 3.16831 5.22407 3.16831C5.03282 3.16831 4.87889 3.00971 4.87889 2.82313L4.85557 2.81847Z" fill="#DFDED0"/>
</svg>
