<svg width="153" height="64" viewBox="0 0 153 64" fill="none" xmlns="http://www.w3.org/2000/svg">
<path d="M0.0617103 43.4846H11.7772C16.0696 43.4846 18.2365 45.8869 18.2365 50.6184V63.2823H0.0585938V43.4878L0.0617103 43.4846ZM14.71 60.2659V50.3098C14.71 47.7165 13.4271 46.4183 10.8581 46.4183H3.59455V60.2627H14.71V60.2659Z" fill="white"/>
<path d="M59.0309 46.4213H47.4336V43.4844H59.9532C64.2456 43.4844 66.4125 45.8867 66.4125 50.6182V63.2821H62.8829V50.3127C62.8829 47.7195 61.5999 46.4213 59.0309 46.4213ZM49.2399 50.6945H52.7695V63.2821H49.2399V50.6945Z" fill="white"/>
<path d="M38.0195 55.8497C37.1068 55.8497 36.3663 55.1115 36.3663 54.2015V48.4168C36.3663 47.9618 36.1813 47.5513 35.8813 47.2523C35.5813 46.9532 35.1696 46.7686 34.7132 46.7686H28.5316C27.5902 46.7686 26.7668 45.9986 26.8019 45.0631C26.8178 44.6336 26.9997 44.2422 27.2838 43.959C27.5837 43.6599 27.9955 43.4753 28.4518 43.4753H34.7132C35.1696 43.4753 35.5813 43.6599 35.8813 43.959C36.1813 44.2581 36.3663 44.6686 36.3663 45.1236C36.3663 46.0336 37.1068 46.7718 38.0195 46.7718C38.4759 46.7718 38.8875 46.9563 39.1875 47.2554C39.4875 47.5545 39.6726 47.965 39.6726 48.42V54.2047C39.6726 55.1147 38.9322 55.8529 38.0195 55.8529V55.8497Z" fill="white"/>
<path d="M126.417 63.1596C125.504 63.1596 124.763 62.4214 124.763 61.5114V48.2811C124.763 47.8261 124.578 47.4156 124.278 47.1165C123.978 46.8174 123.567 46.6329 123.11 46.6329H119.887C118.946 46.6329 118.122 45.8628 118.157 44.9274C118.173 44.4978 118.355 44.1064 118.639 43.8232C118.939 43.5241 119.351 43.3396 119.807 43.3396H123.11C123.567 43.3396 123.978 43.5241 124.278 43.8232C124.578 44.1223 124.763 44.5328 124.763 44.9878C124.763 45.8978 125.504 46.636 126.417 46.636C126.873 46.636 127.285 46.8206 127.585 47.1197C127.885 47.4188 128.07 47.8292 128.07 48.2843V61.5146C128.07 62.4246 127.329 63.1628 126.417 63.1628V63.1596Z" fill="white"/>
<path d="M106.614 46.5284H94.1387V36.1013H97.5438V43.6297H110.654V45.4752L101.424 63.1697H97.8215L106.614 46.5284Z" fill="white"/>
<path d="M152.973 46.7578V59.969C152.973 60.5736 152.447 61.0381 151.809 61.0445C151.17 61.0509 150.669 61.5345 150.663 62.1327C150.657 62.7309 150.168 63.24 149.533 63.24H143.731C143.119 63.24 142.624 62.7691 142.624 62.1868V61.2736C142.624 60.669 143.141 60.1759 143.779 60.1759H148.7C149.339 60.1759 149.855 59.6858 149.855 59.0781V47.7378C149.855 47.1333 149.339 46.6401 148.7 46.6401H142.168C141.529 46.6401 141.012 47.1301 141.012 47.7378V62.1391C141.012 62.7436 140.495 63.2368 139.857 63.2368H138.81C138.172 63.2337 137.655 62.7755 137.655 62.1677V50.3788C137.655 49.7743 138.182 49.3097 138.82 49.3033C139.458 49.297 139.966 48.8101 139.966 48.2056C139.966 47.601 139.42 47.1078 138.778 47.1078H136.73C136.091 47.1078 135.574 46.6178 135.574 46.0101V44.6069C135.574 44.0023 136.091 43.5091 136.73 43.5091L139.854 43.4805C140.486 43.4805 141.022 43.9609 141.012 44.5591C141.003 45.1573 141.523 45.6728 142.168 45.6728C142.812 45.6728 143.332 45.1732 143.323 44.5591C143.313 43.945 143.849 43.4805 144.481 43.4805H149.536C150.175 43.4805 150.663 43.98 150.666 44.5878C150.669 45.1955 151.18 45.6728 151.812 45.676C152.444 45.6792 152.977 46.1437 152.977 46.7515L152.973 46.7578Z" fill="white"/>
<path d="M28.6915 3.74538H17.2441V0.84668H29.601C33.8391 0.84668 35.9774 3.21719 35.9774 7.8882V20.3867H32.4924V7.58593C32.4924 5.0245 31.2255 3.74538 28.6915 3.74538ZM19.0249 7.96139H22.5099V20.3867H19.0249V7.96139Z" fill="white"/>
<path d="M43.6236 17.4116H48.7329C49.3265 17.4116 49.8403 17.4116 50.3573 17.3734L45.7618 0.84668H49.2467L53.5231 16.998C55.9805 16.282 56.8517 14.6625 57.4836 11.0128C57.7995 9.32006 57.9591 6.94637 58.0772 2.31671L58.1155 0.849862H61.5206C61.4823 5.10405 61.0866 9.6987 60.4898 12.3333C59.1845 18.3948 56.2134 20.3899 48.6468 20.3899H43.6172V17.4148L43.6236 17.4116Z" fill="white"/>
<path d="M90.3613 0.84668H110.205V2.73036L103.631 20.3867H100.184L106.401 3.74538H90.3613V0.84668ZM92.1421 7.96139H95.5887V25.92H92.1421V7.96139Z" fill="white"/>
<path d="M117.97 12.066V0.84668H121.177V10.9365C124.187 9.99462 125.256 8.60095 125.256 5.8168V0.84668H128.543V5.32678C128.543 9.84507 126.561 12.1042 121.295 13.307C121.771 16.1675 123.871 17.9748 126.721 17.9748C130.167 17.9748 132.542 15.3784 132.542 11.4997V0.84668H135.791V11.1242C135.791 16.9598 132.066 20.9117 126.561 20.9117C121.452 20.9117 117.967 17.2589 117.967 12.0628L117.97 12.066Z" fill="white"/>
<path d="M80.7265 13.1324C79.8138 13.1324 79.0734 12.3942 79.0734 11.4842V5.69953C79.0734 5.24452 78.8882 4.83406 78.5883 4.53496C78.2883 4.23586 77.8766 4.05131 77.4203 4.05131H71.2387C70.2972 4.05131 69.4738 3.2813 69.5089 2.34582C69.5249 1.91627 69.7068 1.52489 69.9908 1.2417C70.2908 0.942606 70.7025 0.758057 71.1589 0.758057H77.4203C77.8766 0.758057 78.2883 0.942606 78.5883 1.2417C78.8882 1.5408 79.0734 1.95127 79.0734 2.40628C79.0734 3.3163 79.8138 4.0545 80.7265 4.0545C81.1829 4.0545 81.5945 4.23905 81.8945 4.53814C82.1945 4.83724 82.3796 5.2477 82.3796 5.70272V11.4874C82.3796 12.3974 81.6393 13.1356 80.7265 13.1356V13.1324Z" fill="white"/>
</svg>
