<svg width="153" height="18" viewBox="0 0 153 18" fill="none" xmlns="http://www.w3.org/2000/svg">
<path d="M0.74768 4.16797H6.70889C8.89297 4.16797 9.99557 5.39035 9.99557 7.79787V14.2417H0.746094V4.16959L0.74768 4.16797ZM8.2012 12.7068V7.64082C8.2012 6.3213 7.5484 5.66073 6.2412 5.66073H2.5453V12.7052H8.2012V12.7068Z" fill="white"/>
<path d="M30.7526 5.66235H24.8516V4.16797H31.2219C33.406 4.16797 34.5086 5.39035 34.5086 7.79787V14.2417H32.7126V7.64244C32.7126 6.32292 32.0598 5.66235 30.7526 5.66235ZM25.7707 7.83672H27.5666V14.2417H25.7707V7.83672Z" fill="white"/>
<path d="M20.0619 10.4598C19.5975 10.4598 19.2208 10.0842 19.2208 9.62113V6.67771C19.2208 6.44619 19.1266 6.23733 18.974 6.08514C18.8213 5.93295 18.6118 5.83904 18.3796 5.83904H15.2342C14.7552 5.83904 14.3362 5.44723 14.3541 4.97123C14.3622 4.75266 14.4547 4.55352 14.5993 4.40943C14.7519 4.25724 14.9614 4.16333 15.1936 4.16333H18.3796C18.6118 4.16333 18.8213 4.25724 18.974 4.40943C19.1266 4.56162 19.2208 4.77047 19.2208 5.002C19.2208 5.46504 19.5975 5.84066 20.0619 5.84066C20.2942 5.84066 20.5036 5.93457 20.6563 6.08676C20.8089 6.23895 20.9031 6.4478 20.9031 6.67933V9.62275C20.9031 10.0858 20.5264 10.4614 20.0619 10.4614V10.4598Z" fill="white"/>
<path d="M65.041 14.1793C64.5765 14.1793 64.1998 13.8036 64.1998 13.3406V6.60861C64.1998 6.37709 64.1056 6.16823 63.953 6.01604C63.8003 5.86385 63.5909 5.76995 63.3587 5.76995H61.7186C61.2395 5.76995 60.8206 5.37814 60.8384 4.90214C60.8466 4.68357 60.9391 4.48443 61.0836 4.34033C61.2363 4.18814 61.4458 4.09424 61.678 4.09424H63.3587C63.5909 4.09424 63.8003 4.18814 63.953 4.34033C64.1056 4.49252 64.1998 4.70138 64.1998 4.9329C64.1998 5.39595 64.5765 5.77157 65.041 5.77157C65.2732 5.77157 65.4827 5.86547 65.6353 6.01766C65.788 6.16985 65.8821 6.37871 65.8821 6.61023V13.3422C65.8821 13.8053 65.5054 14.1809 65.041 14.1809V14.1793Z" fill="white"/>
<path d="M54.9648 5.71674H48.6172V0.411133H50.3498V4.24179H57.0206V5.18084L52.3244 14.1843H50.4911L54.9648 5.71674Z" fill="white"/>
<path d="M78.5544 5.83339V12.5557C78.5544 12.8633 78.2865 13.0997 77.9617 13.1029C77.637 13.1061 77.382 13.3522 77.3788 13.6566C77.3755 13.961 77.1271 14.22 76.8039 14.22H73.8518C73.54 14.22 73.2883 13.9804 73.2883 13.6841V13.2195C73.2883 12.9119 73.5514 12.6609 73.8761 12.6609H76.3801C76.7049 12.6609 76.9679 12.4116 76.9679 12.1023V6.33205C76.9679 6.02444 76.7049 5.77348 76.3801 5.77348H73.0561C72.7313 5.77348 72.4682 6.02282 72.4682 6.33205V13.6599C72.4682 13.9675 72.2052 14.2184 71.8804 14.2184H71.3478C71.023 14.2168 70.7599 13.9837 70.7599 13.6744V7.67586C70.7599 7.36824 71.0279 7.13186 71.3527 7.12862C71.6774 7.12539 71.9356 6.87767 71.9356 6.57005C71.9356 6.26243 71.6579 6.01148 71.3315 6.01148H70.289C69.9643 6.01148 69.7012 5.76215 69.7012 5.45291V4.73891C69.7012 4.43129 69.9643 4.18034 70.289 4.18034L71.8788 4.16577C72.2003 4.16577 72.4731 4.41025 72.4682 4.71463C72.4634 5.01901 72.7281 5.28129 73.0561 5.28129C73.3841 5.28129 73.6488 5.0271 73.6439 4.71463C73.639 4.40215 73.9119 4.16577 74.2334 4.16577H76.8055C77.1303 4.16577 77.3788 4.41996 77.3804 4.7292C77.382 5.03844 77.6418 5.28129 77.9634 5.28291C78.2849 5.28453 78.5561 5.52091 78.5561 5.83015L78.5544 5.83339Z" fill="white"/>
<path d="M98.1353 5.94541H92.3105V4.47046H98.5981C100.755 4.47046 101.843 5.67665 101.843 8.0534V14.413H100.069V7.8996C100.069 6.59626 99.4247 5.94541 98.1353 5.94541ZM93.2167 8.09064H94.9899V14.413H93.2167V8.09064Z" fill="white"/>
<path d="M105.733 12.8992H108.333C108.635 12.8992 108.896 12.8992 109.159 12.8798L106.821 4.47046H108.594L110.77 12.6887C112.02 12.3244 112.464 11.5004 112.785 9.64331C112.946 8.78198 113.027 7.57417 113.087 5.21846L113.107 4.47208H114.839C114.82 6.63674 114.618 8.97464 114.315 10.3152C113.651 13.3995 112.139 14.4146 108.289 14.4146H105.729V12.9008L105.733 12.8992Z" fill="white"/>
<path d="M129.515 4.47046H139.612V5.42893L136.267 14.413H134.513L137.676 5.94541H129.515V4.47046ZM130.421 8.09064H132.175V17.2285H130.421V8.09064Z" fill="white"/>
<path d="M143.562 10.1792V4.47046H145.194V9.60445C146.725 9.12521 147.269 8.41607 147.269 6.99941V4.47046H148.942V6.75007C148.942 9.04912 147.934 10.1986 145.254 10.8106C145.496 12.2662 146.565 13.1858 148.015 13.1858C149.769 13.1858 150.977 11.8646 150.977 9.89102V4.47046H152.63V9.69997C152.63 12.6693 150.735 14.6802 147.934 14.6802C145.334 14.6802 143.561 12.8215 143.561 10.1776L143.562 10.1792Z" fill="white"/>
<path d="M124.612 10.722C124.147 10.722 123.771 10.3464 123.771 9.88334V6.93991C123.771 6.70839 123.676 6.49953 123.524 6.34734C123.371 6.19515 123.162 6.10125 122.929 6.10125H119.784C119.305 6.10125 118.886 5.70944 118.904 5.23344C118.912 5.01487 119.005 4.81573 119.149 4.67163C119.302 4.51944 119.511 4.42554 119.743 4.42554H122.929C123.162 4.42554 123.371 4.51944 123.524 4.67163C123.676 4.82382 123.771 5.03268 123.771 5.2642C123.771 5.72725 124.147 6.10287 124.612 6.10287C124.844 6.10287 125.053 6.19677 125.206 6.34896C125.359 6.50115 125.453 6.71001 125.453 6.94153V9.88496C125.453 10.348 125.076 10.7236 124.612 10.7236V10.722Z" fill="white"/>
</svg>
