<svg width="40" height="19" viewBox="0 0 40 19" fill="none" xmlns="http://www.w3.org/2000/svg">
<path d="M1.98411 11.1511C2.81023 11.1511 3.47993 10.4813 3.47993 9.65512C3.47993 8.82893 2.81023 8.15918 1.98411 8.15918C1.15798 8.15918 0.488281 8.82893 0.488281 9.65512C0.488281 10.4813 1.15798 11.1511 1.98411 11.1511Z" fill="white"/>
<path d="M39.4175 9.73038C39.4175 9.09857 38.9054 8.58643 38.2736 8.58643H7.48957C6.8578 8.58643 6.3457 9.09857 6.3457 9.73038C6.3457 10.3622 6.8578 10.8743 7.48957 10.8743H38.2736C38.9054 10.8743 39.4175 10.3622 39.4175 9.73038Z" fill="white"/>
<path d="M38.2728 10.6509C38.9045 10.6509 39.4166 10.1388 39.4166 9.50695V2.35636C39.4166 1.72454 38.9045 1.2124 38.2728 1.2124C37.641 1.2124 37.1289 1.72454 37.1289 2.35636V9.50695C37.1289 10.1388 37.641 10.6509 38.2728 10.6509Z" fill="white"/>
<path d="M10.7356 18.0882C11.1298 17.5954 11.0506 16.8756 10.5561 16.4796L5.80646 12.6817C5.31372 12.2875 4.59396 12.3667 4.19977 12.8612C3.80557 13.354 3.88477 14.0738 4.37927 14.4698L9.12719 18.2677C9.62169 18.662 10.3414 18.5828 10.7356 18.0882Z" fill="white"/>
<path d="M10.4601 0.700516C10.0114 0.255254 9.28809 0.260534 8.84286 0.709316L4.67744 4.91907C4.23222 5.36785 4.23572 6.09294 4.68447 6.53644C5.13497 6.98171 5.85826 6.97818 6.30349 6.52764L10.4689 2.31789C10.9141 1.86911 10.9089 1.14402 10.4601 0.700516Z" fill="white"/>
</svg>
