<svg width="56" height="25" viewBox="0 0 56 25" fill="none" xmlns="http://www.w3.org/2000/svg">
<path d="M0.0639647 12.738C0.0639648 11.8747 0.763841 11.1748 1.62718 11.1748L49.4034 11.1748C50.2667 11.1748 50.9666 11.8747 50.9666 12.7381C50.9666 13.6014 50.2667 14.3013 49.4034 14.3013L1.62717 14.3012C0.763836 14.3012 0.0639646 13.6014 0.0639647 12.738Z" fill="white"/>
<path d="M43.212 22.884C42.6729 22.2097 42.7825 21.226 43.4568 20.6869L50.0628 15.4051C50.7371 14.8659 51.7208 14.9755 52.2599 15.6498C52.799 16.3241 52.6895 17.3078 52.0152 17.8469L45.4092 23.1288C44.7349 23.6679 43.7512 23.5583 43.212 22.884Z" fill="white"/>
<path d="M43.5364 1.71491C44.15 1.10758 45.1398 1.11266 45.7471 1.72626L51.697 7.73757C52.3043 8.35117 52.2992 9.34092 51.6856 9.94825C51.072 10.5556 50.0823 10.5505 49.4749 9.9369L43.5251 3.9256C42.9178 3.312 42.9228 2.32224 43.5364 1.71491Z" fill="white"/>
<circle cx="1.70364" cy="1.70364" r="1.70364" transform="matrix(1 0 0 -1 51.9668 14.4424)" fill="white"/>
</svg>
